<svg width="20" height="20" viewBox="0 0 20 20" fill="none" xmlns="http://www.w3.org/2000/svg">
<path d="M4.88354 6.4305V5.45822C4.90564 5.03838 5.23709 4.70692 5.63484 4.70692L14.2306 4.68483C14.6505 4.70692 14.9819 5.03838 14.9819 5.43613V14.054C14.9819 14.4517 14.6505 14.7832 14.2306 14.8053H13.2583C12.8385 14.7832 12.507 14.4517 12.4849 14.0319L12.6175 8.81698L6.27566 15.1588C5.9663 15.4682 5.52436 15.4682 5.215 15.1588L4.50789 14.4517C4.22063 14.1645 4.19853 13.7004 4.50789 13.3911L10.8498 7.04921L5.65694 7.20389C5.23709 7.1818 4.88354 6.87244 4.88354 6.4305Z" fill="white"/>
</svg>
