<svg width="197" height="197" viewBox="0 0 197 197" fill="none" xmlns="http://www.w3.org/2000/svg">
<g opacity="0.2">
<rect x="35.039" y="35.0383" width="126.697" height="125.778" rx="62.8889" stroke="white" stroke-width="1.11378"/>
<path d="M127.222 115.06H102.904C101.86 115.06 101.014 115.905 101.014 116.947C101.014 117.989 101.86 118.834 102.904 118.834H127.222C128.266 118.834 129.112 117.989 129.112 116.947C129.112 115.905 128.266 115.06 127.222 115.06Z" fill="white"/>
<path d="M124.648 111.103H105.767C105.031 111.103 104.434 111.699 104.434 112.436C104.434 113.172 105.031 113.769 105.767 113.769H124.648C125.384 113.769 125.981 113.172 125.981 112.436C125.981 111.699 125.384 111.103 124.648 111.103Z" fill="white"/>
<path fill-rule="evenodd" clip-rule="evenodd" d="M82.2611 119.758H95.4008C96.6666 119.758 97.7007 118.724 97.7007 117.459V112.49C97.7007 111.225 96.6666 110.191 95.4008 110.191H86.3688C85.2385 110.191 84.7678 111.182 83.9335 112.412L80.3392 117.701C79.1839 119.398 80.9953 119.761 82.2611 119.761V119.758Z" fill="white"/>
<path fill-rule="evenodd" clip-rule="evenodd" d="M82.2611 90.4069H95.4008C96.6666 90.4069 97.7007 91.4405 97.7007 92.7058V97.6744C97.7007 98.9397 96.6666 99.9733 95.4008 99.9733H86.3688C85.2385 99.9733 84.7678 98.9825 83.9335 97.7528L80.3392 92.4635C79.1839 90.7669 80.9953 90.4033 82.2611 90.4033V90.4069Z" fill="white"/>
<path fill-rule="evenodd" clip-rule="evenodd" d="M77.4461 93.6874L73.2314 102.092C72.6645 103.222 73.1672 105.111 74.4295 105.111H80.9548C82.5451 105.118 82.5486 105.079 83.1013 103.938L84.5597 100.93C85.0518 99.9106 84.442 99.155 83.6112 97.9289L80.0954 92.7357C78.9473 91.0392 78.013 92.5575 77.4461 93.6874Z" fill="white"/>
<path fill-rule="evenodd" clip-rule="evenodd" d="M77.3401 116.443L73.2431 108.491C72.6654 107.368 73.1789 105.476 74.4412 105.472H80.9664C82.5567 105.465 82.4783 105.547 83.113 106.645L84.5642 109.154C85.1312 110.134 84.4573 110.936 83.6158 112.155L79.9894 117.398C78.8234 119.084 77.9213 117.569 77.3401 116.446V116.443Z" fill="white"/>
<path fill-rule="evenodd" clip-rule="evenodd" d="M107.138 84.0458L116.395 92.9208C116.847 93.3521 116.855 94.0721 116.427 94.5283L113.321 97.8359C112.893 98.2921 112.162 98.3064 111.713 97.868L102.524 88.9003C102.078 88.4619 102.06 87.7491 102.492 87.2929L105.526 84.0779C105.954 83.6217 106.682 83.611 107.134 84.0458H107.138Z" fill="white"/>
<path fill-rule="evenodd" clip-rule="evenodd" d="M107.138 84.0458L116.395 92.9208C116.847 93.3521 116.855 94.0721 116.427 94.5283L113.321 97.8359C112.893 98.2921 112.162 98.3064 111.713 97.868L102.524 88.9003C102.078 88.4619 102.06 87.7491 102.492 87.2929L105.526 84.0779C105.954 83.6217 106.682 83.611 107.134 84.0458H107.138Z" fill="white"/>
<path fill-rule="evenodd" clip-rule="evenodd" d="M108.834 81.871L118.454 91.2022C118.8 91.5373 118.814 92.0969 118.475 92.4355C118.137 92.7741 117.584 92.7919 117.242 92.4568L107.621 83.1257C107.276 82.7906 107.261 82.231 107.6 81.8924C107.939 81.5538 108.491 81.536 108.834 81.871Z" fill="white"/>
<path fill-rule="evenodd" clip-rule="evenodd" d="M107.138 84.0458L116.395 92.9208C116.847 93.3521 116.855 94.0721 116.427 94.5283L113.321 97.8359C112.893 98.2921 112.162 98.3064 111.713 97.868L102.524 88.9003C102.078 88.4619 102.06 87.7491 102.492 87.2929L105.526 84.0779C105.954 83.6217 106.682 83.611 107.134 84.0458H107.138Z" fill="white"/>
<path fill-rule="evenodd" clip-rule="evenodd" d="M108.834 81.871L118.454 91.2022C118.8 91.5373 118.814 92.0969 118.475 92.4355C118.137 92.7741 117.584 92.7919 117.242 92.4568L107.621 83.1257C107.276 82.7906 107.261 82.231 107.6 81.8924C107.939 81.5538 108.491 81.536 108.834 81.871Z" fill="white"/>
<path fill-rule="evenodd" clip-rule="evenodd" d="M107.138 84.0458L116.395 92.9208C116.847 93.3521 116.855 94.0721 116.427 94.5283L113.321 97.8359C112.893 98.2921 112.162 98.3064 111.713 97.868L102.524 88.9003C102.078 88.4619 102.06 87.7491 102.492 87.2929L105.526 84.0779C105.954 83.6217 106.682 83.611 107.134 84.0458H107.138Z" fill="white"/>
<path fill-rule="evenodd" clip-rule="evenodd" d="M108.834 81.871L118.454 91.2022C118.8 91.5373 118.814 92.0969 118.475 92.4355C118.137 92.7741 117.584 92.7919 117.242 92.4568L107.621 83.1257C107.276 82.7906 107.261 82.231 107.6 81.8924C107.939 81.5538 108.491 81.536 108.834 81.871Z" fill="white"/>
<path fill-rule="evenodd" clip-rule="evenodd" d="M107.75 79.9298C107.511 79.7194 107.14 79.7444 106.933 79.9868L105.792 81.2952C105.581 81.5341 105.606 81.9049 105.849 82.1117C106.088 82.322 106.459 82.2971 106.666 82.0546L107.807 80.7462C108.017 80.5073 107.993 80.1366 107.75 79.9298Z" fill="white"/>
<path fill-rule="evenodd" clip-rule="evenodd" d="M107.138 84.0458L116.395 92.9208C116.847 93.3521 116.855 94.0721 116.427 94.5283L113.321 97.8359C112.893 98.2921 112.162 98.3064 111.713 97.868L102.524 88.9003C102.078 88.4619 102.06 87.7491 102.492 87.2929L105.526 84.0779C105.954 83.6217 106.682 83.611 107.134 84.0458H107.138Z" fill="white"/>
<path fill-rule="evenodd" clip-rule="evenodd" d="M108.834 81.871L118.454 91.2022C118.8 91.5373 118.814 92.0969 118.475 92.4355C118.137 92.7741 117.584 92.7919 117.242 92.4568L107.621 83.1257C107.276 82.7906 107.261 82.231 107.6 81.8924C107.939 81.5538 108.491 81.536 108.834 81.871Z" fill="white"/>
<path fill-rule="evenodd" clip-rule="evenodd" d="M107.75 79.9298C107.511 79.7194 107.14 79.7444 106.933 79.9868L105.792 81.2952C105.581 81.5341 105.606 81.9049 105.849 82.1117C106.088 82.322 106.459 82.2971 106.666 82.0546L107.807 80.7462C108.017 80.5073 107.993 80.1366 107.75 79.9298Z" fill="white"/>
<path fill-rule="evenodd" clip-rule="evenodd" d="M107.138 84.0458L116.395 92.9208C116.847 93.3521 116.855 94.0721 116.427 94.5283L113.321 97.8359C112.893 98.2921 112.162 98.3064 111.713 97.868L102.524 88.9003C102.078 88.4619 102.06 87.7491 102.492 87.2929L105.526 84.0779C105.954 83.6217 106.682 83.611 107.134 84.0458H107.138Z" fill="white"/>
<path fill-rule="evenodd" clip-rule="evenodd" d="M108.834 81.871L118.454 91.2022C118.8 91.5373 118.814 92.0969 118.475 92.4355C118.137 92.7741 117.584 92.7919 117.242 92.4568L107.621 83.1257C107.276 82.7906 107.261 82.231 107.6 81.8924C107.939 81.5538 108.491 81.536 108.834 81.871Z" fill="white"/>
<path fill-rule="evenodd" clip-rule="evenodd" d="M107.75 79.9298C107.511 79.7194 107.14 79.7444 106.933 79.9868L105.792 81.2952C105.581 81.5341 105.606 81.9049 105.849 82.1117C106.088 82.322 106.459 82.2971 106.666 82.0546L107.807 80.7462C108.017 80.5073 107.993 80.1366 107.75 79.9298Z" fill="white"/>
<path fill-rule="evenodd" clip-rule="evenodd" d="M105.508 82.3273L105.479 82.3024C105.265 82.1028 104.912 82.1384 104.691 82.3665L100.544 86.6971C100.323 86.9288 100.377 87.2887 100.602 87.5133C100.826 87.7378 101.197 87.6879 101.418 87.4563L105.565 83.1257C105.786 82.894 105.747 82.5483 105.508 82.3273Z" fill="white"/>
<path fill-rule="evenodd" clip-rule="evenodd" d="M107.138 84.0458L116.395 92.9208C116.847 93.3521 116.855 94.0721 116.427 94.5283L113.321 97.8359C112.893 98.2921 112.162 98.3064 111.713 97.868L102.524 88.9003C102.078 88.4619 102.06 87.7491 102.492 87.2929L105.526 84.0779C105.954 83.6217 106.682 83.611 107.134 84.0458H107.138Z" fill="white"/>
<path fill-rule="evenodd" clip-rule="evenodd" d="M108.834 81.871L118.454 91.2022C118.8 91.5373 118.814 92.0969 118.475 92.4355C118.137 92.7741 117.584 92.7919 117.242 92.4568L107.621 83.1257C107.276 82.7906 107.261 82.231 107.6 81.8924C107.939 81.5538 108.491 81.536 108.834 81.871Z" fill="white"/>
<path fill-rule="evenodd" clip-rule="evenodd" d="M107.75 79.9298C107.511 79.7194 107.14 79.7444 106.933 79.9868L105.792 81.2952C105.581 81.5341 105.606 81.9049 105.849 82.1117C106.088 82.322 106.459 82.2971 106.666 82.0546L107.807 80.7462C108.017 80.5073 107.993 80.1366 107.75 79.9298Z" fill="white"/>
<path fill-rule="evenodd" clip-rule="evenodd" d="M105.508 82.3273L105.479 82.3024C105.265 82.1028 104.912 82.1384 104.691 82.3665L100.544 86.6971C100.323 86.9288 100.377 87.2887 100.602 87.5133C100.826 87.7378 101.197 87.6879 101.418 87.4563L105.565 83.1257C105.786 82.894 105.747 82.5483 105.508 82.3273Z" fill="white"/>
<path fill-rule="evenodd" clip-rule="evenodd" d="M78.1409 76.8264C78.1409 76.8264 85.7431 71.726 93.5092 75.1441C101.275 78.5622 102.534 81.353 104.527 80.355L104.755 80.241C106.075 79.3784 102.334 75.0229 94.1689 73.4618C86.0033 71.9042 79.881 74.6059 78.1409 76.8264Z" fill="white"/>
<path fill-rule="evenodd" clip-rule="evenodd" d="M107.138 84.0458L116.395 92.9208C116.847 93.3521 116.855 94.0721 116.427 94.5283L113.321 97.8359C112.893 98.2921 112.162 98.3064 111.713 97.868L102.524 88.9003C102.078 88.4619 102.06 87.7491 102.492 87.2929L105.526 84.0779C105.954 83.6217 106.682 83.611 107.134 84.0458H107.138Z" fill="white"/>
<path fill-rule="evenodd" clip-rule="evenodd" d="M108.834 81.871L118.454 91.2022C118.8 91.5373 118.814 92.0969 118.475 92.4355C118.137 92.7741 117.584 92.7919 117.242 92.4568L107.621 83.1257C107.276 82.7906 107.261 82.231 107.6 81.8924C107.939 81.5538 108.491 81.536 108.834 81.871Z" fill="white"/>
<path fill-rule="evenodd" clip-rule="evenodd" d="M107.75 79.9298C107.511 79.7194 107.14 79.7444 106.933 79.9868L105.792 81.2952C105.581 81.5341 105.606 81.9049 105.849 82.1117C106.088 82.322 106.459 82.2971 106.666 82.0546L107.807 80.7462C108.017 80.5073 107.993 80.1366 107.75 79.9298Z" fill="white"/>
<path fill-rule="evenodd" clip-rule="evenodd" d="M105.508 82.3273L105.479 82.3024C105.265 82.1028 104.912 82.1384 104.691 82.3665L100.544 86.6971C100.323 86.9288 100.377 87.2887 100.602 87.5133C100.826 87.7378 101.197 87.6879 101.418 87.4563L105.565 83.1257C105.786 82.894 105.747 82.5483 105.508 82.3273Z" fill="white"/>
<path fill-rule="evenodd" clip-rule="evenodd" d="M78.1409 76.8264C78.1409 76.8264 85.7431 71.726 93.5092 75.1441C101.275 78.5622 102.534 81.353 104.527 80.355L104.755 80.241C106.075 79.3784 102.334 75.0229 94.1689 73.4618C86.0033 71.9042 79.881 74.6059 78.1409 76.8264Z" fill="white"/>
<path fill-rule="evenodd" clip-rule="evenodd" d="M75.523 79.4572C75.523 79.4572 83.578 74.4281 90.8948 77.7784C98.2117 81.1288 99.474 84.661 101.146 83.3137C103.735 81.2286 92.1571 76.0712 90.5668 75.7611C81.8629 74.0609 76.714 78.2311 75.523 79.4572Z" fill="white"/>
<path fill-rule="evenodd" clip-rule="evenodd" d="M107.138 84.0458L116.395 92.9208C116.847 93.3521 116.855 94.0721 116.427 94.5283L113.321 97.8359C112.893 98.2921 112.162 98.3064 111.713 97.868L102.524 88.9003C102.078 88.4619 102.06 87.7491 102.492 87.2929L105.526 84.0779C105.954 83.6217 106.682 83.611 107.134 84.0458H107.138Z" fill="white"/>
<path fill-rule="evenodd" clip-rule="evenodd" d="M108.834 81.871L118.454 91.2022C118.8 91.5373 118.814 92.0969 118.475 92.4355C118.137 92.7741 117.584 92.7919 117.242 92.4568L107.621 83.1257C107.276 82.7906 107.261 82.231 107.6 81.8924C107.939 81.5538 108.491 81.536 108.834 81.871Z" fill="white"/>
<path fill-rule="evenodd" clip-rule="evenodd" d="M107.75 79.9298C107.511 79.7194 107.14 79.7444 106.933 79.9868L105.792 81.2952C105.581 81.5341 105.606 81.9049 105.849 82.1117C106.088 82.322 106.459 82.2971 106.666 82.0546L107.807 80.7462C108.017 80.5073 107.993 80.1366 107.75 79.9298Z" fill="white"/>
<path fill-rule="evenodd" clip-rule="evenodd" d="M105.508 82.3273L105.479 82.3024C105.265 82.1028 104.912 82.1384 104.691 82.3665L100.544 86.6971C100.323 86.9288 100.377 87.2887 100.602 87.5133C100.826 87.7378 101.197 87.6879 101.418 87.4563L105.565 83.1257C105.786 82.894 105.747 82.5483 105.508 82.3273Z" fill="white"/>
<path fill-rule="evenodd" clip-rule="evenodd" d="M78.1409 76.8264C78.1409 76.8264 85.7431 71.726 93.5092 75.1441C101.275 78.5622 102.534 81.353 104.527 80.355L104.755 80.241C106.075 79.3784 102.334 75.0229 94.1689 73.4618C86.0033 71.9042 79.881 74.6059 78.1409 76.8264Z" fill="white"/>
<path fill-rule="evenodd" clip-rule="evenodd" d="M75.523 79.4572C75.523 79.4572 83.578 74.4281 90.8948 77.7784C98.2117 81.1288 99.474 84.661 101.146 83.3137C103.735 81.2286 92.1571 76.0712 90.5668 75.7611C81.8629 74.0609 76.714 78.2311 75.523 79.4572Z" fill="white"/>
<path fill-rule="evenodd" clip-rule="evenodd" d="M107.138 84.0458L116.395 92.9208C116.847 93.3521 116.855 94.0721 116.427 94.5283L113.321 97.8359C112.893 98.2921 112.162 98.3064 111.713 97.868L102.524 88.9003C102.078 88.4619 102.06 87.7491 102.492 87.2929L105.526 84.0779C105.954 83.6217 106.682 83.611 107.134 84.0458H107.138Z" fill="white"/>
<path fill-rule="evenodd" clip-rule="evenodd" d="M108.834 81.871L118.454 91.2022C118.8 91.5373 118.814 92.0969 118.475 92.4355C118.137 92.7741 117.584 92.7919 117.242 92.4568L107.621 83.1257C107.276 82.7906 107.261 82.231 107.6 81.8924C107.939 81.5538 108.491 81.536 108.834 81.871Z" fill="white"/>
<path fill-rule="evenodd" clip-rule="evenodd" d="M107.75 79.9298C107.511 79.7194 107.14 79.7444 106.933 79.9868L105.792 81.2952C105.581 81.5341 105.606 81.9049 105.849 82.1117C106.088 82.322 106.459 82.2971 106.666 82.0546L107.807 80.7462C108.017 80.5073 107.993 80.1366 107.75 79.9298Z" fill="white"/>
<path fill-rule="evenodd" clip-rule="evenodd" d="M105.508 82.3273L105.479 82.3024C105.265 82.1028 104.912 82.1384 104.691 82.3665L100.544 86.6971C100.323 86.9288 100.377 87.2887 100.602 87.5133C100.826 87.7378 101.197 87.6879 101.418 87.4563L105.565 83.1257C105.786 82.894 105.747 82.5483 105.508 82.3273Z" fill="white"/>
<path fill-rule="evenodd" clip-rule="evenodd" d="M78.1409 76.8264C78.1409 76.8264 85.7431 71.726 93.5092 75.1441C101.275 78.5622 102.534 81.353 104.527 80.355L104.755 80.241C106.075 79.3784 102.334 75.0229 94.1689 73.4618C86.0033 71.9042 79.881 74.6059 78.1409 76.8264Z" fill="white"/>
<path fill-rule="evenodd" clip-rule="evenodd" d="M75.523 79.4572C75.523 79.4572 83.578 74.4281 90.8948 77.7784C98.2117 81.1288 99.474 84.661 101.146 83.3137C103.735 81.2286 92.1571 76.0712 90.5668 75.7611C81.8629 74.0609 76.714 78.2311 75.523 79.4572Z" fill="white"/>
<path fill-rule="evenodd" clip-rule="evenodd" d="M107.138 84.0458L116.395 92.9208C116.847 93.3521 116.855 94.0721 116.427 94.5283L113.321 97.8359C112.893 98.2921 112.162 98.3064 111.713 97.868L102.524 88.9003C102.078 88.4619 102.06 87.7491 102.492 87.2929L105.526 84.0779C105.954 83.6217 106.682 83.611 107.134 84.0458H107.138Z" fill="white"/>
<path fill-rule="evenodd" clip-rule="evenodd" d="M108.834 81.871L118.454 91.2022C118.8 91.5373 118.814 92.0969 118.475 92.4355C118.137 92.7741 117.584 92.7919 117.242 92.4568L107.621 83.1257C107.276 82.7906 107.261 82.231 107.6 81.8924C107.939 81.5538 108.491 81.536 108.834 81.871Z" fill="white"/>
<path fill-rule="evenodd" clip-rule="evenodd" d="M107.75 79.9298C107.511 79.7194 107.14 79.7444 106.933 79.9868L105.792 81.2952C105.581 81.5341 105.606 81.9049 105.849 82.1117C106.088 82.322 106.459 82.2971 106.666 82.0546L107.807 80.7462C108.017 80.5073 107.993 80.1366 107.75 79.9298Z" fill="white"/>
<path fill-rule="evenodd" clip-rule="evenodd" d="M105.508 82.3273L105.479 82.3024C105.265 82.1028 104.912 82.1384 104.691 82.3665L100.544 86.6971C100.323 86.9288 100.377 87.2887 100.602 87.5133C100.826 87.7378 101.197 87.6879 101.418 87.4563L105.565 83.1257C105.786 82.894 105.747 82.5483 105.508 82.3273Z" fill="white"/>
<path fill-rule="evenodd" clip-rule="evenodd" d="M78.1409 76.8264C78.1409 76.8264 85.7431 71.726 93.5092 75.1441C101.275 78.5622 102.534 81.353 104.527 80.355L104.755 80.241C106.075 79.3784 102.334 75.0229 94.1689 73.4618C86.0033 71.9042 79.881 74.6059 78.1409 76.8264Z" fill="white"/>
<path fill-rule="evenodd" clip-rule="evenodd" d="M75.523 79.4572C75.523 79.4572 83.578 74.4281 90.8948 77.7784C98.2117 81.1288 99.474 84.661 101.146 83.3137C103.735 81.2286 92.1571 76.0712 90.5668 75.7611C81.8629 74.0609 76.714 78.2311 75.523 79.4572Z" fill="white"/>
<path fill-rule="evenodd" clip-rule="evenodd" d="M107.138 84.0458L116.395 92.9208C116.847 93.3521 116.855 94.0721 116.427 94.5283L113.321 97.8359C112.893 98.2921 112.162 98.3064 111.713 97.868L102.524 88.9003C102.078 88.4619 102.06 87.7491 102.492 87.2929L105.526 84.0779C105.954 83.6217 106.682 83.611 107.134 84.0458H107.138Z" fill="white"/>
<path fill-rule="evenodd" clip-rule="evenodd" d="M108.834 81.871L118.454 91.2022C118.8 91.5373 118.814 92.0969 118.475 92.4355C118.137 92.7741 117.584 92.7919 117.242 92.4568L107.621 83.1257C107.276 82.7906 107.261 82.231 107.6 81.8924C107.939 81.5538 108.491 81.536 108.834 81.871Z" fill="white"/>
<path fill-rule="evenodd" clip-rule="evenodd" d="M107.75 79.9298C107.511 79.7194 107.14 79.7444 106.933 79.9868L105.792 81.2952C105.581 81.5341 105.606 81.9049 105.849 82.1117C106.088 82.322 106.459 82.2971 106.666 82.0546L107.807 80.7462C108.017 80.5073 107.993 80.1366 107.75 79.9298Z" fill="white"/>
<path fill-rule="evenodd" clip-rule="evenodd" d="M105.508 82.3273L105.479 82.3024C105.265 82.1028 104.912 82.1384 104.691 82.3665L100.544 86.6971C100.323 86.9288 100.377 87.2887 100.602 87.5133C100.826 87.7378 101.197 87.6879 101.418 87.4563L105.565 83.1257C105.786 82.894 105.747 82.5483 105.508 82.3273Z" fill="white"/>
<path fill-rule="evenodd" clip-rule="evenodd" d="M78.1409 76.8264C78.1409 76.8264 85.7431 71.726 93.5092 75.1441C101.275 78.5622 102.534 81.353 104.527 80.355L104.755 80.241C106.075 79.3784 102.334 75.0229 94.1689 73.4618C86.0033 71.9042 79.881 74.6059 78.1409 76.8264Z" fill="white"/>
<path fill-rule="evenodd" clip-rule="evenodd" d="M75.523 79.4572C75.523 79.4572 83.578 74.4281 90.8948 77.7784C98.2117 81.1288 99.474 84.661 101.146 83.3137C103.735 81.2286 92.1571 76.0712 90.5668 75.7611C81.8629 74.0609 76.714 78.2311 75.523 79.4572Z" fill="white"/>
<path fill-rule="evenodd" clip-rule="evenodd" d="M91.736 106.349L106.716 92.149C107.151 91.7355 107.81 91.6143 108.078 92.149C108.345 92.6872 108.377 93.1042 107.949 93.5248L93.2514 107.921C92.8235 108.341 92.1317 108.316 91.7074 107.892C91.2831 107.468 91.3009 106.762 91.736 106.349Z" fill="white"/>
<path fill-rule="evenodd" clip-rule="evenodd" d="M107.138 84.0458L116.395 92.9208C116.847 93.3521 116.855 94.0721 116.427 94.5283L113.321 97.8359C112.893 98.2921 112.162 98.3064 111.713 97.868L102.524 88.9003C102.078 88.4619 102.06 87.7491 102.492 87.2929L105.526 84.0779C105.954 83.6217 106.682 83.611 107.134 84.0458H107.138Z" fill="white"/>
<path fill-rule="evenodd" clip-rule="evenodd" d="M108.834 81.871L118.454 91.2022C118.8 91.5373 118.814 92.0969 118.475 92.4355C118.137 92.7741 117.584 92.7919 117.242 92.4568L107.621 83.1257C107.276 82.7906 107.261 82.231 107.6 81.8924C107.939 81.5538 108.491 81.536 108.834 81.871Z" fill="white"/>
<path fill-rule="evenodd" clip-rule="evenodd" d="M120.295 92.1681C120.056 91.9577 119.685 91.9827 119.478 92.2251L118.337 93.5335C118.126 93.7724 118.151 94.1432 118.394 94.35C118.633 94.5603 119.004 94.5353 119.21 94.2929L120.352 92.9845C120.562 92.7456 120.537 92.3748 120.295 92.1681Z" fill="white"/>
<path fill-rule="evenodd" clip-rule="evenodd" d="M107.75 79.9298C107.511 79.7194 107.14 79.7444 106.933 79.9868L105.792 81.2952C105.581 81.5341 105.606 81.9049 105.849 82.1117C106.088 82.322 106.459 82.2971 106.666 82.0546L107.807 80.7462C108.017 80.5073 107.993 80.1366 107.75 79.9298Z" fill="white"/>
<path fill-rule="evenodd" clip-rule="evenodd" d="M118.07 94.5668L118.041 94.5418C117.827 94.3422 117.474 94.3743 117.253 94.606L113.106 98.9365C112.885 99.1682 112.939 99.5282 113.163 99.7527C113.388 99.9773 113.759 99.9274 113.98 99.6957L118.127 95.3652C118.348 95.1335 118.309 94.7877 118.07 94.5668Z" fill="white"/>
<path fill-rule="evenodd" clip-rule="evenodd" d="M105.508 82.3273L105.479 82.3024C105.265 82.1028 104.912 82.1384 104.691 82.3665L100.544 86.6971C100.323 86.9288 100.377 87.2887 100.602 87.5133C100.826 87.7378 101.197 87.6879 101.418 87.4563L105.565 83.1257C105.786 82.894 105.747 82.5483 105.508 82.3273Z" fill="white"/>
<path fill-rule="evenodd" clip-rule="evenodd" d="M78.1409 76.8264C78.1409 76.8264 85.7431 71.726 93.5092 75.1441C101.275 78.5622 102.534 81.353 104.527 80.355L104.755 80.241C106.075 79.3784 102.334 75.0229 94.1689 73.4618C86.0033 71.9042 79.881 74.6059 78.1409 76.8264Z" fill="white"/>
<path fill-rule="evenodd" clip-rule="evenodd" d="M75.523 79.4572C75.523 79.4572 83.578 74.4281 90.8948 77.7784C98.2117 81.1288 99.474 84.661 101.146 83.3137C103.735 81.2286 92.1571 76.0712 90.5668 75.7611C81.8629 74.0609 76.714 78.2311 75.523 79.4572Z" fill="white"/>
<path fill-rule="evenodd" clip-rule="evenodd" d="M82.2708 119.753H95.4105C96.6763 119.753 97.7104 118.719 97.7104 117.454V112.485C97.7104 111.22 96.6763 110.187 95.4105 110.187H86.3785C85.2482 110.187 84.7775 111.177 83.9431 112.407L80.3489 117.696C79.1936 119.393 81.005 119.757 82.2708 119.757V119.753Z" fill="white"/>
<path fill-rule="evenodd" clip-rule="evenodd" d="M82.2708 90.4069H95.4105C96.6763 90.4069 97.7104 91.4405 97.7104 92.7058V97.6744C97.7104 98.9397 96.6763 99.9733 95.4105 99.9733H86.3785C85.2482 99.9733 84.7775 98.9825 83.9431 97.7528L80.3489 92.4635C79.1936 90.7669 81.005 90.4033 82.2708 90.4033V90.4069Z" fill="white"/>
<path fill-rule="evenodd" clip-rule="evenodd" d="M77.4541 93.6874L73.2359 102.092C72.6689 103.222 73.1717 105.111 74.434 105.111H80.9592C82.5496 105.118 82.5531 105.079 83.1058 103.938L84.5642 100.93C85.0563 99.9106 84.4465 99.155 83.6157 97.9289L80.0999 92.7357C78.9517 91.0392 78.0175 92.5575 77.4506 93.6874H77.4541Z" fill="white"/>
<path fill-rule="evenodd" clip-rule="evenodd" d="M77.3446 116.443L73.2476 108.491C72.6699 107.368 73.1834 105.476 74.4456 105.472H80.9709C82.5612 105.465 82.4828 105.547 83.1175 106.645L84.5687 109.154C85.1357 110.134 84.4618 110.936 83.6202 112.155L79.9939 117.398C78.8279 119.084 77.9258 117.569 77.3446 116.446V116.443Z" fill="white"/>
<path d="M27.1093 141.338C26.6974 141.883 26.3822 142.447 26.1638 143.03C25.9354 143.612 25.8105 144.204 25.789 144.805C25.7617 145.411 25.8466 146.021 26.0437 146.635C26.2367 147.243 26.5436 147.845 26.9645 148.44C27.6783 149.451 28.5818 150.179 29.6752 150.623C30.7686 151.068 31.9847 151.172 33.3236 150.936C34.6526 150.697 36.0414 150.067 37.49 149.043C38.9445 148.016 40.007 146.911 40.6775 145.728C41.348 144.545 41.6523 143.359 41.5904 142.168C41.5285 140.977 41.1263 139.856 40.3836 138.804C39.6946 137.829 38.8957 137.119 37.9869 136.676C37.0739 136.226 36.115 136.058 35.1101 136.173C34.0953 136.285 33.0942 136.69 32.1071 137.388L31.7434 136.594L35.3701 141.728L33.1358 143.307L28.1537 136.253L30.1953 134.811C31.7023 133.747 33.2377 133.144 34.8014 133.002C36.3551 132.859 37.831 133.139 39.2289 133.841C40.6227 134.538 41.8313 135.611 42.8545 137.059C44.0015 138.683 44.6344 140.372 44.7531 142.127C44.8677 143.876 44.4801 145.577 43.5901 147.23C42.6943 148.887 41.3001 150.384 39.4075 151.721C37.9764 152.732 36.551 153.441 35.1314 153.848C33.7118 154.256 32.351 154.381 31.0491 154.223C29.7373 154.064 28.5265 153.645 27.4169 152.967C26.2974 152.287 25.327 151.366 24.506 150.203C23.8211 149.233 23.3268 148.23 23.023 147.192C22.7151 146.149 22.5929 145.115 22.6565 144.089C22.716 143.058 22.9553 142.07 23.3743 141.126C23.7874 140.187 24.3785 139.331 25.1474 138.56L27.1093 141.338ZM35.6051 126.091L14.7349 132.953L10.4327 119.868L13.1434 118.977L16.4102 128.913L22.7691 126.822L19.7268 117.569L22.4273 116.681L25.4696 125.934L31.8591 123.833L28.552 113.775L31.2627 112.884L35.6051 126.091ZM11.5354 110.653L8.68469 110.778L7.94113 93.7911L10.7918 93.6664L11.0916 100.515L30.1893 99.6785L30.3337 102.979L11.2361 103.815L11.5354 110.653ZM32.628 79.6823L31.3583 82.9637L13.7222 67.6626L15.1041 64.091L38.4462 64.6456L37.1765 67.9271L18.1677 67.2318L18.1058 67.3918L32.628 79.6823ZM24.8173 76.0275L28.9361 65.3827L31.5373 66.3892L27.4185 77.0339L24.8173 76.0275ZM44.7386 55.5968L28.9303 40.3407L38.3909 30.5377L40.4441 32.5192L33.2853 39.9371L38.1019 44.5854L44.5828 37.87L46.6283 39.844L40.1474 46.5595L47.0404 53.2117L44.7386 55.5968ZM57.3957 43.4016L46.1894 24.5052L52.925 20.5108C54.3889 19.6426 55.7534 19.1744 57.0182 19.106C58.2892 19.0341 59.4291 19.3018 60.4378 19.9092C61.4429 20.5104 62.2902 21.3923 62.9796 22.5549C63.6654 23.7113 64.0262 24.8734 64.0619 26.0412C64.1001 27.1992 63.7773 28.3093 63.0936 29.3717C62.4161 30.4303 61.3453 31.3937 59.8814 32.2619L54.779 35.2878L53.3235 32.8335L58.1675 29.9608C59.0902 29.4136 59.7622 28.8364 60.1835 28.229C60.611 27.6179 60.8106 26.9799 60.7821 26.315C60.7536 25.6501 60.5296 24.964 60.1101 24.2566C59.687 23.5431 59.1819 23.0069 58.5951 22.6483C58.0144 22.2859 57.3497 22.1396 56.6012 22.2094C55.8552 22.2693 55.0116 22.5783 54.0705 23.1365L50.4905 25.2595L60.2468 41.7108L57.3957 43.4016ZM61.668 29.3441L71.3927 35.1009L68.1449 37.0269L58.5124 31.2155L61.668 29.3441ZM74.3417 34.116L68.7029 12.8825L82.0153 9.34732L82.7477 12.1052L72.639 14.7896L74.357 21.2592L83.7711 18.7592L84.5007 21.5067L75.0867 24.0067L76.813 30.5073L87.0461 27.7899L87.7784 30.5477L74.3417 34.116ZM91.9603 30.086L92.0319 8.11673L105.806 8.16159L105.796 11.015L95.3373 10.981L95.3155 17.6747L105.056 17.7064L105.046 20.5491L95.3062 20.5174L95.2843 27.2434L105.872 27.2778L105.863 30.1313L91.9603 30.086ZM155.842 37.9572L153.167 35.9464C153.493 35.2974 153.68 34.6504 153.726 34.0053C153.773 33.3603 153.707 32.7338 153.529 32.1257C153.35 31.5177 153.068 30.9474 152.681 30.415C152.299 29.8868 151.828 29.4122 151.268 28.9912C150.256 28.2307 149.159 27.8041 147.976 27.7114C146.799 27.623 145.61 27.8964 144.407 28.5318C143.211 29.1714 142.08 30.2001 141.015 31.6179C139.941 33.0471 139.263 34.4253 138.981 35.7523C138.705 37.0836 138.778 38.3016 139.201 39.4062C139.623 40.5108 140.334 41.4391 141.335 42.191C141.889 42.6077 142.471 42.9287 143.08 43.1538C143.699 43.3776 144.323 43.4933 144.953 43.5011C145.582 43.5088 146.198 43.4036 146.8 43.1854C147.413 42.9657 147.984 42.6165 148.513 42.1379L151.183 44.1572C150.391 44.9131 149.516 45.4994 148.559 45.9161C147.612 46.3314 146.62 46.5614 145.585 46.6062C144.559 46.6495 143.53 46.5069 142.498 46.1783C141.466 45.8498 140.466 45.3225 139.5 44.5964C137.979 43.4535 136.895 42.075 136.247 40.461C135.604 38.8413 135.446 37.099 135.774 35.2343C136.108 33.3738 136.977 31.5088 138.382 29.6393C139.791 27.7642 141.344 26.4126 143.039 25.5847C144.739 24.7511 146.455 24.4209 148.185 24.5943C149.92 24.7619 151.545 25.415 153.06 26.5535C153.992 27.2539 154.76 28.0413 155.364 28.9158C155.978 29.7889 156.415 30.7254 156.674 31.7255C156.938 32.7198 157.004 33.7447 156.873 34.8001C156.746 35.8498 156.402 36.9022 155.842 37.9572ZM150.446 54.0803L148.415 51.2075L170.917 44.9785L173.128 48.1054L159.755 67.2447L157.723 64.3718L168.817 48.9204L168.718 48.7802L150.446 54.0803ZM157.811 49.5949L164.401 58.9142L162.124 60.5245L155.534 51.2052L157.811 49.5949ZM179.955 76.2016C180.883 75.7726 181.48 75.0765 181.748 74.1133C182.022 73.1479 181.961 72.068 181.564 70.8736C181.28 70.0185 180.898 69.324 180.419 68.7899C179.947 68.2535 179.419 67.8902 178.836 67.6998C178.261 67.5139 177.679 67.5191 177.089 67.7154C176.593 67.8801 176.204 68.1376 175.921 68.4879C175.64 68.845 175.441 69.2542 175.323 69.7155C175.214 70.1813 175.152 70.6618 175.135 71.157C175.126 71.65 175.138 72.117 175.172 72.5581L175.319 74.7699C175.377 75.4891 175.384 76.2445 175.338 77.036C175.292 77.8275 175.141 78.5974 174.885 79.3457C174.629 80.0941 174.226 80.7632 173.676 81.353C173.128 81.9496 172.386 82.4036 171.449 82.715C170.269 83.1076 169.119 83.1508 167.999 82.8447C166.882 82.5453 165.867 81.9068 164.955 80.9291C164.044 79.9582 163.318 78.6585 162.776 77.0298C162.257 75.4689 162.056 74.0361 162.172 72.7313C162.289 71.4265 162.694 70.3006 163.389 69.3536C164.091 68.4043 165.059 67.687 166.291 67.2017L167.341 70.3573C166.608 70.6688 166.061 71.1218 165.701 71.7163C165.35 72.3154 165.164 72.9914 165.143 73.7445C165.131 74.5021 165.26 75.2847 165.528 76.0922C165.824 76.9812 166.226 77.7256 166.734 78.3252C167.252 78.9295 167.828 79.3483 168.463 79.5817C169.105 79.8129 169.766 79.8156 170.444 79.59C171.062 79.3847 171.509 79.0401 171.785 78.5564C172.063 78.0794 172.232 77.4995 172.292 76.8165C172.353 76.1404 172.358 75.3964 172.307 74.5844L172.16 71.8977C172.059 70.0771 172.288 68.5315 172.845 67.261C173.405 65.9972 174.411 65.1239 175.863 64.6411C177.064 64.2417 178.221 64.2188 179.333 64.5725C180.446 64.9261 181.435 65.5771 182.3 66.5253C183.172 67.4713 183.841 68.6432 184.305 70.0412C184.775 71.4527 184.941 72.7804 184.804 74.0241C184.67 75.2746 184.272 76.3564 183.611 77.2696C182.957 78.1804 182.075 78.8356 180.964 79.235L179.955 76.2016ZM166.27 88.4445L188.214 87.3943L188.872 101.152L186.022 101.289L185.522 90.8416L178.836 91.1616L179.302 100.891L176.462 101.027L175.997 91.2975L169.278 91.619L169.784 102.195L166.934 102.331L166.27 88.4445ZM159.64 129.257L178.086 141.189L173.833 147.764C172.909 149.193 171.895 150.22 170.793 150.844C169.687 151.475 168.547 151.742 167.374 151.647C166.206 151.557 165.055 151.144 163.92 150.41C162.791 149.68 161.951 148.8 161.399 147.77C160.849 146.75 160.644 145.612 160.783 144.357C160.919 143.107 161.448 141.768 162.373 140.339L165.595 135.358L167.991 136.907L164.932 141.636C164.349 142.537 164.005 143.353 163.898 144.084C163.787 144.822 163.892 145.482 164.214 146.065C164.535 146.647 165.041 147.162 165.732 147.609C166.428 148.059 167.119 148.315 167.804 148.374C168.486 148.44 169.146 148.276 169.785 147.88C170.426 147.494 171.044 146.842 171.639 145.923L173.899 142.428L157.839 132.04L159.64 129.257ZM162.072 143.747L150.801 142.921L152.852 139.75L164.065 140.666L162.072 143.747ZM148.607 145.122L163.182 161.561L152.876 170.699L150.983 168.564L158.809 161.625L154.368 156.616L147.08 163.078L145.194 160.951L152.482 154.489L148.02 149.457L140.098 156.481L138.205 154.346L148.607 145.122ZM142.232 177.294L129.103 163.686L128.879 163.791L130.935 182.587L127.691 184.108L125.527 160.86L128.995 159.235L145.476 175.773L142.232 177.294ZM117.082 187.194L112.175 165.78L115.406 165.039L120.313 186.454L117.082 187.194ZM107.416 166.402L108.181 188.358L94.416 188.838L94.3165 185.986L104.769 185.622L104.536 178.932L94.8014 179.271L94.7023 176.43L104.437 176.091L104.202 169.369L93.6209 169.738L93.5215 166.886L107.416 166.402ZM85.2991 164.89L84.3585 187.669L81.0403 186.6L82.186 169.094L81.992 169.031L72.5354 183.858L69.2478 182.799L70.2334 165.23L70.0394 165.167L60.7531 180.061L57.4247 178.988L69.974 159.95L73.1493 160.974L72.5015 178.054L72.6648 178.107L82.1136 163.863L85.2991 164.89Z" fill="white"/>
</g>
</svg>
