<svg width="66" height="167" viewBox="0 0 66 167" fill="none" xmlns="http://www.w3.org/2000/svg">
<g filter="url(#filter0_dd_1443_1998)">
<path d="M35.6577 127.592C29.5832 125.163 25.6 119.279 25.6 112.737L25.6 32.0001C25.6 27.5819 29.1817 24.0001 33.6 24.0001H65.6V139.569L35.6577 127.592Z" fill="#F2C438"/>
</g>
<path d="M48.9398 91.4912L38.4398 91.4912L38.4398 85.0487L39.6998 85.0487L39.6998 90.2312L42.6848 90.2312L42.6848 85.9862L43.9448 85.9862L43.9448 90.2312L47.6798 90.2312L47.6798 85.0487L48.9398 85.0487L48.9398 91.4912Z" fill="#162766"/>
<path d="M44.2748 76.7753L48.9398 76.7753L48.9398 78.0353L44.5523 78.0353C44.1723 78.0353 43.8273 78.1278 43.5173 78.3128C43.2073 78.4978 42.9623 78.7453 42.7823 79.0553C42.5973 79.3653 42.5048 79.7103 42.5048 80.0903C42.5048 80.4653 42.5973 80.8103 42.7823 81.1253C42.9623 81.4353 43.2073 81.6828 43.5173 81.8678C43.8273 82.0528 44.1723 82.1453 44.5523 82.1453L48.9398 82.1453L48.9398 83.4053L41.4398 83.4053L41.4398 82.1453L42.3773 82.1453C42.0273 81.8803 41.7498 81.5453 41.5448 81.1403C41.3348 80.7353 41.2298 80.2953 41.2298 79.8203C41.2298 79.2603 41.3673 78.7503 41.6423 78.2903C41.9123 77.8253 42.2773 77.4578 42.7373 77.1878C43.1973 76.9128 43.7098 76.7753 44.2748 76.7753Z" fill="#162766"/>
<path d="M49.1498 71.9269C49.1498 72.6519 48.9723 73.3144 48.6173 73.9144C48.2623 74.5094 47.7848 74.9844 47.1848 75.3394C46.5848 75.6944 45.9198 75.8719 45.1898 75.8719C44.6448 75.8719 44.1348 75.7694 43.6598 75.5644C43.1848 75.3594 42.7673 75.0769 42.4073 74.7169C42.0423 74.3519 41.7573 73.9319 41.5523 73.4569C41.3473 72.9819 41.2448 72.4719 41.2448 71.9269C41.2448 71.3469 41.3823 70.8444 41.6573 70.4194C41.9273 69.9894 42.2823 69.6469 42.7223 69.3919L41.4398 69.3919L41.4398 68.1319L52.6898 68.1319L52.6898 69.3919L47.6723 69.3919C48.1123 69.6469 48.4698 69.9894 48.7448 70.4194C49.0148 70.8444 49.1498 71.3469 49.1498 71.9269ZM42.4673 71.9119C42.4673 72.4069 42.5898 72.8569 42.8348 73.2619C43.0798 73.6669 43.4098 73.9894 43.8248 74.2294C44.2348 74.4644 44.6898 74.5819 45.1898 74.5819C45.6998 74.5819 46.1623 74.4619 46.5773 74.2219C46.9873 73.9769 47.3148 73.6519 47.5598 73.2469C47.7998 72.8419 47.9198 72.3969 47.9198 71.9119C47.9198 71.4169 47.7973 70.9894 47.5523 70.6294C47.3073 70.2694 46.9773 69.9919 46.5623 69.7969C46.1473 69.5969 45.6898 69.4969 45.1898 69.4969C44.6848 69.4969 44.2273 69.5969 43.8173 69.7969C43.4073 69.9919 43.0798 70.2719 42.8348 70.6369C42.5898 70.9969 42.4673 71.4219 42.4673 71.9119Z" fill="#162766"/>
<path d="M46.0898 66.757L41.4398 66.757L41.4398 65.497L45.8123 65.497C46.1923 65.497 46.5373 65.4045 46.8473 65.2195C47.1573 65.0345 47.4048 64.787 47.5898 64.477C47.7698 64.162 47.8598 63.817 47.8598 63.442C47.8598 63.062 47.7698 62.7195 47.5898 62.4145C47.4048 62.1045 47.1573 61.857 46.8473 61.672C46.5373 61.487 46.1923 61.3945 45.8123 61.3945L41.4398 61.3945L41.4398 60.1345L48.9398 60.127L48.9398 61.387L47.9873 61.3945C48.3373 61.6595 48.6173 61.9945 48.8273 62.3995C49.0323 62.8045 49.1348 63.242 49.1348 63.712C49.1348 64.272 48.9998 64.7845 48.7298 65.2495C48.4548 65.7095 48.0873 66.077 47.6273 66.352C47.1673 66.622 46.6548 66.757 46.0898 66.757Z" fill="#162766"/>
<path d="M41.4398 58.6201L41.4398 57.3601L48.9398 57.3601L48.9398 58.6201L41.4398 58.6201ZM40.2173 57.9751C40.2173 58.1751 40.1523 58.3426 40.0223 58.4776C39.8923 58.6126 39.7298 58.6801 39.5348 58.6801C39.3398 58.6801 39.1773 58.6126 39.0473 58.4776C38.9173 58.3426 38.8523 58.1776 38.8523 57.9826C38.8523 57.7876 38.9173 57.6226 39.0473 57.4876C39.1773 57.3526 39.3398 57.2851 39.5348 57.2851C39.7298 57.2851 39.8923 57.3526 40.0223 57.4876C40.1523 57.6176 40.2173 57.7801 40.2173 57.9751Z" fill="#162766"/>
<path d="M48.9398 55.6025L41.4398 55.6025L41.4398 54.3425L42.3773 54.3425C42.0273 54.0775 41.7498 53.7425 41.5448 53.3375C41.3348 52.9325 41.2298 52.4925 41.2298 52.0175C41.2298 51.7275 41.2673 51.4475 41.3423 51.1775L42.6023 51.6875C42.5373 51.8925 42.5048 52.0925 42.5048 52.2875C42.5048 52.6625 42.5973 53.0075 42.7823 53.3225C42.9623 53.6325 43.2073 53.88 43.5173 54.065C43.8273 54.25 44.1723 54.3425 44.5523 54.3425L48.9398 54.3425L48.9398 55.6025Z" fill="#162766"/>
<path d="M41.4398 45.1184L41.4398 43.7834L52.6898 47.8859L52.6898 49.2209L48.9398 47.8634L41.4398 50.5559L41.4398 49.1759L47.2073 47.2334L41.4398 45.1184Z" fill="#162766"/>
<path d="M52.4201 112.736C52.4201 112.736 49.9546 111.938 47.9604 111.299L39.6256 111.451C38.6397 111.47 37.8256 110.741 37.8088 109.826L37.6306 100.107C37.6138 99.1929 38.4006 98.4355 39.3866 98.4174L50.3663 98.2161C51.3528 98.198 52.1663 98.9255 52.1831 99.841L52.3366 108.211L52.3371 108.211L52.4201 112.736ZM50.169 107.327C50.1292 107.284 50.0797 107.248 50.0235 107.223C49.9673 107.198 49.9056 107.183 49.8424 107.18C49.7792 107.176 49.7158 107.184 49.6563 107.204C49.5967 107.223 49.5423 107.253 49.4966 107.291C49.4812 107.303 47.9519 108.539 45.0646 108.592C42.2133 108.644 40.6159 107.474 40.5875 107.453C40.5403 107.417 40.4848 107.389 40.4247 107.372C40.3646 107.355 40.3011 107.35 40.2381 107.355C40.1752 107.361 40.1143 107.378 40.0592 107.405C40.004 107.433 39.9559 107.47 39.9179 107.514C39.8364 107.606 39.7978 107.722 39.81 107.838C39.8209 107.954 39.882 108.061 39.9808 108.137C40.0557 108.194 41.8454 109.536 45.0809 109.477C48.3168 109.417 50.0562 108.011 50.1289 107.951C50.2246 107.871 50.2816 107.762 50.2882 107.646C50.2961 107.53 50.2535 107.416 50.169 107.327Z" fill="#162766"/>
<defs>
<filter id="filter0_dd_1443_1998" x="-1.71661e-05" y="6.79493e-06" width="91.2" height="166.769" filterUnits="userSpaceOnUse" color-interpolation-filters="sRGB">
<feFlood flood-opacity="0" result="BackgroundImageFix"/>
<feColorMatrix in="SourceAlpha" type="matrix" values="0 0 0 0 0 0 0 0 0 0 0 0 0 0 0 0 0 0 127 0" result="hardAlpha"/>
<feOffset dy="1.6"/>
<feGaussianBlur stdDeviation="12.8"/>
<feComposite in2="hardAlpha" operator="out"/>
<feColorMatrix type="matrix" values="0 0 0 0 0 0 0 0 0 0 0 0 0 0 0 0 0 0 0.16 0"/>
<feBlend mode="normal" in2="BackgroundImageFix" result="effect1_dropShadow_1443_1998"/>
<feColorMatrix in="SourceAlpha" type="matrix" values="0 0 0 0 0 0 0 0 0 0 0 0 0 0 0 0 0 0 127 0" result="hardAlpha"/>
<feOffset dy="0.8"/>
<feGaussianBlur stdDeviation="2.4"/>
<feComposite in2="hardAlpha" operator="out"/>
<feColorMatrix type="matrix" values="0 0 0 0 0 0 0 0 0 0 0 0 0 0 0 0 0 0 0.06 0"/>
<feBlend mode="normal" in2="effect1_dropShadow_1443_1998" result="effect2_dropShadow_1443_1998"/>
<feBlend mode="normal" in="SourceGraphic" in2="effect2_dropShadow_1443_1998" result="shape"/>
</filter>
</defs>
</svg>
