<svg width="15" height="15" viewBox="0 0 15 15" fill="none" xmlns="http://www.w3.org/2000/svg">
<path d="M14.7898 14.5205C14.7898 14.5205 12.3242 13.7218 10.33 13.0828L1.99525 13.2357C1.00929 13.2538 0.195242 12.5253 0.178454 11.6098L0.000239173 1.8916C-0.0165323 0.977035 0.770266 0.219697 1.75623 0.201616L12.736 0.000267423C13.7225 -0.017823 14.536 0.709713 14.5528 1.62519L14.7063 9.995L14.7068 9.99499L14.7898 14.5205ZM12.5386 9.11078C12.4989 9.06778 12.4493 9.0325 12.3931 9.0072C12.3369 8.98189 12.2752 8.9671 12.212 8.96377C12.1488 8.96044 12.0854 8.96864 12.0259 8.98784C11.9664 9.00705 11.912 9.03684 11.8662 9.07534C11.8508 9.08745 10.3215 10.3234 7.43428 10.3763C4.58292 10.4286 2.98557 9.25867 2.95711 9.23736C2.90989 9.20076 2.85447 9.17317 2.79434 9.15632C2.73421 9.13947 2.67068 9.13373 2.60776 9.13945C2.54484 9.14518 2.4839 9.16226 2.42878 9.1896C2.37366 9.21694 2.32556 9.25396 2.28752 9.29831C2.20599 9.39067 2.16741 9.5065 2.1796 9.62239C2.1905 9.73771 2.25166 9.84473 2.35042 9.92133C2.42529 9.97819 4.21505 11.3202 7.4505 11.2608C10.6865 11.2015 12.4258 9.7948 12.4986 9.73523C12.5943 9.65499 12.6513 9.54581 12.6578 9.43024C12.6657 9.31419 12.6231 9.20004 12.5386 9.11078Z" fill="#162766"/>
</svg>
