<svg width="226" height="45" viewBox="0 0 226 45" fill="none" xmlns="http://www.w3.org/2000/svg">
<path d="M87.2351 42.4295C87.4893 42.4295 87.7117 42.4295 87.9341 42.3609C88.1565 42.2923 88.3154 42.258 88.4742 42.1894C88.6331 42.1209 88.7602 42.0523 88.8555 41.9494C88.9508 41.8808 89.0461 41.7779 89.1415 41.7093C89.205 41.6407 89.3003 41.5721 89.3321 41.5378C89.3956 41.5035 89.4274 41.4692 89.4909 41.4692C89.5545 41.4692 89.5545 41.4692 89.5863 41.4692C89.5863 41.4692 89.618 41.4692 89.6498 41.5378L90.0311 42.0523C89.6498 42.4638 89.2368 42.8068 88.7602 43.0469C88.2836 43.2869 87.7117 43.3898 87.0762 43.3898C86.4408 43.3898 86.123 43.2869 85.7418 43.1155C85.3605 42.944 85.011 42.6353 84.725 42.2923C84.4391 41.9494 84.2485 41.5378 84.0896 41.0577C83.9307 40.5775 83.8672 40.0631 83.8672 39.48C83.8672 38.897 83.9943 37.971 84.2167 37.3193C84.4391 36.6677 84.7568 36.119 85.1381 35.6388C85.5194 35.1587 85.996 34.8157 86.5361 34.5413C87.0762 34.267 87.6481 34.1641 88.2518 34.1641C88.8555 34.1641 88.8237 34.1641 89.0779 34.2327C89.3321 34.3013 89.5545 34.3698 89.7451 34.4727C89.9358 34.5756 90.1264 34.7128 90.2853 34.85C90.4441 34.9872 90.603 35.1587 90.7301 35.3301L90.3488 35.8103C90.317 35.8446 90.2853 35.8789 90.2535 35.9132C90.2217 35.9475 90.1582 35.9475 90.0946 35.9475C90.0311 35.9475 89.9358 35.9132 89.8722 35.8103C89.8087 35.7417 89.6816 35.6388 89.5545 35.5359C89.4274 35.433 89.2368 35.3301 89.0461 35.2616C88.8237 35.193 88.5695 35.1244 88.22 35.1244C87.8705 35.1244 87.3304 35.2273 86.9491 35.433C86.5679 35.6388 86.2184 35.9132 85.9324 36.2561C85.6465 36.5991 85.424 37.045 85.2652 37.5937C85.1063 38.1082 85.011 38.6912 85.011 39.3428C85.011 39.9945 85.0745 40.2345 85.1699 40.6118C85.297 40.9891 85.4558 41.2977 85.6465 41.5721C85.8371 41.8465 86.0913 42.018 86.3772 42.1552C86.6632 42.2923 86.9491 42.3609 87.2986 42.3609L87.2351 42.4295Z" fill="white"/>
<path d="M92.9501 43.4237C92.6324 43.4237 92.3147 43.3551 92.0605 43.2522C91.8063 43.1493 91.5521 42.9435 91.3615 42.7378C91.1709 42.4977 91.012 42.2233 90.9167 41.9146C90.8214 41.5717 90.7578 41.1944 90.7578 40.7829C90.7578 40.3713 90.8214 39.7197 90.9802 39.2738C91.1391 38.8279 91.3615 38.3821 91.6157 38.0391C91.8699 37.6962 92.2194 37.3875 92.5689 37.1817C92.9184 36.9759 93.3314 36.873 93.7762 36.873C94.221 36.873 94.4117 36.9416 94.6659 37.0445C94.92 37.1474 95.1742 37.3532 95.3649 37.559C95.5555 37.7991 95.7144 38.0734 95.8097 38.3821C95.905 38.7251 95.9685 39.1023 95.9685 39.5139C95.9685 39.9254 95.905 40.5428 95.7461 41.0229C95.5873 41.5031 95.3649 41.9146 95.1107 42.2919C94.8247 42.6349 94.507 42.9435 94.1575 43.1493C93.808 43.3551 93.395 43.458 92.9501 43.458V43.4237ZM93.0454 42.532C93.3314 42.532 93.5856 42.4634 93.808 42.2919C94.0304 42.1204 94.2528 41.8803 94.4117 41.606C94.5705 41.3316 94.6976 40.9886 94.7929 40.6457C94.8883 40.2684 94.92 39.8911 94.92 39.4796C94.92 38.8965 94.8247 38.4507 94.6023 38.142C94.3799 37.8333 94.0622 37.6962 93.6809 37.6962C93.2996 37.6962 93.1408 37.7648 92.8866 37.9362C92.6324 38.1077 92.4418 38.3135 92.2829 38.5879C92.124 38.8622 91.9969 39.2052 91.9016 39.5482C91.8063 39.8911 91.7745 40.3027 91.7745 40.7143C91.7745 41.2973 91.8699 41.7432 92.0923 42.0518C92.3147 42.3605 92.6324 42.4977 93.0137 42.4977L93.0454 42.532Z" fill="white"/>
<path d="M96.8281 43.3191L97.5271 36.9056H98.0355C98.2897 36.9056 98.385 37.0428 98.385 37.2829L98.2897 38.4147C98.5756 37.9002 98.8934 37.4887 99.2429 37.2143C99.5924 36.9399 99.9418 36.8027 100.355 36.8027C100.768 36.8027 101.054 36.9399 101.245 37.2486C101.435 37.5573 101.53 37.9688 101.53 38.5176C101.816 37.9345 102.166 37.4887 102.515 37.2143C102.897 36.9399 103.278 36.8027 103.691 36.8027C104.104 36.8027 104.549 37.0085 104.771 37.4201C104.994 37.8316 105.057 38.449 104.962 39.2035L104.517 43.2848H103.5L103.945 39.2035C104.009 38.689 103.977 38.3118 103.913 38.0717C103.818 37.8316 103.627 37.6944 103.342 37.6944C103.056 37.6944 102.992 37.7287 102.833 37.8316C102.674 37.9345 102.515 38.0717 102.357 38.2432C102.198 38.4147 102.071 38.6204 101.912 38.8948C101.753 39.1692 101.658 39.4436 101.562 39.7865L101.181 43.2848H100.164L100.609 39.2035C100.673 38.689 100.673 38.3118 100.609 38.0717C100.546 37.8316 100.355 37.6944 100.069 37.6944C99.783 37.6944 99.6877 37.763 99.5288 37.8316C99.3699 37.9002 99.1793 38.0717 99.0204 38.2775C98.8616 38.4833 98.7345 38.689 98.5756 38.9977C98.4168 39.3064 98.3214 39.5808 98.2261 39.9237L97.8449 43.2505H96.8281V43.3191Z" fill="white"/>
<path d="M106.047 43.3191L106.746 36.9056H107.254C107.508 36.9056 107.604 37.0428 107.604 37.2829L107.508 38.4147C107.794 37.9002 108.112 37.4887 108.462 37.2143C108.811 36.9399 109.161 36.8027 109.574 36.8027C109.987 36.8027 110.273 36.9399 110.463 37.2486C110.654 37.5573 110.749 37.9688 110.749 38.5176C111.035 37.9345 111.385 37.4887 111.734 37.2143C112.115 36.9399 112.497 36.8027 112.91 36.8027C113.323 36.8027 113.768 37.0085 113.99 37.4201C114.212 37.8316 114.276 38.449 114.181 39.2035L113.736 43.2848H112.719L113.164 39.2035C113.227 38.689 113.196 38.3118 113.132 38.0717C113.037 37.8316 112.846 37.6944 112.56 37.6944C112.274 37.6944 112.243 37.7287 112.052 37.8316C111.893 37.9345 111.734 38.0717 111.575 38.2432C111.416 38.4147 111.258 38.6204 111.131 38.8948C111.003 39.1692 110.876 39.4436 110.781 39.7865L110.4 43.2848H109.383L109.828 39.2035C109.891 38.689 109.891 38.3118 109.828 38.0717C109.764 37.8316 109.574 37.6944 109.288 37.6944C109.002 37.6944 108.906 37.763 108.748 37.8316C108.589 37.9002 108.398 38.0717 108.239 38.2775C108.08 38.4833 107.953 38.689 107.794 38.9977C107.636 39.3064 107.54 39.5808 107.445 39.9237L107.064 43.2505H106.047V43.3191Z" fill="white"/>
<path d="M117.067 36.9423L116.368 43.3558H115.352L116.051 36.9423H117.067ZM117.48 34.9188C117.48 35.0217 117.48 35.1246 117.417 35.2275C117.385 35.3304 117.321 35.399 117.258 35.4676C117.194 35.5362 117.099 35.6047 117.036 35.639C116.94 35.6733 116.845 35.7076 116.75 35.7076C116.654 35.7076 116.559 35.7076 116.495 35.639C116.432 35.5705 116.337 35.5362 116.273 35.4676C116.209 35.399 116.146 35.2961 116.114 35.2275C116.082 35.1589 116.051 35.0217 116.051 34.9188C116.051 34.8159 116.051 34.713 116.114 34.6102C116.178 34.5073 116.209 34.4387 116.273 34.3358C116.337 34.2672 116.432 34.1986 116.495 34.1643C116.559 34.13 116.654 34.0957 116.75 34.0957C116.845 34.0957 116.94 34.0957 117.036 34.1643C117.131 34.2329 117.194 34.2672 117.258 34.3358C117.321 34.4044 117.385 34.5073 117.417 34.6102C117.449 34.713 117.48 34.8159 117.48 34.9188Z" fill="white"/>
<path d="M118.435 42.1205V42.0176C118.435 41.9833 118.435 41.9147 118.435 41.8461C118.435 41.7775 118.435 41.6746 118.435 41.5374C118.435 41.4002 118.435 41.2631 118.499 41.0573L118.88 37.8334H118.245C118.181 37.8334 118.149 37.8334 118.118 37.7648C118.086 37.7305 118.086 37.6619 118.086 37.5933V37.1818C118.118 37.1818 119.039 37.0446 119.039 37.0446L119.484 35.0554C119.484 34.9868 119.547 34.9525 119.579 34.9182C119.611 34.8839 119.675 34.8496 119.738 34.8496H120.278L120.024 37.0789H122.566L123.011 35.0897C123.011 35.0211 123.074 34.9868 123.106 34.9525C123.138 34.9182 123.201 34.8839 123.265 34.8839H123.805L123.551 37.1132H125.108L125.012 37.902H123.456L123.106 41.0573C123.106 41.2288 123.074 41.3659 123.074 41.4688C123.074 41.5717 123.074 41.6746 123.074 41.7089C123.074 41.7432 123.074 41.8118 123.074 41.8461V41.9147C123.074 42.1205 123.106 42.292 123.201 42.3948C123.297 42.4977 123.424 42.532 123.583 42.532C123.741 42.532 123.773 42.532 123.869 42.4977C123.964 42.4634 124.027 42.4291 124.059 42.3948C124.123 42.3605 124.155 42.3263 124.218 42.292C124.25 42.292 124.282 42.2577 124.313 42.2577C124.345 42.2577 124.377 42.2577 124.377 42.2577C124.377 42.2577 124.409 42.292 124.44 42.3263L124.663 42.875C124.472 43.0465 124.25 43.1837 123.996 43.2866C123.741 43.3894 123.519 43.4237 123.265 43.4237C122.884 43.4237 122.598 43.3208 122.375 43.0808C122.153 42.8407 122.058 42.532 122.026 42.1205V42.0176C122.026 41.9833 122.026 41.9147 122.026 41.8461C122.026 41.7775 122.026 41.6746 122.026 41.5374C122.026 41.4002 122.026 41.2631 122.089 41.0573L122.439 37.8334H119.961L119.611 40.9887C119.611 41.1602 119.579 41.2974 119.579 41.4002C119.579 41.5031 119.579 41.606 119.579 41.6403C119.579 41.6746 119.579 41.7432 119.579 41.7775C119.579 41.8118 119.579 41.8118 119.579 41.8461C119.579 42.0519 119.611 42.2234 119.706 42.3263C119.802 42.4291 119.929 42.4634 120.088 42.4634C120.246 42.4634 120.278 42.4634 120.374 42.4291C120.469 42.3948 120.532 42.3605 120.564 42.3263C120.628 42.292 120.66 42.2577 120.723 42.2234C120.755 42.2234 120.787 42.1891 120.818 42.1891C120.85 42.1891 120.882 42.1891 120.882 42.1891C120.882 42.1891 120.914 42.2234 120.945 42.2577L121.168 42.8064C120.977 42.9779 120.755 43.1151 120.532 43.218C120.278 43.3208 120.056 43.3551 119.802 43.3551C119.42 43.3551 119.134 43.2523 118.912 43.0122C118.69 42.7721 118.594 42.4634 118.563 42.0519L118.435 42.1205Z" fill="white"/>
<path d="M130.163 42.1547C129.973 42.3948 129.782 42.5663 129.591 42.7378C129.401 42.9092 129.21 43.0121 129.019 43.1493C128.829 43.2865 128.606 43.3208 128.384 43.3894C128.162 43.4237 127.939 43.458 127.685 43.458C127.431 43.458 127.05 43.3894 126.764 43.2865C126.478 43.1836 126.255 42.9778 126.065 42.772C125.874 42.532 125.747 42.2919 125.62 41.9489C125.524 41.6403 125.461 41.263 125.461 40.8857C125.461 40.5085 125.493 40.2341 125.556 39.8911C125.62 39.5825 125.715 39.2395 125.842 38.9651C125.969 38.6908 126.128 38.3821 126.287 38.142C126.478 37.9019 126.668 37.6619 126.891 37.4904C127.113 37.3189 127.367 37.1474 127.653 37.0445C127.939 36.9416 128.225 36.873 128.543 36.873C128.861 36.873 129.115 36.9073 129.337 37.0102C129.56 37.1131 129.718 37.216 129.877 37.3532C130.004 37.4904 130.132 37.6619 130.195 37.8334C130.259 38.0048 130.29 38.1763 130.29 38.3135C130.29 38.5879 130.227 38.8622 130.132 39.068C130.036 39.2738 129.846 39.5139 129.56 39.6854C129.274 39.8911 128.892 40.0283 128.416 40.1655C127.939 40.3027 127.304 40.4056 126.509 40.5085V40.7829C126.509 41.3659 126.637 41.7774 126.859 42.0861C127.081 42.3948 127.431 42.532 127.907 42.532C128.384 42.532 128.257 42.532 128.416 42.4634C128.575 42.3948 128.702 42.3605 128.797 42.3262C128.924 42.2576 129.019 42.189 129.115 42.1204C129.21 42.0518 129.274 41.9832 129.369 41.9146C129.433 41.846 129.496 41.8117 129.56 41.7775C129.623 41.7432 129.687 41.7089 129.75 41.7089C129.814 41.7089 129.877 41.7089 129.941 41.8117L130.195 42.1547H130.163ZM128.511 37.6619C128.257 37.6619 128.035 37.7305 127.844 37.8334C127.653 37.9362 127.463 38.1077 127.304 38.2792C127.145 38.4507 127.018 38.6908 126.891 38.9651C126.764 39.2395 126.7 39.5139 126.637 39.7883C127.24 39.7197 127.717 39.6168 128.098 39.5139C128.448 39.411 128.734 39.3081 128.924 39.1709C129.115 39.068 129.242 38.9308 129.305 38.7937C129.369 38.6565 129.401 38.5193 129.401 38.3478C129.401 38.1763 129.401 38.2106 129.369 38.1077C129.337 38.0391 129.305 37.9362 129.21 37.8676C129.147 37.7991 129.051 37.7305 128.956 37.6962C128.861 37.6619 128.702 37.6276 128.575 37.6276L128.511 37.6619Z" fill="white"/>
<path d="M137.156 34L136.107 43.3287H135.567C135.44 43.3287 135.344 43.2944 135.281 43.2258C135.217 43.1572 135.217 43.0543 135.217 42.9514L135.344 41.6138C135.186 41.8882 135.027 42.1283 134.868 42.3684C134.709 42.6084 134.518 42.7799 134.328 42.9514C134.137 43.1229 133.946 43.2258 133.724 43.3287C133.502 43.4315 133.311 43.4658 133.089 43.4658C132.58 43.4658 132.199 43.2601 131.913 42.8828C131.627 42.5055 131.5 41.9225 131.5 41.1337C131.5 40.3449 131.532 40.4477 131.595 40.1048C131.659 39.7618 131.754 39.4188 131.881 39.1102C132.008 38.8015 132.167 38.4928 132.326 38.2185C132.485 37.9441 132.707 37.704 132.898 37.4982C133.12 37.2925 133.343 37.1553 133.597 37.0181C133.851 36.8809 134.105 36.8466 134.391 36.8466C134.677 36.8466 134.963 36.9152 135.186 37.0181C135.44 37.1553 135.63 37.3268 135.789 37.5325L136.202 34H137.219H137.156ZM135.662 38.2871C135.503 38.047 135.344 37.9098 135.122 37.8069C134.9 37.704 134.709 37.6697 134.487 37.6697C134.169 37.6697 133.883 37.7726 133.661 37.9784C133.438 38.1842 133.216 38.4243 133.025 38.7329C132.834 39.0416 132.707 39.3846 132.612 39.7961C132.517 40.2077 132.485 40.5506 132.485 40.9279C132.485 41.3052 132.58 41.8196 132.739 42.0597C132.898 42.2998 133.152 42.4712 133.438 42.4712C133.724 42.4712 133.819 42.4026 134.01 42.2655C134.201 42.1283 134.391 41.9568 134.55 41.751C134.709 41.5452 134.9 41.2709 135.059 40.9622C135.217 40.6535 135.344 40.3106 135.472 39.9676L135.662 38.3214V38.2871Z" fill="white"/>
<path d="M140.421 42.1224V42.0195C140.421 41.9852 140.421 41.9166 140.421 41.8481C140.421 41.7795 140.421 41.6766 140.421 41.5394C140.421 41.4022 140.453 41.265 140.484 41.0592L140.834 37.8697H140.167C140.103 37.8697 140.071 37.8697 140.04 37.8011C140.008 37.7668 140.008 37.6982 140.008 37.6296V37.1837C140.04 37.1837 140.961 37.0465 140.961 37.0465L141.406 35.0573C141.406 34.9887 141.469 34.9545 141.501 34.9202C141.533 34.8859 141.596 34.8516 141.66 34.8516H142.2L141.946 37.0465H143.503L143.407 37.8697H141.851L141.501 41.0249C141.501 41.1964 141.469 41.3336 141.469 41.4365C141.469 41.5394 141.469 41.6423 141.469 41.6766C141.469 41.7109 141.469 41.7795 141.469 41.8138C141.469 41.8481 141.469 41.8481 141.469 41.8823C141.469 42.0881 141.501 42.2596 141.596 42.3625C141.692 42.4654 141.819 42.4997 141.978 42.4997C142.137 42.4997 142.168 42.4997 142.264 42.4654C142.359 42.4311 142.423 42.3968 142.454 42.3625C142.518 42.3282 142.55 42.2939 142.613 42.2596C142.645 42.2596 142.677 42.2253 142.708 42.2253C142.74 42.2253 142.772 42.2253 142.772 42.2253C142.772 42.2253 142.804 42.2596 142.836 42.2939L143.058 42.8427C142.867 43.0141 142.645 43.1513 142.391 43.2542C142.137 43.3571 141.914 43.3914 141.66 43.3914C141.279 43.3914 140.993 43.2885 140.77 43.0484C140.548 42.8084 140.453 42.4997 140.421 42.0881V42.1224Z" fill="white"/>
<path d="M146.208 43.4237C145.89 43.4237 145.572 43.3551 145.318 43.2522C145.064 43.1493 144.81 42.9435 144.619 42.7378C144.429 42.4977 144.27 42.2233 144.174 41.9146C144.079 41.5717 144.016 41.1944 144.016 40.7829C144.016 40.3713 144.079 39.7197 144.238 39.2738C144.397 38.8279 144.619 38.3821 144.873 38.0391C145.128 37.6962 145.477 37.3875 145.827 37.1817C146.176 36.9759 146.589 36.873 147.034 36.873C147.479 36.873 147.669 36.9416 147.924 37.0445C148.178 37.1474 148.432 37.3532 148.623 37.559C148.813 37.7991 148.972 38.0734 149.067 38.3821C149.163 38.7251 149.226 39.1023 149.226 39.5139C149.226 39.9254 149.163 40.5428 149.004 41.0229C148.845 41.5031 148.623 41.9146 148.368 42.2919C148.083 42.6349 147.765 42.9435 147.415 43.1493C147.066 43.3551 146.653 43.458 146.208 43.458V43.4237ZM146.303 42.532C146.589 42.532 146.843 42.4634 147.066 42.2919C147.288 42.1204 147.511 41.8803 147.669 41.606C147.828 41.3316 147.955 40.9886 148.051 40.6457C148.146 40.2684 148.178 39.8911 148.178 39.4796C148.178 38.8965 148.083 38.4507 147.86 38.142C147.638 37.8333 147.32 37.6962 146.939 37.6962C146.557 37.6962 146.399 37.7648 146.144 37.9362C145.89 38.1077 145.7 38.3135 145.541 38.5879C145.382 38.8622 145.255 39.2052 145.159 39.5482C145.064 39.8911 145.032 40.3027 145.032 40.7143C145.032 41.2973 145.128 41.7432 145.35 42.0518C145.572 42.3605 145.89 42.4977 146.303 42.4977V42.532Z" fill="white"/>
<path d="M157.484 42.1547C157.293 42.3948 157.102 42.5663 156.912 42.7378C156.721 42.9092 156.53 43.0121 156.34 43.1493C156.149 43.2865 155.927 43.3208 155.704 43.3894C155.482 43.4237 155.26 43.458 155.005 43.458C154.751 43.458 154.37 43.3894 154.084 43.2865C153.798 43.1836 153.576 42.9778 153.385 42.772C153.194 42.532 153.067 42.2919 152.94 41.9489C152.845 41.6403 152.781 41.263 152.781 40.8857C152.781 40.5085 152.813 40.2341 152.877 39.8911C152.94 39.5825 153.035 39.2395 153.163 38.9651C153.29 38.6908 153.448 38.3821 153.607 38.142C153.798 37.9019 153.989 37.6619 154.211 37.4904C154.433 37.3189 154.688 37.1474 154.974 37.0445C155.26 36.9416 155.545 36.873 155.863 36.873C156.181 36.873 156.435 36.9073 156.658 37.0102C156.88 37.1131 157.039 37.216 157.198 37.3532C157.325 37.4904 157.452 37.6619 157.515 37.8334C157.579 38.0048 157.611 38.1763 157.611 38.3135C157.611 38.5879 157.547 38.8622 157.452 39.068C157.357 39.2738 157.166 39.5139 156.88 39.6854C156.594 39.8911 156.213 40.0283 155.736 40.1655C155.26 40.3027 154.624 40.4056 153.83 40.5085V40.7829C153.83 41.3659 153.957 41.7774 154.179 42.0861C154.402 42.3948 154.751 42.532 155.228 42.532C155.704 42.532 155.577 42.532 155.736 42.4634C155.895 42.3948 156.022 42.3605 156.117 42.3262C156.244 42.2576 156.34 42.189 156.435 42.1204C156.53 42.0518 156.594 41.9832 156.689 41.9146C156.753 41.846 156.816 41.8117 156.88 41.7775C156.943 41.7432 157.007 41.7089 157.071 41.7089C157.134 41.7089 157.198 41.7089 157.261 41.8117L157.515 42.1547H157.484ZM155.831 37.6619C155.577 37.6619 155.355 37.7305 155.164 37.8334C154.974 37.9362 154.783 38.1077 154.624 38.2792C154.465 38.4507 154.338 38.6908 154.211 38.9651C154.084 39.2395 154.02 39.5139 153.957 39.7883C154.561 39.7197 155.037 39.6168 155.418 39.5139C155.768 39.411 156.054 39.3081 156.244 39.1709C156.435 39.068 156.562 38.9308 156.626 38.7937C156.689 38.6565 156.721 38.5193 156.721 38.3478C156.721 38.1763 156.721 38.2106 156.689 38.1077C156.658 38.0391 156.626 37.9362 156.53 37.8676C156.467 37.7991 156.372 37.7305 156.276 37.6962C156.181 37.6619 156.022 37.6276 155.895 37.6276L155.831 37.6619Z" fill="white"/>
<path d="M161.428 39.8903L163.016 43.3199H162.095C162.031 43.3199 161.968 43.3199 161.904 43.2513C161.873 43.217 161.809 43.1484 161.809 43.0799L160.697 40.5076C160.665 40.6105 160.633 40.6791 160.57 40.7477L158.95 43.0799C158.918 43.1484 158.854 43.1827 158.822 43.217C158.791 43.2513 158.727 43.2856 158.664 43.2856H157.742L160.125 39.8217L158.695 36.8722H159.617C159.68 36.8722 159.744 36.8722 159.776 36.8722C159.807 36.8722 159.839 36.9408 159.871 37.0094L160.856 39.2044C160.888 39.1015 160.951 39.0329 161.015 38.93L162.349 37.0094C162.413 36.9065 162.508 36.8379 162.603 36.8379H163.557L161.428 39.8217V39.8903Z" fill="white"/>
<path d="M167.493 42.7703C167.303 42.9418 167.112 43.0447 166.953 43.1476C166.763 43.2505 166.572 43.3191 166.381 43.3534C166.191 43.3877 165.968 43.422 165.746 43.422C165.396 43.422 165.11 43.3534 164.825 43.2162C164.539 43.079 164.348 42.9075 164.157 42.6674C163.967 42.4274 163.84 42.153 163.744 41.8443C163.649 41.5357 163.617 41.1584 163.617 40.7811C163.617 40.4039 163.681 39.7522 163.84 39.3064C163.998 38.8605 164.189 38.4147 164.475 38.0374C164.761 37.6601 165.079 37.3858 165.428 37.1457C165.778 36.9056 166.223 36.8027 166.667 36.8027C167.112 36.8027 167.398 36.8713 167.652 37.0428C167.906 37.18 168.161 37.4201 168.351 37.6944L168.034 38.106C168.034 38.106 167.97 38.1746 167.938 38.1746C167.907 38.1746 167.875 38.1746 167.811 38.1746C167.748 38.1746 167.716 38.1746 167.652 38.106C167.589 38.0374 167.525 38.0031 167.462 37.9345C167.366 37.8659 167.271 37.7973 167.144 37.763C167.017 37.6944 166.858 37.6944 166.667 37.6944C166.477 37.6944 166.159 37.763 165.905 37.9345C165.651 38.106 165.46 38.3118 165.269 38.5862C165.079 38.8605 164.952 39.2035 164.856 39.5465C164.761 39.8894 164.697 40.3353 164.697 40.7468C164.697 41.1584 164.697 41.2613 164.793 41.4671C164.888 41.6728 164.92 41.8786 165.047 42.0158C165.142 42.153 165.301 42.2902 165.46 42.3588C165.619 42.4274 165.81 42.496 166 42.496C166.191 42.496 166.477 42.4617 166.667 42.3588C166.858 42.2559 166.985 42.1873 167.112 42.0844C167.239 41.9815 167.335 41.8786 167.43 41.81C167.525 41.7414 167.589 41.6728 167.684 41.6728C167.779 41.6728 167.811 41.6728 167.875 41.7757L168.129 42.1187C167.938 42.3588 167.748 42.5645 167.557 42.736L167.493 42.7703Z" fill="white"/>
<path d="M173.53 42.1547C173.34 42.3948 173.149 42.5663 172.959 42.7378C172.768 42.9092 172.577 43.0121 172.387 43.1493C172.196 43.2865 171.974 43.3208 171.751 43.3894C171.529 43.4237 171.306 43.458 171.052 43.458C170.798 43.458 170.417 43.3894 170.131 43.2865C169.845 43.1836 169.622 42.9778 169.432 42.772C169.241 42.532 169.114 42.2919 168.987 41.9489C168.892 41.6403 168.828 41.263 168.828 40.8857C168.828 40.5085 168.86 40.2341 168.923 39.8911C168.987 39.5825 169.082 39.2395 169.209 38.9651C169.336 38.6908 169.495 38.3821 169.654 38.142C169.845 37.9019 170.035 37.6619 170.258 37.4904C170.48 37.3189 170.734 37.1474 171.02 37.0445C171.306 36.9416 171.592 36.873 171.91 36.873C172.228 36.873 172.482 36.9073 172.704 37.0102C172.927 37.1131 173.086 37.216 173.245 37.3532C173.372 37.4904 173.499 37.6619 173.562 37.8334C173.626 38.0048 173.658 38.1763 173.658 38.3135C173.658 38.5879 173.594 38.8622 173.499 39.068C173.403 39.2738 173.213 39.5139 172.927 39.6854C172.641 39.8911 172.26 40.0283 171.783 40.1655C171.306 40.3027 170.671 40.4056 169.877 40.5085V40.7829C169.877 41.3659 170.004 41.7774 170.226 42.0861C170.449 42.3948 170.798 42.532 171.275 42.532C171.751 42.532 171.624 42.532 171.783 42.4634C171.942 42.3948 172.069 42.3605 172.164 42.3262C172.291 42.2576 172.387 42.189 172.482 42.1204C172.577 42.0518 172.641 41.9832 172.736 41.9146C172.8 41.846 172.863 41.8117 172.927 41.7775C172.99 41.7432 173.054 41.7089 173.117 41.7089C173.181 41.7089 173.245 41.7089 173.308 41.8117L173.562 42.1547H173.53ZM171.847 37.6619C171.592 37.6619 171.37 37.7305 171.179 37.8334C170.989 37.9362 170.798 38.1077 170.639 38.2792C170.48 38.4507 170.353 38.6908 170.226 38.9651C170.099 39.2395 170.035 39.5139 169.972 39.7883C170.576 39.7197 171.052 39.6168 171.433 39.5139C171.783 39.411 172.069 39.3081 172.26 39.1709C172.45 39.068 172.577 38.9308 172.641 38.7937C172.704 38.6565 172.736 38.5193 172.736 38.3478C172.736 38.1763 172.736 38.2106 172.704 38.1077C172.673 38.0391 172.641 37.9362 172.546 37.8676C172.482 37.7991 172.387 37.7305 172.291 37.6962C172.196 37.6619 172.037 37.6276 171.91 37.6276L171.847 37.6619Z" fill="white"/>
<path d="M174.484 43.3189L175.533 33.9902H176.55L175.501 43.3189H174.484Z" fill="white"/>
<path d="M177.117 43.3189L178.166 33.9902H179.182L178.134 43.3189H177.117Z" fill="white"/>
<path d="M184.398 42.1547C184.207 42.3948 184.016 42.5663 183.826 42.7378C183.635 42.9092 183.444 43.0121 183.254 43.1493C183.063 43.2865 182.841 43.3208 182.618 43.3894C182.396 43.4237 182.174 43.458 181.919 43.458C181.665 43.458 181.284 43.3894 180.998 43.2865C180.712 43.1836 180.49 42.9778 180.299 42.772C180.108 42.532 179.981 42.2919 179.854 41.9489C179.759 41.6403 179.695 41.263 179.695 40.8857C179.695 40.5085 179.727 40.2341 179.791 39.8911C179.854 39.5825 179.949 39.2395 180.077 38.9651C180.204 38.6908 180.363 38.3821 180.521 38.142C180.712 37.9019 180.903 37.6619 181.125 37.4904C181.347 37.3189 181.602 37.1474 181.888 37.0445C182.174 36.9416 182.46 36.873 182.777 36.873C183.095 36.873 183.349 36.9073 183.572 37.0102C183.794 37.1131 183.953 37.216 184.112 37.3532C184.239 37.4904 184.366 37.6619 184.429 37.8334C184.493 38.0048 184.525 38.1763 184.525 38.3135C184.525 38.5879 184.461 38.8622 184.366 39.068C184.271 39.2738 184.08 39.5139 183.794 39.6854C183.508 39.8911 183.127 40.0283 182.65 40.1655C182.174 40.3027 181.538 40.4056 180.744 40.5085V40.7829C180.744 41.3659 180.871 41.7774 181.093 42.0861C181.316 42.3948 181.665 42.532 182.142 42.532C182.618 42.532 182.491 42.532 182.65 42.4634C182.809 42.3948 182.936 42.3605 183.031 42.3262C183.159 42.2576 183.254 42.189 183.349 42.1204C183.444 42.0518 183.508 41.9832 183.603 41.9146C183.667 41.846 183.73 41.8117 183.794 41.7775C183.858 41.7432 183.921 41.7089 183.985 41.7089C184.048 41.7089 184.112 41.7089 184.175 41.8117L184.429 42.1547H184.398ZM182.745 37.6619C182.491 37.6619 182.269 37.7305 182.078 37.8334C181.888 37.9362 181.697 38.1077 181.538 38.2792C181.379 38.4507 181.252 38.6908 181.125 38.9651C180.998 39.2395 180.934 39.5139 180.871 39.7883C181.475 39.7197 181.951 39.6168 182.332 39.5139C182.682 39.411 182.968 39.3081 183.159 39.1709C183.349 39.068 183.476 38.9308 183.54 38.7937C183.603 38.6565 183.635 38.5193 183.635 38.3478C183.635 38.1763 183.635 38.2106 183.603 38.1077C183.572 38.0391 183.54 37.9362 183.444 37.8676C183.381 37.7991 183.286 37.7305 183.19 37.6962C183.095 37.6619 182.936 37.6276 182.809 37.6276L182.745 37.6619Z" fill="white"/>
<path d="M186.845 38.5527C187.163 37.9697 187.512 37.5581 187.925 37.2837C188.338 37.0094 188.719 36.8379 189.164 36.8379C189.609 36.8379 189.641 36.9065 189.832 37.0094C190.022 37.1123 190.181 37.2837 190.308 37.4895C190.435 37.6953 190.499 37.9354 190.562 38.244C190.594 38.5527 190.594 38.8957 190.562 39.2729L190.117 43.3542H189.069L189.514 39.2729C189.577 38.7585 189.514 38.3812 189.418 38.1412C189.291 37.9011 189.101 37.7639 188.783 37.7639C188.465 37.7639 188.402 37.8325 188.211 37.9354C188.02 38.0383 187.83 38.2098 187.639 38.4155C187.449 38.6213 187.29 38.8614 187.131 39.1358C186.972 39.4101 186.845 39.7531 186.75 40.0961L186.4 43.3542H185.352L186.051 36.9408H186.559C186.781 36.9408 186.908 37.078 186.908 37.318L186.813 38.5527H186.845Z" fill="white"/>
<path d="M195.423 42.7703C195.233 42.9418 195.042 43.0447 194.883 43.1476C194.692 43.2505 194.502 43.3191 194.311 43.3534C194.12 43.3877 193.898 43.422 193.676 43.422C193.326 43.422 193.04 43.3534 192.754 43.2162C192.468 43.079 192.278 42.9075 192.087 42.6674C191.896 42.4274 191.769 42.153 191.674 41.8443C191.579 41.5357 191.547 41.1584 191.547 40.7811C191.547 40.4039 191.61 39.7522 191.769 39.3064C191.928 38.8262 192.119 38.4147 192.405 38.0374C192.691 37.6601 193.008 37.3858 193.358 37.1457C193.739 36.9399 194.152 36.8027 194.565 36.8027C194.978 36.8027 195.296 36.8713 195.55 37.0428C195.804 37.18 196.059 37.4201 196.249 37.6944L195.932 38.106C195.932 38.106 195.868 38.1746 195.836 38.1746C195.804 38.1746 195.773 38.1746 195.709 38.1746C195.646 38.1746 195.614 38.1746 195.55 38.106C195.487 38.0374 195.423 38.0031 195.328 37.9345C195.233 37.8659 195.137 37.7973 195.01 37.763C194.883 37.6944 194.724 37.6944 194.534 37.6944C194.343 37.6944 193.993 37.763 193.771 37.9345C193.549 38.106 193.326 38.3118 193.136 38.5862C192.945 38.8605 192.818 39.2035 192.722 39.5465C192.627 39.8894 192.564 40.3353 192.564 40.7468C192.564 41.1584 192.564 41.2613 192.659 41.4671C192.754 41.6728 192.786 41.8786 192.913 42.0158C193.008 42.153 193.167 42.2902 193.326 42.3588C193.485 42.4274 193.676 42.496 193.866 42.496C194.057 42.496 194.343 42.4617 194.534 42.3588C194.724 42.2559 194.851 42.1873 194.978 42.0844C195.105 41.9815 195.201 41.8786 195.296 41.81C195.391 41.7414 195.455 41.6728 195.55 41.6728C195.646 41.6728 195.677 41.6728 195.741 41.7757L195.995 42.1187C195.804 42.3588 195.614 42.5645 195.423 42.736V42.7703Z" fill="white"/>
<path d="M201.429 42.1547C201.238 42.3948 201.048 42.5663 200.857 42.7378C200.666 42.9092 200.476 43.0121 200.285 43.1493C200.094 43.2865 199.872 43.3208 199.65 43.3894C199.427 43.4237 199.205 43.458 198.951 43.458C198.696 43.458 198.315 43.3894 198.029 43.2865C197.743 43.1836 197.521 42.9778 197.33 42.772C197.14 42.532 197.013 42.2919 196.885 41.9489C196.79 41.6403 196.727 41.263 196.727 40.8857C196.727 40.5085 196.727 40.2341 196.822 39.8911C196.885 39.5825 196.981 39.2395 197.108 38.9651C197.235 38.6908 197.394 38.3821 197.553 38.142C197.712 37.9019 197.934 37.6619 198.156 37.4904C198.379 37.3189 198.633 37.1474 198.919 37.0445C199.205 36.9416 199.491 36.873 199.809 36.873C200.126 36.873 200.38 36.9073 200.603 37.0102C200.825 37.1131 200.984 37.216 201.143 37.3532C201.27 37.4904 201.397 37.6619 201.461 37.8334C201.524 38.0048 201.556 38.1763 201.556 38.3135C201.556 38.5879 201.492 38.8622 201.397 39.068C201.302 39.2738 201.111 39.5139 200.825 39.6854C200.539 39.8911 200.158 40.0283 199.65 40.1655C199.173 40.3027 198.538 40.4056 197.743 40.5085V40.7829C197.743 41.3659 197.87 41.7774 198.093 42.0861C198.315 42.3948 198.665 42.532 199.141 42.532C199.618 42.532 199.491 42.532 199.65 42.4634C199.809 42.3948 199.936 42.3605 200.031 42.3262C200.158 42.2576 200.253 42.189 200.349 42.1204C200.444 42.0518 200.508 41.9832 200.603 41.9146C200.666 41.846 200.73 41.8117 200.793 41.7775C200.857 41.7432 200.921 41.7089 200.984 41.7089C201.048 41.7089 201.111 41.7089 201.175 41.8117L201.429 42.1547ZM199.777 37.6619C199.523 37.6619 199.3 37.7305 199.11 37.8334C198.919 37.9362 198.728 38.1077 198.569 38.2792C198.411 38.4507 198.283 38.6908 198.156 38.9651C198.029 39.2395 197.966 39.5139 197.902 39.7883C198.506 39.7197 198.982 39.6168 199.364 39.5139C199.713 39.411 199.999 39.3081 200.19 39.1709C200.38 39.068 200.508 38.9308 200.571 38.7937C200.635 38.6565 200.666 38.5193 200.666 38.3478C200.666 38.1763 200.666 38.2106 200.603 38.1077C200.603 38.0391 200.539 37.9362 200.444 37.8676C200.38 37.7991 200.285 37.7305 200.19 37.6962C200.094 37.6619 199.936 37.6276 199.809 37.6276L199.777 37.6619Z" fill="white"/>
<path d="M60.1641 29.4961H225.223" stroke="white" strokeWidth="1.44045" strokeLinecap="round" strokeLinejoin="round"/>
<path d="M70.7459 19.4478C70.9048 19.4478 71.0637 19.5164 71.159 19.6535L72.3346 21.0254C71.7627 21.8142 71.0319 22.4316 70.1423 22.8431C69.2844 23.2547 68.2359 23.4605 67.0603 23.4605C65.8847 23.4605 64.9951 23.2547 64.1372 22.8774C63.2794 22.5002 62.5486 21.9171 61.9449 21.2312C61.3412 20.5453 60.8646 19.6878 60.5469 18.6932C60.2292 17.7329 60.0703 16.6355 60.0703 15.5037C60.0703 14.3719 60.1339 13.9946 60.2927 13.2744C60.4516 12.5542 60.674 11.9368 60.9599 11.3538C61.2459 10.7707 61.6272 10.222 62.0402 9.77615C62.4533 9.33029 62.9299 8.88444 63.47 8.57577C64.0101 8.23281 64.582 7.99273 65.2175 7.82125C65.8529 7.64976 66.5202 7.54688 67.2192 7.54688C67.9182 7.54688 68.2677 7.58117 68.7443 7.68406C69.2208 7.78695 69.6657 7.92414 70.0787 8.09562C70.4918 8.2671 70.873 8.50718 71.2225 8.74725C71.572 8.98733 71.8898 9.2617 72.1757 9.57037L71.159 11.0451C71.0954 11.148 71.0319 11.2166 70.9366 11.2852C70.8412 11.3538 70.7142 11.3881 70.5553 11.3881C70.3964 11.3881 70.2376 11.3195 70.0787 11.2166C69.9198 11.0794 69.7292 10.9422 69.475 10.805C69.2208 10.6679 68.9349 10.5307 68.5854 10.3935C68.2359 10.2563 67.7911 10.222 67.2509 10.222C66.7108 10.222 66.1071 10.3592 65.5988 10.565C65.0904 10.805 64.6774 11.148 64.2961 11.5939C63.9148 12.0397 63.6606 12.5885 63.47 13.2401C63.2794 13.8917 63.184 14.6463 63.184 15.4694C63.184 16.2925 63.2794 17.047 63.5018 17.6986C63.7242 18.3503 64.0101 18.899 64.3914 19.3449C64.7727 19.7907 65.2175 20.1337 65.6941 20.3738C66.1707 20.6138 66.7426 20.7167 67.3145 20.7167C67.8864 20.7167 67.9499 20.7167 68.2359 20.6481C68.5218 20.6481 68.776 20.5453 68.9984 20.4767C69.2208 20.4081 69.4433 20.2709 69.6657 20.1337C69.8881 19.9965 70.0787 19.825 70.3011 19.6192C70.3647 19.5507 70.46 19.5164 70.5235 19.4478C70.5871 19.3792 70.6824 19.3792 70.7777 19.3792L70.7459 19.4478Z" fill="white"/>
<path d="M78.0852 12.0059C78.8477 12.0059 79.5467 12.143 80.1822 12.4174C80.8176 12.6918 81.3578 13.0691 81.8026 13.5492C82.2474 14.0294 82.5969 14.6467 82.8511 15.3326C83.1053 16.0186 83.2324 16.8417 83.2324 17.6991C83.2324 18.5565 83.1053 19.3796 82.8511 20.0998C82.5969 20.8201 82.2474 21.4031 81.8026 21.9176C81.3578 22.3977 80.8176 22.8093 80.1822 23.0493C79.5467 23.3237 78.8477 23.4609 78.0852 23.4609C77.3226 23.4609 76.5919 23.3237 75.9564 23.0493C75.321 22.775 74.7808 22.3977 74.336 21.9176C73.8912 21.4374 73.5417 20.8201 73.2875 20.0998C73.0333 19.3796 72.9062 18.5908 72.9062 17.6991C72.9062 16.8074 73.0333 16.0186 73.2875 15.3326C73.5417 14.6467 73.8912 14.0294 74.336 13.5492C74.7808 13.0691 75.321 12.6918 75.9564 12.4174C76.5919 12.143 77.2909 12.0059 78.0852 12.0059ZM78.0852 21.1973C78.8795 21.1973 79.4514 20.923 79.8327 20.3056C80.214 19.7226 80.4046 18.8652 80.4046 17.6991C80.4046 16.533 80.214 15.6756 79.8327 15.0925C79.4514 14.5095 78.8795 14.2008 78.0852 14.2008C77.2909 14.2008 76.6872 14.4752 76.3059 15.0925C75.9247 15.6756 75.734 16.533 75.734 17.6991C75.734 18.8652 75.9247 19.7226 76.3059 20.3056C76.6872 20.8887 77.2909 21.1973 78.0852 21.1973Z" fill="white"/>
<path d="M87.5262 13.4815C87.7168 13.2757 87.9392 13.0699 88.1616 12.8984C88.3841 12.7269 88.6065 12.5555 88.8606 12.4526C89.1148 12.3497 89.369 12.2125 89.655 12.1439C89.9409 12.0753 90.2586 12.041 90.6081 12.041C91.18 12.041 91.6566 12.1439 92.1015 12.3497C92.5463 12.5555 92.8958 12.8641 93.1817 13.2071C93.4677 13.5844 93.6901 14.0302 93.849 14.5447C94.0078 15.0591 94.0714 15.6422 94.0714 16.2595V23.2903H91.3389V16.2595C91.3389 15.6422 91.2118 15.162 90.9576 14.819C90.7035 14.4761 90.2904 14.3046 89.7821 14.3046C89.2737 14.3046 89.0195 14.4075 88.7018 14.579C88.384 14.7504 88.0345 14.9905 87.7486 15.3335V23.2903H84.9844V12.2125H86.6683C87.0178 12.2125 87.2402 12.384 87.3673 12.7269L87.5262 13.5158V13.4815Z" fill="white"/>
<path d="M98.8309 13.4815C99.0215 13.2757 99.2439 13.0699 99.4663 12.8984C99.6887 12.7269 99.9111 12.5555 100.165 12.4526C100.42 12.3497 100.674 12.2125 100.96 12.1439C101.246 12.0753 101.563 12.041 101.913 12.041C102.485 12.041 102.961 12.1439 103.406 12.3497C103.851 12.5555 104.2 12.8641 104.486 13.2071C104.772 13.5844 104.995 14.0302 105.154 14.5447C105.313 15.0591 105.376 15.6422 105.376 16.2595V23.2903H102.644V16.2595C102.644 15.6422 102.517 15.162 102.262 14.819C102.008 14.4761 101.595 14.3046 101.087 14.3046C100.578 14.3046 100.324 14.4075 100.006 14.579C99.6887 14.7504 99.3392 14.9905 99.0533 15.3335V23.2903H96.2891V12.2125H97.973C98.3225 12.2125 98.5449 12.384 98.672 12.7269L98.8309 13.5158V13.4815Z" fill="white"/>
<path d="M109.763 18.181C109.858 19.2098 110.112 19.9644 110.589 20.4788C111.065 20.959 111.669 21.199 112.4 21.199C113.131 21.199 113.099 21.1647 113.385 21.0619C113.671 20.959 113.893 20.8561 114.116 20.7532C114.338 20.6503 114.497 20.5131 114.687 20.4445C114.846 20.3416 115.037 20.3073 115.196 20.3073C115.355 20.3073 115.577 20.3759 115.704 20.5817L116.498 21.6449C116.213 22.0222 115.895 22.2965 115.545 22.5709C115.196 22.811 114.815 22.9825 114.433 23.1539C114.052 23.3254 113.671 23.394 113.289 23.4283C112.908 23.4969 112.527 23.4969 112.177 23.4969C111.447 23.4969 110.779 23.3597 110.176 23.1197C109.54 22.8796 109 22.5023 108.555 21.9879C108.079 21.4734 107.729 20.8561 107.475 20.1359C107.221 19.4156 107.094 18.5239 107.094 17.5636C107.094 16.6033 107.221 16.0889 107.443 15.4372C107.666 14.7513 108.015 14.2026 108.428 13.6881C108.841 13.1737 109.381 12.7964 110.017 12.522C110.652 12.2477 111.32 12.0762 112.114 12.0762C112.908 12.0762 113.385 12.1791 113.925 12.4191C114.465 12.6592 114.942 12.9679 115.355 13.4137C115.768 13.8596 116.054 14.374 116.308 14.9914C116.562 15.6087 116.626 16.3289 116.626 17.1521C116.626 17.9752 116.626 17.5636 116.626 17.7008C116.626 17.838 116.562 17.9752 116.53 18.0438C116.498 18.1124 116.435 18.181 116.34 18.2152C116.276 18.2152 116.149 18.2495 116.022 18.2495H109.858L109.763 18.181ZM114.084 16.4318C114.084 16.1232 114.052 15.8145 113.957 15.5401C113.893 15.2657 113.766 15.0257 113.607 14.7856C113.448 14.5798 113.226 14.4083 112.972 14.2711C112.718 14.134 112.4 14.0997 112.05 14.0997C111.383 14.0997 110.875 14.3054 110.493 14.717C110.112 15.1286 109.89 15.6773 109.763 16.4318H114.052H114.084Z" fill="white"/>
<path d="M125.71 14.6489C125.647 14.7518 125.551 14.8547 125.456 14.9233C125.361 14.9918 125.266 15.0261 125.107 15.0261C124.948 15.0261 124.853 14.9918 124.725 14.889C124.598 14.8204 124.471 14.7175 124.312 14.6146C124.153 14.5117 123.963 14.4431 123.74 14.3402C123.518 14.2716 123.264 14.203 122.914 14.203C122.565 14.203 122.152 14.2716 121.834 14.4431C121.516 14.6146 121.294 14.8547 121.072 15.129C120.881 15.4377 120.722 15.7807 120.627 16.2265C120.531 16.6381 120.468 17.1525 120.468 17.667C120.468 18.7988 120.69 19.6562 121.103 20.2735C121.516 20.8908 122.088 21.1652 122.819 21.1652C123.55 21.1652 123.296 21.1652 123.455 21.0966C123.645 21.0623 123.804 20.9937 123.931 20.9251C124.058 20.8565 124.185 20.788 124.281 20.6851C124.376 20.5822 124.471 20.5136 124.567 20.445C124.662 20.3764 124.757 20.3078 124.853 20.2735C124.948 20.2392 125.043 20.2049 125.17 20.2049C125.393 20.2049 125.552 20.2735 125.679 20.4793L126.473 21.5425C126.187 21.9197 125.869 22.2284 125.52 22.4342C125.17 22.64 124.852 22.8457 124.503 23.0172C124.154 23.1887 123.804 23.2573 123.423 23.2916C123.073 23.3602 122.692 23.3602 122.342 23.3602C121.707 23.3602 121.103 23.223 120.563 22.9829C120.023 22.7429 119.515 22.3656 119.07 21.8854C118.657 21.4053 118.307 20.788 118.053 20.102C117.799 19.4161 117.672 18.593 117.672 17.667C117.672 16.741 117.767 16.0893 117.99 15.4034C118.212 14.7175 118.53 14.1001 118.943 13.5857C119.356 13.0712 119.896 12.6597 120.531 12.3853C121.167 12.1109 121.898 11.9395 122.724 11.9395C123.55 11.9395 124.185 12.0766 124.789 12.351C125.393 12.6254 125.901 13.0369 126.378 13.5514L125.647 14.6146L125.71 14.6489Z" fill="white"/>
<path d="M131.463 23.4606C130.987 23.4606 130.574 23.392 130.224 23.2548C129.875 23.1176 129.557 22.9118 129.303 22.6374C129.049 22.3631 128.858 22.0201 128.731 21.6428C128.604 21.2656 128.54 20.8197 128.54 20.3396V14.372H127.587C127.428 14.372 127.301 14.3034 127.206 14.2348C127.11 14.1319 127.047 13.9947 127.047 13.7889V12.6229L128.699 12.3142L129.271 9.43328C129.335 9.12461 129.557 8.95312 129.875 8.95312H131.304V12.3142H133.942V14.372H131.304V20.1681C131.304 20.4768 131.368 20.7168 131.495 20.8883C131.622 21.0598 131.813 21.1627 132.067 21.1627C132.321 21.1627 132.321 21.1627 132.416 21.1284C132.512 21.1284 132.575 21.0598 132.671 21.0255C132.766 20.9912 132.798 20.9569 132.861 20.9226C132.925 20.8883 132.988 20.8883 133.02 20.8883C133.052 20.8883 133.179 20.8883 133.211 20.9569C133.274 20.9912 133.306 21.0598 133.37 21.1627L134.196 22.5688C133.814 22.8775 133.401 23.1519 132.925 23.2891C132.448 23.4263 131.94 23.5291 131.432 23.5291L131.463 23.4606Z" fill="white"/>
<path d="M144.048 20.5461C144.334 20.5461 144.588 20.649 144.747 20.8205C144.906 20.992 145.001 21.232 145.001 21.5407V23.2898H134.961V22.3295C134.961 22.1581 134.993 21.9523 135.056 21.7122C135.12 21.4721 135.247 21.3006 135.438 21.1292L139.727 16.4991C140.076 16.0876 140.426 15.7446 140.68 15.3673C140.966 14.9901 141.188 14.6471 141.379 14.3041C141.57 13.9612 141.697 13.6182 141.792 13.241C141.887 12.8637 141.919 12.5207 141.919 12.1092C141.919 11.4232 141.76 10.8745 141.411 10.5315C141.093 10.1543 140.616 9.98279 140.013 9.98279C139.409 9.98279 139.504 10.0171 139.282 10.12C139.06 10.2229 138.869 10.3258 138.678 10.4629C138.519 10.6001 138.361 10.7716 138.234 10.9774C138.106 11.1832 138.011 11.3889 137.948 11.629C137.82 11.972 137.662 12.2121 137.471 12.3492C137.28 12.4521 136.994 12.4864 136.613 12.4178L135.152 12.1435C135.247 11.3889 135.469 10.703 135.755 10.1543C136.041 9.57123 136.422 9.09108 136.867 8.71382C137.312 8.33655 137.82 8.06218 138.361 7.8564C138.901 7.65062 139.536 7.58203 140.172 7.58203C140.807 7.58203 141.474 7.68492 142.046 7.925C142.618 8.13078 143.095 8.43944 143.476 8.851C143.857 9.26256 144.175 9.70842 144.397 10.2572C144.62 10.8059 144.715 11.4232 144.715 12.0749C144.715 12.7265 144.652 13.1724 144.493 13.6525C144.334 14.1327 144.143 14.6128 143.857 15.0587C143.571 15.5045 143.285 15.9161 142.936 16.3619C142.586 16.8078 142.237 17.1851 141.824 17.6309L138.742 21.0263C139.091 20.9234 139.409 20.8205 139.759 20.7862C140.076 20.7176 140.394 20.6833 140.712 20.6833H143.953L144.048 20.5461Z" fill="white"/>
<path d="M160.025 23.2916H157.706C157.452 23.2916 157.229 23.223 157.07 23.0858C156.912 22.9486 156.784 22.7771 156.721 22.5713L155.736 19.5875H149.985L149 22.5713C148.937 22.7428 148.81 22.9143 148.651 23.0515C148.492 23.1887 148.269 23.2573 148.015 23.2573H145.664L151.32 7.65234H154.37L160.025 23.2573V23.2916ZM155.005 17.3583L153.448 12.591C153.353 12.351 153.258 12.0423 153.162 11.6993C153.067 11.3564 152.972 11.0134 152.876 10.6018C152.781 11.0134 152.686 11.3564 152.591 11.6993C152.495 12.0423 152.4 12.351 152.305 12.591L150.748 17.3583H155.037H155.005Z" fill="white"/>
<path d="M164.541 23.4606C164.065 23.4606 163.652 23.392 163.302 23.2548C162.953 23.1176 162.635 22.9118 162.381 22.6374C162.127 22.3631 161.936 22.0201 161.809 21.6428C161.682 21.2656 161.618 20.8197 161.618 20.3396V14.372H160.665C160.506 14.372 160.379 14.3034 160.284 14.2348C160.189 14.1319 160.125 13.9947 160.125 13.7889V12.6229L161.777 12.3142L162.349 9.43328C162.413 9.12461 162.635 8.95312 162.953 8.95312H164.383V12.3142H168.418L168.99 9.43328C169.053 9.12461 169.276 8.95312 169.593 8.95312H171.023V12.3142H173.66V14.372H171.023V20.1681C171.023 20.4768 171.087 20.7168 171.245 20.8883C171.404 21.0598 171.563 21.1627 171.817 21.1627C172.072 21.1627 172.072 21.1627 172.167 21.1284C172.262 21.0941 172.326 21.0598 172.421 21.0255C172.516 20.9912 172.548 20.9569 172.612 20.9226C172.675 20.8883 172.739 20.8883 172.771 20.8883C172.802 20.8883 172.929 20.8883 172.961 20.9569C173.025 20.9912 173.056 21.0598 173.12 21.1627L173.946 22.5688C173.565 22.8775 173.152 23.1519 172.675 23.2891C172.199 23.4263 171.69 23.5291 171.182 23.5291C170.674 23.5291 170.292 23.4606 169.943 23.3234C169.593 23.1862 169.276 22.9804 169.021 22.706C168.767 22.4317 168.577 22.0887 168.449 21.7114C168.322 21.3342 168.259 20.8883 168.259 20.4082V14.4406H164.351V20.2367C164.351 20.5453 164.414 20.7854 164.541 20.9569C164.668 21.1284 164.859 21.2313 165.113 21.2313C165.367 21.2313 165.367 21.2313 165.463 21.197C165.558 21.197 165.622 21.1284 165.717 21.0941C165.812 21.0598 165.844 21.0255 165.908 20.9912C165.971 20.9569 166.035 20.9569 166.066 20.9569C166.098 20.9569 166.225 20.9569 166.257 21.0255C166.321 21.0598 166.352 21.1284 166.416 21.2313L167.242 22.6374C166.861 22.9461 166.448 23.2205 165.971 23.3577C165.495 23.4948 164.986 23.5977 164.478 23.5977L164.541 23.4606Z" fill="white"/>
<path d="M179.726 12.0059C180.488 12.0059 181.187 12.143 181.823 12.4174C182.458 12.6918 182.998 13.0691 183.443 13.5492C183.888 14.0294 184.238 14.6467 184.492 15.3326C184.746 16.0186 184.873 16.8417 184.873 17.6991C184.873 18.5565 184.746 19.3796 184.492 20.0998C184.238 20.8201 183.888 21.4031 183.443 21.9176C182.998 22.3977 182.458 22.8093 181.823 23.0493C181.187 23.3237 180.488 23.4609 179.726 23.4609C178.963 23.4609 178.232 23.3237 177.597 23.0493C176.962 22.775 176.421 22.3977 175.977 21.9176C175.532 21.4374 175.182 20.8201 174.928 20.0998C174.674 19.3796 174.547 18.5908 174.547 17.6991C174.547 16.8074 174.674 16.0186 174.928 15.3326C175.182 14.6467 175.532 14.0294 175.977 13.5492C176.421 13.0691 176.962 12.6918 177.597 12.4174C178.232 12.143 178.932 12.0059 179.726 12.0059ZM179.726 21.1973C180.52 21.1973 181.092 20.923 181.473 20.3056C181.855 19.7226 182.045 18.8652 182.045 17.6991C182.045 16.533 181.855 15.6756 181.473 15.0925C181.092 14.5095 180.52 14.2008 179.726 14.2008C178.932 14.2008 178.328 14.4752 177.947 15.0925C177.565 15.6756 177.375 16.533 177.375 17.6991C177.375 18.8652 177.565 19.7226 177.947 20.3056C178.328 20.8887 178.9 21.1973 179.726 21.1973Z" fill="white"/>
<path d="M189.161 14.0285C189.478 13.4112 189.86 12.8967 190.273 12.5194C190.686 12.1422 191.194 11.9707 191.766 11.9707C192.338 11.9707 192.624 12.0736 192.91 12.3137L192.719 14.5086C192.719 14.6458 192.624 14.7487 192.56 14.8173C192.497 14.8859 192.401 14.8859 192.274 14.8859C192.147 14.8859 192.02 14.8859 191.829 14.8516C191.639 14.8516 191.448 14.8173 191.258 14.8173C191.003 14.8173 190.781 14.8516 190.59 14.9202C190.4 14.9888 190.209 15.0917 190.05 15.2632C189.891 15.4004 189.764 15.5718 189.637 15.7776C189.51 15.9834 189.383 16.2235 189.288 16.4978V23.2886H186.523V12.2108H188.144C188.43 12.2108 188.62 12.2794 188.716 12.3823C188.811 12.4851 188.906 12.6909 188.938 12.931L189.097 14.0285H189.161Z" fill="white"/>
<path d="M196.659 13.4815C196.881 13.2757 197.072 13.0699 197.294 12.8984C197.517 12.7269 197.739 12.5555 197.993 12.4526C198.248 12.3497 198.502 12.2125 198.788 12.1439C199.074 12.0753 199.391 12.041 199.741 12.041C200.313 12.041 200.789 12.1439 201.234 12.3497C201.679 12.5555 202.029 12.8641 202.315 13.2071C202.601 13.5844 202.823 14.0302 202.982 14.5447C203.141 15.0591 203.204 15.6422 203.204 16.2595V23.2903H200.472V16.2595C200.472 15.6422 200.345 15.162 200.09 14.819C199.836 14.4761 199.423 14.3046 198.915 14.3046C198.407 14.3046 198.184 14.4075 197.835 14.579C197.485 14.7504 197.167 14.9905 196.881 15.3335V23.2903H194.117V12.2125H195.801C196.151 12.2125 196.373 12.384 196.5 12.7269L196.659 13.5158V13.4815Z" fill="white"/>
<path d="M207.622 18.181C207.717 19.2098 207.972 19.9644 208.448 20.4788C208.925 20.959 209.497 21.199 210.259 21.199C211.022 21.199 210.958 21.1647 211.244 21.0619C211.53 20.959 211.752 20.8561 211.975 20.7532C212.197 20.6503 212.356 20.5131 212.547 20.4445C212.706 20.3416 212.896 20.3073 213.055 20.3073C213.214 20.3073 213.436 20.3759 213.564 20.5817L214.358 21.6449C214.072 22.0222 213.754 22.2965 213.405 22.5709C213.055 22.811 212.674 22.9825 212.293 23.1539C211.911 23.3254 211.53 23.394 211.149 23.4283C210.768 23.4969 210.386 23.4969 210.037 23.4969C209.306 23.4969 208.639 23.3597 208.035 23.1197C207.4 22.8796 206.859 22.5023 206.415 21.9879C205.938 21.4734 205.589 20.8561 205.334 20.1359C205.08 19.4156 204.953 18.5239 204.953 17.5636C204.953 16.6033 205.08 16.0889 205.303 15.4372C205.525 14.7513 205.875 14.2026 206.288 13.6881C206.701 13.1737 207.241 12.7964 207.876 12.522C208.512 12.2477 209.179 12.0762 209.973 12.0762C210.768 12.0762 211.244 12.1791 211.784 12.4191C212.324 12.6592 212.801 12.9679 213.214 13.4137C213.627 13.8596 213.913 14.374 214.167 14.9914C214.421 15.6087 214.485 16.3289 214.485 17.1521C214.485 17.9752 214.485 17.5636 214.485 17.7008C214.485 17.838 214.421 17.9752 214.39 18.0438C214.358 18.1124 214.294 18.181 214.199 18.2152C214.135 18.2152 214.008 18.2495 213.881 18.2495H207.717L207.622 18.181ZM211.943 16.4318C211.943 16.1232 211.911 15.8145 211.816 15.5401C211.752 15.2657 211.625 15.0257 211.467 14.7856C211.308 14.5798 211.085 14.4083 210.831 14.2711C210.577 14.134 210.259 14.0997 209.91 14.0997C209.242 14.0997 208.734 14.3054 208.353 14.717C207.972 15.1286 207.749 15.6773 207.622 16.4318H211.911H211.943Z" fill="white"/>
<path d="M225.316 12.1788L219.787 26.2404C219.692 26.4462 219.597 26.5834 219.47 26.6863C219.342 26.7891 219.152 26.8234 218.898 26.8234H216.864L218.802 22.3306L214.672 12.1445H217.087C217.309 12.1445 217.468 12.2131 217.595 12.316C217.722 12.4189 217.817 12.5561 217.849 12.6933L219.819 18.0092C219.883 18.215 219.946 18.4208 220.01 18.6266C220.073 18.8324 220.105 19.0381 220.169 19.2439C220.296 18.8324 220.423 18.3865 220.582 17.9749L222.393 12.6933C222.456 12.5218 222.552 12.4189 222.679 12.316C222.806 12.2131 222.965 12.1788 223.123 12.1788H225.316Z" fill="white"/>
<path d="M26.6449 40.4707H48.3139C49.2353 40.4707 49.9978 41.2938 49.9978 42.2884C49.9978 43.283 49.2353 44.1061 48.3139 44.1061H26.6449C25.7235 44.1061 24.9609 43.283 24.9609 42.2884C24.9609 41.2938 25.7235 40.4707 26.6449 40.4707Z" fill="white"/>
<path d="M46.0229 36.6328H29.1834C28.5341 36.6328 28.0078 37.2009 28.0078 37.9018V37.9361C28.0078 38.6369 28.5341 39.2051 29.1834 39.2051H46.0229C46.6722 39.2051 47.1985 38.6369 47.1985 37.9361V37.9018C47.1985 37.2009 46.6722 36.6328 46.0229 36.6328Z" fill="white"/>
<path fill-rule="evenodd" clip-rule="evenodd" d="M8.24419 44.9638H19.9683C21.1121 44.9638 22.0018 43.9692 22.0018 42.7688V38.0016C22.0018 36.7669 21.0804 35.8066 19.9365 35.8066H11.8981C10.8813 35.8066 10.4683 36.7669 9.73751 37.933L6.52847 43.0089C5.51174 44.6551 7.10038 44.9981 8.24419 44.9981V44.9638Z" fill="white"/>
<path fill-rule="evenodd" clip-rule="evenodd" d="M8.24419 16.7734H19.9683C21.1121 16.7734 22.0018 17.768 22.0018 19.0027V23.7699C22.0018 25.0046 21.0804 25.9649 19.9365 25.9649H11.8981C10.8813 25.9649 10.4683 25.0046 9.73751 23.8385L6.52847 18.7626C5.51174 17.1164 7.10038 16.7734 8.24419 16.7734Z" fill="white"/>
<path fill-rule="evenodd" clip-rule="evenodd" d="M3.95762 19.8956L0.208442 27.9895C-0.299921 29.087 0.144897 30.9047 1.28871 30.9047H7.10311C8.53288 30.9047 8.53288 30.9047 9.00947 29.773L10.3122 26.892C10.757 25.8974 10.2168 25.1772 9.45429 24.0111L6.3088 19.0038C5.29207 17.3576 4.46598 18.8324 3.95762 19.9298V19.8956Z" fill="white"/>
<path fill-rule="evenodd" clip-rule="evenodd" d="M3.8623 41.8094L0.208442 34.1613C-0.299921 33.0638 0.144897 31.2461 1.28871 31.2461H7.10311C8.53288 31.2461 8.43757 31.3147 9.00947 32.3779L10.3122 34.7786C10.8205 35.7389 10.2168 36.4935 9.45429 37.6595L6.21348 42.7011C5.16498 44.3131 4.37066 42.8726 3.8623 41.7751V41.8094Z" fill="white"/>
<path fill-rule="evenodd" clip-rule="evenodd" d="M30.4284 10.6L38.6893 19.1398C39.1024 19.5514 39.1024 20.2373 38.6893 20.6832L35.9251 23.8728C35.5438 24.3186 34.9084 24.3186 34.4953 23.8728L26.298 15.23C25.9167 14.8185 25.8849 14.1326 26.298 13.6867L28.9987 10.6C29.3799 10.1542 30.0154 10.1542 30.4284 10.6Z" fill="white"/>
<path fill-rule="evenodd" clip-rule="evenodd" d="M30.4284 10.6L38.6893 19.1398C39.1024 19.5514 39.1024 20.2373 38.6893 20.6832L35.9251 23.8728C35.5438 24.3186 34.9084 24.3186 34.4953 23.8728L26.298 15.23C25.9167 14.8185 25.8849 14.1326 26.298 13.6867L28.9987 10.6C29.3799 10.1542 30.0154 10.1542 30.4284 10.6Z" fill="white"/>
<path fill-rule="evenodd" clip-rule="evenodd" d="M31.9207 8.54238L40.4993 17.5281C40.817 17.8367 40.817 18.3855 40.4993 18.7284C40.2133 19.0714 39.705 19.0714 39.3872 18.7284L30.8086 9.74276C30.4909 9.43409 30.4909 8.88535 30.8086 8.54238C31.0946 8.19941 31.6029 8.19941 31.9207 8.54238Z" fill="white"/>
<path fill-rule="evenodd" clip-rule="evenodd" d="M30.4284 10.6L38.6893 19.1398C39.1024 19.5514 39.1024 20.2373 38.6893 20.6832L35.9251 23.8728C35.5438 24.3186 34.9084 24.3186 34.4953 23.8728L26.298 15.23C25.9167 14.8185 25.8849 14.1326 26.298 13.6867L28.9987 10.6C29.3799 10.1542 30.0154 10.1542 30.4284 10.6Z" fill="white"/>
<path fill-rule="evenodd" clip-rule="evenodd" d="M31.9207 8.54238L40.4993 17.5281C40.817 17.8367 40.817 18.3855 40.4993 18.7284C40.2133 19.0714 39.705 19.0714 39.3872 18.7284L30.8086 9.74276C30.4909 9.43409 30.4909 8.88535 30.8086 8.54238C31.0946 8.19941 31.6029 8.19941 31.9207 8.54238Z" fill="white"/>
<path fill-rule="evenodd" clip-rule="evenodd" d="M30.4284 10.6L38.6893 19.1398C39.1024 19.5514 39.1024 20.2373 38.6893 20.6832L35.9251 23.8728C35.5438 24.3186 34.9084 24.3186 34.4953 23.8728L26.298 15.23C25.9167 14.8185 25.8849 14.1326 26.298 13.6867L28.9987 10.6C29.3799 10.1542 30.0154 10.1542 30.4284 10.6Z" fill="white"/>
<path fill-rule="evenodd" clip-rule="evenodd" d="M31.9207 8.54238L40.4993 17.5281C40.817 17.8367 40.817 18.3855 40.4993 18.7284C40.2133 19.0714 39.705 19.0714 39.3872 18.7284L30.8086 9.74276C30.4909 9.43409 30.4909 8.88535 30.8086 8.54238C31.0946 8.19941 31.6029 8.19941 31.9207 8.54238Z" fill="white"/>
<path fill-rule="evenodd" clip-rule="evenodd" d="M30.9664 6.68981C30.744 6.48403 30.4263 6.51832 30.2357 6.7584L29.2189 8.02737C29.0283 8.26745 29.0601 8.61041 29.2825 8.81619C29.5049 9.02197 29.8226 8.98767 30.0132 8.7476L31.03 7.47863C31.2206 7.23855 31.1888 6.89558 30.9664 6.68981Z" fill="white"/>
<path fill-rule="evenodd" clip-rule="evenodd" d="M30.4284 10.6L38.6893 19.1398C39.1024 19.5514 39.1024 20.2373 38.6893 20.6832L35.9251 23.8728C35.5438 24.3186 34.9084 24.3186 34.4953 23.8728L26.298 15.23C25.9167 14.8185 25.8849 14.1326 26.298 13.6867L28.9987 10.6C29.3799 10.1542 30.0154 10.1542 30.4284 10.6Z" fill="white"/>
<path fill-rule="evenodd" clip-rule="evenodd" d="M31.9207 8.54238L40.4993 17.5281C40.817 17.8367 40.817 18.3855 40.4993 18.7284C40.2133 19.0714 39.705 19.0714 39.3872 18.7284L30.8086 9.74276C30.4909 9.43409 30.4909 8.88535 30.8086 8.54238C31.0946 8.19941 31.6029 8.19941 31.9207 8.54238Z" fill="white"/>
<path fill-rule="evenodd" clip-rule="evenodd" d="M30.9664 6.68981C30.744 6.48403 30.4263 6.51832 30.2357 6.7584L29.2189 8.02737C29.0283 8.26745 29.0601 8.61041 29.2825 8.81619C29.5049 9.02197 29.8226 8.98767 30.0132 8.7476L31.03 7.47863C31.2206 7.23855 31.1888 6.89558 30.9664 6.68981Z" fill="white"/>
<path fill-rule="evenodd" clip-rule="evenodd" d="M30.4284 10.6L38.6893 19.1398C39.1024 19.5514 39.1024 20.2373 38.6893 20.6832L35.9251 23.8728C35.5438 24.3186 34.9084 24.3186 34.4953 23.8728L26.298 15.23C25.9167 14.8185 25.8849 14.1326 26.298 13.6867L28.9987 10.6C29.3799 10.1542 30.0154 10.1542 30.4284 10.6Z" fill="white"/>
<path fill-rule="evenodd" clip-rule="evenodd" d="M31.9207 8.54238L40.4993 17.5281C40.817 17.8367 40.817 18.3855 40.4993 18.7284C40.2133 19.0714 39.705 19.0714 39.3872 18.7284L30.8086 9.74276C30.4909 9.43409 30.4909 8.88535 30.8086 8.54238C31.0946 8.19941 31.6029 8.19941 31.9207 8.54238Z" fill="white"/>
<path fill-rule="evenodd" clip-rule="evenodd" d="M30.9664 6.68981C30.744 6.48403 30.4263 6.51832 30.2357 6.7584L29.2189 8.02737C29.0283 8.26745 29.0601 8.61041 29.2825 8.81619C29.5049 9.02197 29.8226 8.98767 30.0132 8.7476L31.03 7.47863C31.2206 7.23855 31.1888 6.89558 30.9664 6.68981Z" fill="white"/>
<path fill-rule="evenodd" clip-rule="evenodd" d="M28.9629 8.98982C28.7723 8.78404 28.4546 8.81833 28.2639 9.02411L24.5783 13.174C24.3877 13.4141 24.4194 13.757 24.6418 13.9628C24.8325 14.1686 25.182 14.1343 25.3726 13.8942L29.0582 9.74434C29.2489 9.53856 29.2171 9.19559 28.9947 8.98982H28.9629Z" fill="white"/>
<path fill-rule="evenodd" clip-rule="evenodd" d="M30.4284 10.6L38.6893 19.1398C39.1024 19.5514 39.1024 20.2373 38.6893 20.6832L35.9251 23.8728C35.5438 24.3186 34.9084 24.3186 34.4953 23.8728L26.298 15.23C25.9167 14.8185 25.8849 14.1326 26.298 13.6867L28.9987 10.6C29.3799 10.1542 30.0154 10.1542 30.4284 10.6Z" fill="white"/>
<path fill-rule="evenodd" clip-rule="evenodd" d="M31.9207 8.54238L40.4993 17.5281C40.817 17.8367 40.817 18.3855 40.4993 18.7284C40.2133 19.0714 39.705 19.0714 39.3872 18.7284L30.8086 9.74276C30.4909 9.43409 30.4909 8.88535 30.8086 8.54238C31.0946 8.19941 31.6029 8.19941 31.9207 8.54238Z" fill="white"/>
<path fill-rule="evenodd" clip-rule="evenodd" d="M30.9664 6.68981C30.744 6.48403 30.4263 6.51832 30.2357 6.7584L29.2189 8.02737C29.0283 8.26745 29.0601 8.61041 29.2825 8.81619C29.5049 9.02197 29.8226 8.98767 30.0132 8.7476L31.03 7.47863C31.2206 7.23855 31.1888 6.89558 30.9664 6.68981Z" fill="white"/>
<path fill-rule="evenodd" clip-rule="evenodd" d="M28.9629 8.98982C28.7723 8.78404 28.4546 8.81833 28.2639 9.02411L24.5783 13.174C24.3877 13.4141 24.4194 13.757 24.6418 13.9628C24.8325 14.1686 25.182 14.1343 25.3726 13.8942L29.0582 9.74434C29.2489 9.53856 29.2171 9.19559 28.9947 8.98982H28.9629Z" fill="white"/>
<path fill-rule="evenodd" clip-rule="evenodd" d="M4.59375 3.67271C4.59375 3.67271 11.3613 -1.23169 18.2878 2.06077C25.2142 5.35324 26.3263 8.02837 28.1055 7.06806L28.2962 6.96517C29.4718 6.14206 26.1356 1.95788 18.8597 0.448836C11.5837 -1.06021 6.15061 1.54632 4.59375 3.67271Z" fill="white"/>
<path fill-rule="evenodd" clip-rule="evenodd" d="M30.4284 10.6L38.6893 19.1398C39.1024 19.5514 39.1024 20.2373 38.6893 20.6832L35.9251 23.8728C35.5438 24.3186 34.9084 24.3186 34.4953 23.8728L26.298 15.23C25.9167 14.8185 25.8849 14.1326 26.298 13.6867L28.9987 10.6C29.3799 10.1542 30.0154 10.1542 30.4284 10.6Z" fill="white"/>
<path fill-rule="evenodd" clip-rule="evenodd" d="M31.9207 8.54238L40.4993 17.5281C40.817 17.8367 40.817 18.3855 40.4993 18.7284C40.2133 19.0714 39.705 19.0714 39.3872 18.7284L30.8086 9.74276C30.4909 9.43409 30.4909 8.88535 30.8086 8.54238C31.0946 8.19941 31.6029 8.19941 31.9207 8.54238Z" fill="white"/>
<path fill-rule="evenodd" clip-rule="evenodd" d="M30.9664 6.68981C30.744 6.48403 30.4263 6.51832 30.2357 6.7584L29.2189 8.02737C29.0283 8.26745 29.0601 8.61041 29.2825 8.81619C29.5049 9.02197 29.8226 8.98767 30.0132 8.7476L31.03 7.47863C31.2206 7.23855 31.1888 6.89558 30.9664 6.68981Z" fill="white"/>
<path fill-rule="evenodd" clip-rule="evenodd" d="M28.9629 8.98982C28.7723 8.78404 28.4546 8.81833 28.2639 9.02411L24.5783 13.174C24.3877 13.4141 24.4194 13.757 24.6418 13.9628C24.8325 14.1686 25.182 14.1343 25.3726 13.8942L29.0582 9.74434C29.2489 9.53856 29.2171 9.19559 28.9947 8.98982H28.9629Z" fill="white"/>
<path fill-rule="evenodd" clip-rule="evenodd" d="M4.59375 3.67271C4.59375 3.67271 11.3613 -1.23169 18.2878 2.06077C25.2142 5.35324 26.3263 8.02837 28.1055 7.06806L28.2962 6.96517C29.4718 6.14206 26.1356 1.95788 18.8597 0.448836C11.5837 -1.06021 6.15061 1.54632 4.59375 3.67271Z" fill="white"/>
<path fill-rule="evenodd" clip-rule="evenodd" d="M2.24219 6.20907C2.24219 6.20907 9.42281 1.37326 15.9362 4.59713C22.4496 7.821 23.5934 11.2164 25.0867 9.91309C27.4061 7.8896 17.08 2.9509 15.6503 2.64223C7.89772 1.03029 3.29069 5.04298 2.24219 6.20907Z" fill="white"/>
<path fill-rule="evenodd" clip-rule="evenodd" d="M30.4284 10.6L38.6893 19.1398C39.1024 19.5514 39.1024 20.2373 38.6893 20.6832L35.9251 23.8728C35.5438 24.3186 34.9084 24.3186 34.4953 23.8728L26.298 15.23C25.9167 14.8185 25.8849 14.1326 26.298 13.6867L28.9987 10.6C29.3799 10.1542 30.0154 10.1542 30.4284 10.6Z" fill="white"/>
<path fill-rule="evenodd" clip-rule="evenodd" d="M31.9207 8.54238L40.4993 17.5281C40.817 17.8367 40.817 18.3855 40.4993 18.7284C40.2133 19.0714 39.705 19.0714 39.3872 18.7284L30.8086 9.74276C30.4909 9.43409 30.4909 8.88535 30.8086 8.54238C31.0946 8.19941 31.6029 8.19941 31.9207 8.54238Z" fill="white"/>
<path fill-rule="evenodd" clip-rule="evenodd" d="M30.9664 6.68981C30.744 6.48403 30.4263 6.51832 30.2357 6.7584L29.2189 8.02737C29.0283 8.26745 29.0601 8.61041 29.2825 8.81619C29.5049 9.02197 29.8226 8.98767 30.0132 8.7476L31.03 7.47863C31.2206 7.23855 31.1888 6.89558 30.9664 6.68981Z" fill="white"/>
<path fill-rule="evenodd" clip-rule="evenodd" d="M28.9629 8.98982C28.7723 8.78404 28.4546 8.81833 28.2639 9.02411L24.5783 13.174C24.3877 13.4141 24.4194 13.757 24.6418 13.9628C24.8325 14.1686 25.182 14.1343 25.3726 13.8942L29.0582 9.74434C29.2489 9.53856 29.2171 9.19559 28.9947 8.98982H28.9629Z" fill="white"/>
<path fill-rule="evenodd" clip-rule="evenodd" d="M4.59375 3.67271C4.59375 3.67271 11.3613 -1.23169 18.2878 2.06077C25.2142 5.35324 26.3263 8.02837 28.1055 7.06806L28.2962 6.96517C29.4718 6.14206 26.1356 1.95788 18.8597 0.448836C11.5837 -1.06021 6.15061 1.54632 4.59375 3.67271Z" fill="white"/>
<path fill-rule="evenodd" clip-rule="evenodd" d="M2.24219 6.20907C2.24219 6.20907 9.42281 1.37326 15.9362 4.59713C22.4496 7.821 23.5934 11.2164 25.0867 9.91309C27.4061 7.8896 17.08 2.9509 15.6503 2.64223C7.89772 1.03029 3.29069 5.04298 2.24219 6.20907Z" fill="white"/>
<path fill-rule="evenodd" clip-rule="evenodd" d="M30.4284 10.6L38.6893 19.1398C39.1024 19.5514 39.1024 20.2373 38.6893 20.6832L35.9251 23.8728C35.5438 24.3186 34.9084 24.3186 34.4953 23.8728L26.298 15.23C25.9167 14.8185 25.8849 14.1326 26.298 13.6867L28.9987 10.6C29.3799 10.1542 30.0154 10.1542 30.4284 10.6Z" fill="white"/>
<path fill-rule="evenodd" clip-rule="evenodd" d="M31.9207 8.54238L40.4993 17.5281C40.817 17.8367 40.817 18.3855 40.4993 18.7284C40.2133 19.0714 39.705 19.0714 39.3872 18.7284L30.8086 9.74276C30.4909 9.43409 30.4909 8.88535 30.8086 8.54238C31.0946 8.19941 31.6029 8.19941 31.9207 8.54238Z" fill="white"/>
<path fill-rule="evenodd" clip-rule="evenodd" d="M30.9664 6.68981C30.744 6.48403 30.4263 6.51832 30.2357 6.7584L29.2189 8.02737C29.0283 8.26745 29.0601 8.61041 29.2825 8.81619C29.5049 9.02197 29.8226 8.98767 30.0132 8.7476L31.03 7.47863C31.2206 7.23855 31.1888 6.89558 30.9664 6.68981Z" fill="white"/>
<path fill-rule="evenodd" clip-rule="evenodd" d="M28.9629 8.98982C28.7723 8.78404 28.4546 8.81833 28.2639 9.02411L24.5783 13.174C24.3877 13.4141 24.4194 13.757 24.6418 13.9628C24.8325 14.1686 25.182 14.1343 25.3726 13.8942L29.0582 9.74434C29.2489 9.53856 29.2171 9.19559 28.9947 8.98982H28.9629Z" fill="white"/>
<path fill-rule="evenodd" clip-rule="evenodd" d="M4.59375 3.67271C4.59375 3.67271 11.3613 -1.23169 18.2878 2.06077C25.2142 5.35324 26.3263 8.02837 28.1055 7.06806L28.2962 6.96517C29.4718 6.14206 26.1356 1.95788 18.8597 0.448836C11.5837 -1.06021 6.15061 1.54632 4.59375 3.67271Z" fill="white"/>
<path fill-rule="evenodd" clip-rule="evenodd" d="M2.24219 6.20907C2.24219 6.20907 9.42281 1.37326 15.9362 4.59713C22.4496 7.821 23.5934 11.2164 25.0867 9.91309C27.4061 7.8896 17.08 2.9509 15.6503 2.64223C7.89772 1.03029 3.29069 5.04298 2.24219 6.20907Z" fill="white"/>
<path fill-rule="evenodd" clip-rule="evenodd" d="M30.4284 10.6L38.6893 19.1398C39.1024 19.5514 39.1024 20.2373 38.6893 20.6832L35.9251 23.8728C35.5438 24.3186 34.9084 24.3186 34.4953 23.8728L26.298 15.23C25.9167 14.8185 25.8849 14.1326 26.298 13.6867L28.9987 10.6C29.3799 10.1542 30.0154 10.1542 30.4284 10.6Z" fill="white"/>
<path fill-rule="evenodd" clip-rule="evenodd" d="M31.9207 8.54238L40.4993 17.5281C40.817 17.8367 40.817 18.3855 40.4993 18.7284C40.2133 19.0714 39.705 19.0714 39.3872 18.7284L30.8086 9.74276C30.4909 9.43409 30.4909 8.88535 30.8086 8.54238C31.0946 8.19941 31.6029 8.19941 31.9207 8.54238Z" fill="white"/>
<path fill-rule="evenodd" clip-rule="evenodd" d="M30.9664 6.68981C30.744 6.48403 30.4263 6.51832 30.2357 6.7584L29.2189 8.02737C29.0283 8.26745 29.0601 8.61041 29.2825 8.81619C29.5049 9.02197 29.8226 8.98767 30.0132 8.7476L31.03 7.47863C31.2206 7.23855 31.1888 6.89558 30.9664 6.68981Z" fill="white"/>
<path fill-rule="evenodd" clip-rule="evenodd" d="M28.9629 8.98982C28.7723 8.78404 28.4546 8.81833 28.2639 9.02411L24.5783 13.174C24.3877 13.4141 24.4194 13.757 24.6418 13.9628C24.8325 14.1686 25.182 14.1343 25.3726 13.8942L29.0582 9.74434C29.2489 9.53856 29.2171 9.19559 28.9947 8.98982H28.9629Z" fill="white"/>
<path fill-rule="evenodd" clip-rule="evenodd" d="M4.59375 3.67271C4.59375 3.67271 11.3613 -1.23169 18.2878 2.06077C25.2142 5.35324 26.3263 8.02837 28.1055 7.06806L28.2962 6.96517C29.4718 6.14206 26.1356 1.95788 18.8597 0.448836C11.5837 -1.06021 6.15061 1.54632 4.59375 3.67271Z" fill="white"/>
<path fill-rule="evenodd" clip-rule="evenodd" d="M2.24219 6.20907C2.24219 6.20907 9.42281 1.37326 15.9362 4.59713C22.4496 7.821 23.5934 11.2164 25.0867 9.91309C27.4061 7.8896 17.08 2.9509 15.6503 2.64223C7.89772 1.03029 3.29069 5.04298 2.24219 6.20907Z" fill="white"/>
<path fill-rule="evenodd" clip-rule="evenodd" d="M30.4284 10.6L38.6893 19.1398C39.1024 19.5514 39.1024 20.2373 38.6893 20.6832L35.9251 23.8728C35.5438 24.3186 34.9084 24.3186 34.4953 23.8728L26.298 15.23C25.9167 14.8185 25.8849 14.1326 26.298 13.6867L28.9987 10.6C29.3799 10.1542 30.0154 10.1542 30.4284 10.6Z" fill="white"/>
<path fill-rule="evenodd" clip-rule="evenodd" d="M31.9207 8.54238L40.4993 17.5281C40.817 17.8367 40.817 18.3855 40.4993 18.7284C40.2133 19.0714 39.705 19.0714 39.3872 18.7284L30.8086 9.74276C30.4909 9.43409 30.4909 8.88535 30.8086 8.54238C31.0946 8.19941 31.6029 8.19941 31.9207 8.54238Z" fill="white"/>
<path fill-rule="evenodd" clip-rule="evenodd" d="M30.9664 6.68981C30.744 6.48403 30.4263 6.51832 30.2357 6.7584L29.2189 8.02737C29.0283 8.26745 29.0601 8.61041 29.2825 8.81619C29.5049 9.02197 29.8226 8.98767 30.0132 8.7476L31.03 7.47863C31.2206 7.23855 31.1888 6.89558 30.9664 6.68981Z" fill="white"/>
<path fill-rule="evenodd" clip-rule="evenodd" d="M28.9629 8.98982C28.7723 8.78404 28.4546 8.81833 28.2639 9.02411L24.5783 13.174C24.3877 13.4141 24.4194 13.757 24.6418 13.9628C24.8325 14.1686 25.182 14.1343 25.3726 13.8942L29.0582 9.74434C29.2489 9.53856 29.2171 9.19559 28.9947 8.98982H28.9629Z" fill="white"/>
<path fill-rule="evenodd" clip-rule="evenodd" d="M4.59375 3.67271C4.59375 3.67271 11.3613 -1.23169 18.2878 2.06077C25.2142 5.35324 26.3263 8.02837 28.1055 7.06806L28.2962 6.96517C29.4718 6.14206 26.1356 1.95788 18.8597 0.448836C11.5837 -1.06021 6.15061 1.54632 4.59375 3.67271Z" fill="white"/>
<path fill-rule="evenodd" clip-rule="evenodd" d="M2.24219 6.20907C2.24219 6.20907 9.42281 1.37326 15.9362 4.59713C22.4496 7.821 23.5934 11.2164 25.0867 9.91309C27.4061 7.8896 17.08 2.9509 15.6503 2.64223C7.89772 1.03029 3.29069 5.04298 2.24219 6.20907Z" fill="white"/>
<path fill-rule="evenodd" clip-rule="evenodd" d="M16.6966 32.0686L30.0411 18.4186C30.4224 18.0071 31.026 17.9042 31.2485 18.4186C31.5026 18.9331 31.5026 19.3446 31.1214 19.7562L18.031 33.612C17.6497 34.0235 17.0461 33.9892 16.6648 33.612C16.2835 33.2004 16.3153 32.5145 16.6648 32.1372L16.6966 32.0686Z" fill="white"/>
<path fill-rule="evenodd" clip-rule="evenodd" d="M30.4284 10.6L38.6893 19.1398C39.1024 19.5514 39.1024 20.2373 38.6893 20.6832L35.9251 23.8728C35.5438 24.3186 34.9084 24.3186 34.4953 23.8728L26.298 15.23C25.9167 14.8185 25.8849 14.1326 26.298 13.6867L28.9987 10.6C29.3799 10.1542 30.0154 10.1542 30.4284 10.6Z" fill="white"/>
<path fill-rule="evenodd" clip-rule="evenodd" d="M31.9207 8.54238L40.4993 17.5281C40.817 17.8367 40.817 18.3855 40.4993 18.7284C40.2133 19.0714 39.705 19.0714 39.3872 18.7284L30.8086 9.74276C30.4909 9.43409 30.4909 8.88535 30.8086 8.54238C31.0946 8.19941 31.6029 8.19941 31.9207 8.54238Z" fill="white"/>
<path fill-rule="evenodd" clip-rule="evenodd" d="M42.1461 18.4515C41.9237 18.2457 41.606 18.28 41.4153 18.5201L40.3986 19.7891C40.208 20.0292 40.2398 20.3721 40.4622 20.5779C40.6846 20.7837 41.0023 20.7494 41.1929 20.5093L42.2097 19.2403C42.4003 19.0003 42.3685 18.6573 42.1461 18.4515Z" fill="white"/>
<path fill-rule="evenodd" clip-rule="evenodd" d="M30.9664 6.68981C30.744 6.48403 30.4263 6.51832 30.2357 6.7584L29.2189 8.02737C29.0283 8.26745 29.0601 8.61041 29.2825 8.81619C29.5049 9.02197 29.8226 8.98767 30.0132 8.7476L31.03 7.47863C31.2206 7.23855 31.1888 6.89558 30.9664 6.68981Z" fill="white"/>
<path fill-rule="evenodd" clip-rule="evenodd" d="M40.1504 20.7515C39.9598 20.5458 39.6421 20.5801 39.4514 20.7858L35.7658 24.9357C35.5752 25.1758 35.6069 25.5188 35.8293 25.7245C36.02 25.9303 36.3695 25.896 36.5601 25.6559L40.2457 21.4718C40.4364 21.2317 40.4046 20.923 40.1822 20.7172L40.1504 20.7515Z" fill="white"/>
<path fill-rule="evenodd" clip-rule="evenodd" d="M28.9629 8.98982C28.7723 8.78404 28.4546 8.81833 28.2639 9.02411L24.5783 13.174C24.3877 13.4141 24.4194 13.757 24.6418 13.9628C24.8325 14.1686 25.182 14.1343 25.3726 13.8942L29.0582 9.74434C29.2489 9.53856 29.2171 9.19559 28.9947 8.98982H28.9629Z" fill="white"/>
<path fill-rule="evenodd" clip-rule="evenodd" d="M4.59375 3.67271C4.59375 3.67271 11.3613 -1.23169 18.2878 2.06077C25.2142 5.35324 26.3263 8.02837 28.1055 7.06806L28.2962 6.96517C29.4718 6.14206 26.1356 1.95788 18.8597 0.448836C11.5837 -1.06021 6.15061 1.54632 4.59375 3.67271Z" fill="white"/>
<path fill-rule="evenodd" clip-rule="evenodd" d="M2.24219 6.20907C2.24219 6.20907 9.42281 1.37326 15.9362 4.59713C22.4496 7.821 23.5934 11.2164 25.0867 9.91309C27.4061 7.8896 17.08 2.9509 15.6503 2.64223C7.89772 1.03029 3.29069 5.04298 2.24219 6.20907Z" fill="white"/>
<path fill-rule="evenodd" clip-rule="evenodd" d="M8.27597 44.9638H19.9683C21.1121 44.9638 22.0018 43.9692 22.0018 42.7688V38.0016C22.0018 36.7669 21.0804 35.8066 19.9365 35.8066H11.8981C10.8813 35.8066 10.4683 36.7669 9.73751 37.933L6.52847 43.0089C5.51174 44.6551 7.10038 44.9981 8.24419 44.9981L8.27597 44.9638Z" fill="white"/>
<path fill-rule="evenodd" clip-rule="evenodd" d="M8.27597 16.7734H19.9683C21.1121 16.7734 22.0018 17.768 22.0018 19.0027V23.7699C22.0018 25.0046 21.0804 25.9649 19.9365 25.9649H11.8981C10.8813 25.9649 10.4683 25.0046 9.73751 23.8385L6.52847 18.7626C5.51174 17.1164 7.10038 16.7734 8.24419 16.7734H8.27597Z" fill="white"/>
<path fill-rule="evenodd" clip-rule="evenodd" d="M3.95762 19.8916L0.208442 27.9856C-0.299921 29.0831 0.144897 30.9008 1.28871 30.9008H7.10311C8.53288 30.9008 8.53288 30.9008 9.00947 29.769L10.3122 26.8881C10.757 25.8935 10.2168 25.1733 9.45429 24.0072L6.3088 18.9999C5.29207 17.3537 4.46598 18.8285 3.95762 19.9259V19.8916Z" fill="white"/>
<path fill-rule="evenodd" clip-rule="evenodd" d="M3.8623 41.8094L0.208442 34.1613C-0.299921 33.0638 0.144897 31.2461 1.28871 31.2461H7.10311C8.53288 31.2461 8.43757 31.3147 9.00947 32.3779L10.3122 34.7786C10.8205 35.7389 10.2168 36.4935 9.45429 37.6595L6.21348 42.7011C5.16498 44.3131 4.37066 42.8726 3.8623 41.7751V41.8094Z" fill="white"/>
</svg>
