<svg width="44" height="44" viewBox="0 0 44 44" fill="none" xmlns="http://www.w3.org/2000/svg">
<rect x="0.25" y="0.25" width="43.5" height="43.5" rx="9.75" fill="white" fill-opacity="0.3"/>
<rect x="0.25" y="0.25" width="43.5" height="43.5" rx="9.75" stroke="white" strokeWidth="0.5"/>
<path d="M33.3489 23.0578H33.1329L29.9345 15.749C30.3095 15.8118 30.6846 15.9283 31.0566 16.1195C31.3747 16.2839 31.7647 16.1614 31.9327 15.8446C32.0978 15.5279 31.9747 15.1365 31.6567 14.9721C29.5834 13.9024 27.5312 14.5538 25.722 15.1305C25.1879 15.3008 24.6838 15.4622 24.1978 15.5727C23.0516 15.8386 22.7066 15.5608 22.6706 15.4323C22.6766 15.4562 22.6766 15.4711 22.6766 15.4711H22.6466V13.6454C22.6466 13.2898 22.3555 13 21.9985 13C21.6415 13 21.3504 13.2898 21.3504 13.6454V15.4771H21.3204C21.3204 15.4771 21.3204 15.4592 21.3264 15.4353C21.2904 15.5637 20.9454 15.8416 19.7992 15.5757C19.3132 15.4622 18.8091 15.3038 18.275 15.1335C16.4658 14.5568 14.4136 13.9054 12.3403 14.9751C12.0223 15.1394 11.8992 15.5309 12.0643 15.8476C12.2293 16.1643 12.6223 16.2869 12.9404 16.1225C13.3124 15.9313 13.6845 15.8147 14.0625 15.752L10.8641 23.0608H10.6481C10.291 23.0608 10 23.3506 10 23.7062C10 25.254 11.2662 26.5149 12.8204 26.5149H16.7718C18.326 26.5149 19.5922 25.254 19.5922 23.7062C19.5922 23.3506 19.3012 23.0608 18.9441 23.0608H18.7281L15.5297 15.755C16.2978 15.8655 17.0779 16.1106 17.879 16.3675C18.413 16.5378 18.9681 16.7141 19.5052 16.8367C19.9162 16.9323 20.2913 16.9801 20.6303 16.9801C20.8944 16.9801 21.1344 16.9502 21.3504 16.8934V28.8665H18.6411C17.0899 28.8665 15.8747 29.8018 15.8747 31C16.2428 30.9605 16.9939 31 18.146 31L25.9537 30.9605C27.1059 30.9605 27.2282 31 28.1253 31C28.1253 29.8048 26.9101 28.8665 25.3589 28.8665H22.6496V16.8874C22.8686 16.9442 23.1086 16.9741 23.3697 16.9741C23.7087 16.9741 24.0838 16.9263 24.4948 16.8307C25.0319 16.7082 25.5869 16.5319 26.121 16.3616C26.9221 16.1076 27.7052 15.8596 28.4703 15.749L25.2719 23.0548H25.0559C24.6988 23.0548 24.4078 23.3446 24.4078 23.7002C24.4078 25.248 25.674 26.509 27.2282 26.509H31.1796C32.7338 26.509 34 25.248 34 23.7002C34 23.3446 33.709 23.0548 33.3519 23.0548L33.3489 23.0578ZM16.7658 25.2211H12.8144C12.2053 25.2211 11.6802 24.8655 11.4372 24.3516H18.146C17.903 24.8655 17.3749 25.2211 16.7688 25.2211H16.7658ZM17.3059 23.0578H12.2713L14.7886 17.3058L17.3059 23.0578ZM29.1994 17.3058L31.7167 23.0578H26.6821L29.1994 17.3058ZM31.1736 25.2211H27.2222C26.6131 25.2211 26.088 24.8655 25.845 24.3516H32.5538C32.3108 24.8655 31.7827 25.2211 31.1766 25.2211H31.1736Z" fill="#162766"/>
</svg>
