<svg width="44" height="44" viewBox="0 0 44 44" fill="none" xmlns="http://www.w3.org/2000/svg">
<rect x="0.25" y="0.25" width="43.5" height="43.5" rx="9.75" fill="white" fill-opacity="0.3"/>
<rect x="0.25" y="0.25" width="43.5" height="43.5" rx="9.75" stroke="white" strokeWidth="0.5"/>
<path fill-rule="evenodd" clip-rule="evenodd" d="M25.9585 20.2755C26.0912 20.4157 26.3123 20.4214 26.4497 20.2887L28.329 18.4976C28.5257 18.3112 28.6527 18.1164 28.7506 17.8632L29.4338 16.0458C29.5043 15.8567 29.5853 15.6948 29.6925 15.5216L29.8299 15.3051C29.2606 14.5682 28.4174 14.0195 27.5131 13.7983L26.8863 14.7301C26.6379 15.1028 26.333 15.3616 25.9246 15.5508L24.3681 16.2726C24.1197 16.3884 23.9305 16.5343 23.7574 16.7479C22.5773 18.2115 21.5995 19.8754 20.8571 21.6911C20.8251 21.7692 20.8251 21.837 20.8571 21.9151C20.8919 21.9932 20.9248 22.0337 21.0537 22.0883C21.178 22.14 21.3078 22.1043 21.3916 22.0017L23.5814 19.3089C23.8138 19.0228 24.0867 18.828 24.4321 18.7009L27.3437 17.6289C27.4867 17.5772 27.6457 17.6318 27.7267 17.7616C27.8048 17.8887 27.786 18.0562 27.6749 18.1617L25.9679 19.7852C25.9029 19.8501 25.8625 19.9367 25.8625 20.028C25.8615 20.1212 25.8935 20.2077 25.9585 20.2755ZM28.1238 12.8911L28.1756 12.813C29.0479 13.1019 29.8469 13.6234 30.4633 14.3066L30.42 14.3744L30.1904 14.7368C29.5909 14.0375 28.7722 13.5048 27.8895 13.2375L28.1238 12.8911ZM25.4936 20.7152C25.3129 20.526 25.2151 20.2747 25.2235 20.0102C25.2292 19.7458 25.3374 19.5001 25.5284 19.3185L26.1147 18.7622L24.6542 19.2997C24.4161 19.3891 24.2382 19.5161 24.0792 19.7128L21.8894 22.4056C21.7087 22.6268 21.4415 22.7482 21.1686 22.7482C21.05 22.7482 20.9305 22.7265 20.8147 22.6776C20.6312 22.6051 20.4016 22.4781 20.2689 22.1618C20.172 21.9265 20.1692 21.6809 20.2661 21.4465C21.033 19.5745 22.04 17.857 23.2606 16.3444C23.493 16.0554 23.7603 15.8474 24.0981 15.6912L25.6593 14.9703C25.9595 14.8328 26.1722 14.6493 26.3557 14.3735L27.5922 12.5345L27.7757 12.2587C27.8538 12.1448 27.994 12.0912 28.1296 12.1288C29.2852 12.4554 30.341 13.1444 31.1079 14.0705C31.1945 14.1787 31.2048 14.3293 31.1295 14.446L30.6082 15.2724L30.2327 15.8634C30.149 15.998 30.0869 16.1204 30.0332 16.2681L29.3472 18.0884C29.2201 18.431 29.0366 18.7067 28.7722 18.9608L26.8901 20.7491C26.4958 21.1265 25.8691 21.1124 25.4936 20.7152ZM24.7784 22.7114C24.768 22.6277 24.7436 22.5787 24.6325 22.495C24.5271 22.414 24.3926 22.4112 24.2843 22.4893L21.4734 24.5232C21.1732 24.7416 20.8627 24.8583 20.4929 24.8902L17.4035 25.1707C17.252 25.1867 17.1118 25.0926 17.0685 24.9467C17.0252 24.8008 17.0873 24.6446 17.2228 24.5712L19.2884 23.4446C19.4587 23.3524 19.5208 23.1425 19.4286 22.975C19.3364 22.8046 19.1237 22.7425 18.9562 22.8347L16.677 24.0771C16.4389 24.2069 16.2639 24.3604 16.1077 24.5796L14.9765 26.1599C14.8608 26.3246 14.7384 26.4601 14.5907 26.6003L14.4044 26.7707C14.7638 27.6319 15.4329 28.3801 16.2488 28.8291L17.0967 28.0893C17.4345 27.7947 17.7959 27.6225 18.2363 27.5462L19.9292 27.2545C20.1993 27.2055 20.4205 27.1142 20.6425 26.9524C22.1604 25.8446 23.5344 24.4921 24.723 22.9279C24.7729 22.863 24.7887 22.7952 24.7784 22.7114ZM15.4235 29.5472L15.3557 29.6093C14.5859 29.1039 13.9489 28.3942 13.5301 27.5754L13.5894 27.5189L13.9056 27.23C14.3055 28.062 14.9558 28.7886 15.7397 29.2714L15.4592 29.5171L15.4235 29.5472ZM25.4127 22.6249C25.4447 22.8762 25.3826 23.1134 25.2292 23.3167C24.0058 24.9261 22.5876 26.3256 21.0162 27.471C20.716 27.6894 20.4055 27.8221 20.0385 27.8842L18.3427 28.1788C18.0189 28.2352 17.7649 28.3567 17.5164 28.5731L15.8451 30.0319L15.5967 30.2484C15.5374 30.3002 15.4622 30.3265 15.3859 30.3265C15.3295 30.3265 15.2749 30.3134 15.2241 30.2832C14.1927 29.6677 13.3476 28.7275 12.8479 27.6367C12.7915 27.5097 12.8206 27.361 12.9232 27.2669L13.1585 27.0504L14.155 26.129C14.2736 26.0207 14.363 25.9182 14.4571 25.7883L15.5864 24.208C15.8 23.9106 16.0512 23.6923 16.3721 23.5163L18.6513 22.2739C19.1294 22.0123 19.7288 22.1902 19.9904 22.6683C20.2492 23.1464 20.0742 23.7487 19.5961 24.0076L18.8857 24.3935L20.4356 24.2532C20.6868 24.2316 20.892 24.1535 21.0971 24.0048L23.908 21.9709C24.243 21.7281 24.6882 21.7328 25.0175 21.9841C25.1784 22.1036 25.3675 22.288 25.4127 22.6249ZM17.2924 17.7449C17.3545 17.807 17.4383 17.839 17.5192 17.839C17.6001 17.839 17.6839 17.807 17.746 17.7449C17.8702 17.6207 17.8702 17.4183 17.746 17.2941L15.3802 14.928C15.256 14.8037 15.0537 14.8037 14.9295 14.928C14.8052 15.0522 14.8052 15.2546 14.9295 15.3816L17.2924 17.7449ZM15.9825 22.0009C15.9825 21.823 15.8395 21.68 15.6635 21.68H12.3209C12.143 21.68 12 21.823 12 22.0009C12 22.1769 12.143 22.32 12.3209 22.32H15.6644C15.8395 22.32 15.9825 22.1769 15.9825 22.0009ZM21.9996 28.016C22.1775 28.016 22.3215 28.1591 22.3215 28.3369V31.6809C22.3215 31.8569 22.1784 32 21.9996 32C21.8237 32 21.6806 31.8569 21.6806 31.6809V28.3379C21.6806 28.1591 21.8237 28.016 21.9996 28.016ZM26.7067 26.2551C26.5825 26.1308 26.3802 26.1308 26.256 26.2551C26.1289 26.3793 26.1289 26.5816 26.256 26.7059L28.6189 29.072C28.681 29.1341 28.7648 29.1661 28.8457 29.1661C28.9267 29.1661 29.0104 29.1341 29.0725 29.072C29.1967 28.9478 29.1967 28.7454 29.0725 28.6183L26.7067 26.2551ZM31.681 21.6801C31.857 21.6801 32 21.8231 32 22.001C32 22.177 31.857 22.3201 31.681 22.3201H28.3374C28.1596 22.3201 28.0165 22.177 28.0165 22.001C28.0165 21.8231 28.1596 21.6801 28.3374 21.6801H31.681ZM21.9994 15.984C21.8234 15.984 21.6804 15.8409 21.6804 15.6621V12.3191C21.6804 12.1431 21.8234 12 21.9994 12C22.1773 12 22.3212 12.1431 22.3212 12.3191V15.6631C22.3203 15.841 22.1772 15.984 21.9994 15.984ZM19.2882 16.2616C19.34 16.3859 19.4586 16.4583 19.5856 16.4583C19.6261 16.4583 19.6665 16.4527 19.707 16.4339C19.8689 16.3689 19.947 16.1797 19.8801 16.0178L19.4266 14.9186C19.3588 14.7538 19.1725 14.6786 19.0078 14.7426C18.8459 14.8103 18.7678 14.9995 18.8346 15.1614L19.2882 16.2616ZM14.9292 19.4032L16.0256 19.8597C16.066 19.8785 16.1065 19.887 16.147 19.887C16.274 19.887 16.3926 19.8117 16.4443 19.6903C16.5121 19.5256 16.434 19.3392 16.2712 19.2715L15.1749 18.8141C15.0102 18.7435 14.8239 18.8225 14.7561 18.9844C14.6865 19.1491 14.7646 19.3355 14.9292 19.4032ZM24.7132 27.7384L25.164 28.8377C25.2317 28.9995 25.1536 29.1887 24.9908 29.2565C24.9504 29.2725 24.9099 29.2809 24.8694 29.2809C24.7424 29.2809 24.6238 29.2057 24.5721 29.0814L24.1213 27.9821C24.0535 27.8202 24.1298 27.6339 24.2944 27.5661C24.4563 27.4974 24.6455 27.5737 24.7132 27.7384ZM29.2445 25.0155C29.1927 25.1369 29.0741 25.2122 28.9471 25.2122C28.9066 25.2122 28.8661 25.2037 28.8257 25.1849L27.7294 24.7284C27.5647 24.6607 27.4894 24.4743 27.5562 24.3096C27.624 24.1477 27.8103 24.0696 27.975 24.1393L29.0713 24.5957C29.2341 24.6644 29.3122 24.8508 29.2445 25.0155Z" fill="#162766" stroke="#162766" strokeWidth="0.4"/>
</svg>
