<svg width="236" height="45" viewBox="0 0 236 45" fill="none" xmlns="http://www.w3.org/2000/svg">
<path d="M85.5505 42.4276C85.8233 42.4276 86.0619 42.4276 86.3005 42.359C86.5391 42.2904 86.7096 42.2561 86.88 42.1875C87.0505 42.1189 87.1869 42.0503 87.2891 41.9474C87.3914 41.8788 87.4937 41.7759 87.5959 41.7073C87.6641 41.6387 87.7664 41.5702 87.8005 41.5359C87.8686 41.5016 87.9027 41.4673 87.9709 41.4673C88.0391 41.4673 88.0391 41.4673 88.0732 41.4673C88.0732 41.4673 88.1073 41.4673 88.1414 41.5359L88.5505 42.0503C88.1414 42.4619 87.6982 42.8048 87.1869 43.0449C86.6755 43.285 86.0619 43.3879 85.3801 43.3879C84.6983 43.3879 84.3574 43.285 83.9483 43.1135C83.5392 42.942 83.1642 42.6333 82.8574 42.2904C82.5506 41.9474 82.3461 41.5359 82.1756 41.0557C82.0052 40.5756 81.937 40.0611 81.937 39.4781C81.937 38.895 82.0734 37.969 82.312 37.3174C82.5506 36.6658 82.8915 36.117 83.3006 35.6369C83.7097 35.1567 84.221 34.8137 84.8006 34.5394C85.3801 34.265 85.9937 34.1621 86.6414 34.1621C87.2891 34.1621 87.255 34.1621 87.5278 34.2307C87.8005 34.2993 88.0391 34.3679 88.2436 34.4708C88.4482 34.5737 88.6527 34.7109 88.8232 34.848C88.9936 34.9852 89.1641 35.1567 89.3004 35.3282L88.8913 35.8083C88.8573 35.8426 88.8232 35.8769 88.7891 35.9112C88.755 35.9455 88.6868 35.9455 88.6186 35.9455C88.5505 35.9455 88.4482 35.9112 88.38 35.8083C88.3118 35.7397 88.1755 35.6369 88.0391 35.534C87.9027 35.4311 87.6982 35.3282 87.4937 35.2596C87.255 35.191 86.9823 35.1224 86.6073 35.1224C86.2323 35.1224 85.6528 35.2253 85.2437 35.4311C84.8347 35.6369 84.4597 35.9112 84.1529 36.2542C83.846 36.5972 83.6074 37.043 83.437 37.5918C83.2665 38.1062 83.1642 38.6892 83.1642 39.3409C83.1642 39.9925 83.2324 40.2326 83.3347 40.6099C83.4711 40.9871 83.6415 41.2958 83.846 41.5702C84.0506 41.8445 84.3233 42.016 84.6301 42.1532C84.9369 42.2904 85.2437 42.359 85.6187 42.359L85.5505 42.4276Z" fill="#142A66"/>
<path d="M91.6869 43.4217C91.346 43.4217 91.0051 43.3531 90.7324 43.2502C90.4597 43.1474 90.187 42.9416 89.9824 42.7358C89.7779 42.4957 89.6074 42.2213 89.5052 41.9127C89.4029 41.5697 89.3347 41.1925 89.3347 40.7809C89.3347 40.3693 89.4029 39.7177 89.5734 39.2718C89.7438 38.826 89.9824 38.3801 90.2551 38.0372C90.5279 37.6942 90.9029 37.3855 91.2778 37.1798C91.6528 36.974 92.096 36.8711 92.5733 36.8711C93.0505 36.8711 93.2551 36.9397 93.5278 37.0426C93.8005 37.1455 94.0732 37.3512 94.2778 37.557C94.4823 37.7971 94.6528 38.0715 94.755 38.3801C94.8573 38.7231 94.9255 39.1004 94.9255 39.5119C94.9255 39.9235 94.8573 40.5408 94.6868 41.021C94.5164 41.5011 94.2778 41.9127 94.005 42.2899C93.6982 42.6329 93.3573 42.9416 92.9823 43.1474C92.6074 43.3531 92.1642 43.456 91.6869 43.456V43.4217ZM91.7892 42.53C92.096 42.53 92.3687 42.4614 92.6073 42.2899C92.846 42.1185 93.0846 41.8784 93.2551 41.604C93.4255 41.3296 93.5619 40.9867 93.6641 40.6437C93.7664 40.2664 93.8005 39.8892 93.8005 39.4776C93.8005 38.8946 93.6982 38.4487 93.4596 38.1401C93.221 37.8314 92.8801 37.6942 92.471 37.6942C92.0619 37.6942 91.8915 37.7628 91.6187 37.9343C91.346 38.1058 91.1415 38.3115 90.971 38.5859C90.8006 38.8603 90.6642 39.2033 90.562 39.5462C90.4597 39.8892 90.4256 40.3007 90.4256 40.7123C90.4256 41.2953 90.5279 41.7412 90.7665 42.0499C91.0051 42.3585 91.346 42.4957 91.7551 42.4957L91.7892 42.53Z" fill="#142A66"/>
<path d="M95.8457 43.3191L96.5957 36.9056H97.1411C97.4138 36.9056 97.5161 37.0428 97.5161 37.2829L97.4138 38.4147C97.7206 37.9002 98.0615 37.4887 98.4365 37.2143C98.8115 36.9399 99.1865 36.8027 99.6297 36.8027C100.073 36.8027 100.38 36.9399 100.584 37.2486C100.789 37.5573 100.891 37.9688 100.891 38.5176C101.198 37.9345 101.573 37.4887 101.948 37.2143C102.357 36.9399 102.766 36.8027 103.209 36.8027C103.652 36.8027 104.13 37.0085 104.368 37.4201C104.607 37.8316 104.675 38.449 104.573 39.2035L104.095 43.2848H103.005L103.482 39.2035C103.55 38.689 103.516 38.3118 103.448 38.0717C103.345 37.8316 103.141 37.6944 102.834 37.6944C102.527 37.6944 102.459 37.7287 102.289 37.8316C102.118 37.9345 101.948 38.0717 101.777 38.2432C101.607 38.4147 101.471 38.6204 101.3 38.8948C101.13 39.1692 101.027 39.4436 100.925 39.7865L100.516 43.2848H99.4251L99.9024 39.2035C99.9706 38.689 99.9706 38.3118 99.9024 38.0717C99.8342 37.8316 99.6297 37.6944 99.3229 37.6944C99.0161 37.6944 98.9138 37.763 98.7433 37.8316C98.5729 37.9002 98.3684 38.0717 98.1979 38.2775C98.0275 38.4833 97.8911 38.689 97.7206 38.9977C97.5502 39.3064 97.4479 39.5808 97.3457 39.9237L96.9366 43.2505H95.8457V43.3191Z" fill="#142A66"/>
<path d="M105.732 43.3191L106.482 36.9056H107.027C107.3 36.9056 107.402 37.0428 107.402 37.2829L107.3 38.4147C107.607 37.9002 107.948 37.4887 108.323 37.2143C108.698 36.9399 109.073 36.8027 109.516 36.8027C109.959 36.8027 110.266 36.9399 110.47 37.2486C110.675 37.5573 110.777 37.9688 110.777 38.5176C111.084 37.9345 111.459 37.4887 111.834 37.2143C112.243 36.9399 112.652 36.8027 113.095 36.8027C113.538 36.8027 114.016 37.0085 114.254 37.4201C114.493 37.8316 114.561 38.449 114.459 39.2035L113.981 43.2848H112.891L113.368 39.2035C113.436 38.689 113.402 38.3118 113.334 38.0717C113.231 37.8316 113.027 37.6944 112.72 37.6944C112.413 37.6944 112.379 37.7287 112.175 37.8316C112.004 37.9345 111.834 38.0717 111.663 38.2432C111.493 38.4147 111.322 38.6204 111.186 38.8948C111.05 39.1692 110.913 39.4436 110.811 39.7865L110.402 43.2848H109.311L109.788 39.2035C109.857 38.689 109.857 38.3118 109.788 38.0717C109.72 37.8316 109.516 37.6944 109.209 37.6944C108.902 37.6944 108.8 37.763 108.629 37.8316C108.459 37.9002 108.254 38.0717 108.084 38.2775C107.913 38.4833 107.777 38.689 107.607 38.9977C107.436 39.3064 107.334 39.5808 107.232 39.9237L106.823 43.2505H105.732V43.3191Z" fill="#142A66"/>
<path d="M117.561 36.9394L116.811 43.3528H115.72L116.47 36.9394H117.561ZM118.004 34.9159C118.004 35.0188 118.004 35.1217 117.936 35.2246C117.902 35.3274 117.834 35.396 117.766 35.4646C117.697 35.5332 117.595 35.6018 117.527 35.6361C117.425 35.6704 117.322 35.7047 117.22 35.7047C117.118 35.7047 117.016 35.7047 116.947 35.6361C116.879 35.5675 116.777 35.5332 116.709 35.4646C116.641 35.396 116.572 35.2931 116.538 35.2246C116.504 35.156 116.47 35.0188 116.47 34.9159C116.47 34.813 116.47 34.7101 116.538 34.6072C116.607 34.5043 116.641 34.4357 116.709 34.3328C116.777 34.2643 116.879 34.1957 116.947 34.1614C117.016 34.1271 117.118 34.0928 117.22 34.0928C117.322 34.0928 117.425 34.0928 117.527 34.1614C117.629 34.23 117.697 34.2643 117.766 34.3328C117.834 34.4014 117.902 34.5043 117.936 34.6072C117.97 34.7101 118.004 34.813 118.004 34.9159Z" fill="#142A66"/>
<path d="M119.027 42.1185V42.0156C119.027 41.9813 119.027 41.9127 119.027 41.8441C119.027 41.7756 119.027 41.6727 119.027 41.5355C119.027 41.3983 119.027 41.2611 119.095 41.0553L119.504 37.8315H118.823C118.754 37.8315 118.72 37.8315 118.686 37.7629C118.652 37.7286 118.652 37.66 118.652 37.5914V37.1798C118.686 37.1798 119.675 37.0426 119.675 37.0426L120.152 35.0534C120.152 34.9848 120.22 34.9505 120.254 34.9163C120.288 34.882 120.357 34.8477 120.425 34.8477H121.004L120.732 37.0769H123.459L123.936 35.0877C123.936 35.0191 124.004 34.9848 124.038 34.9505C124.072 34.9163 124.141 34.882 124.209 34.882H124.788L124.516 37.1112H126.186L126.084 37.9H124.413L124.038 41.0553C124.038 41.2268 124.004 41.364 124.004 41.4669C124.004 41.5698 124.004 41.6727 124.004 41.707C124.004 41.7413 124.004 41.8098 124.004 41.8441V41.9127C124.004 42.1185 124.038 42.29 124.141 42.3929C124.243 42.4958 124.379 42.5301 124.55 42.5301C124.72 42.5301 124.754 42.5301 124.856 42.4958C124.959 42.4615 125.027 42.4272 125.061 42.3929C125.129 42.3586 125.163 42.3243 125.231 42.29C125.266 42.29 125.3 42.2557 125.334 42.2557C125.368 42.2557 125.402 42.2557 125.402 42.2557C125.402 42.2557 125.436 42.29 125.47 42.3243L125.709 42.873C125.504 43.0445 125.266 43.1817 124.993 43.2846C124.72 43.3875 124.481 43.4218 124.209 43.4218C123.8 43.4218 123.493 43.3189 123.254 43.0788C123.016 42.8387 122.913 42.5301 122.879 42.1185V42.0156C122.879 41.9813 122.879 41.9127 122.879 41.8441C122.879 41.7756 122.879 41.6727 122.879 41.5355C122.879 41.3983 122.879 41.2611 122.947 41.0553L123.322 37.8315H120.663L120.288 40.9867C120.288 41.1582 120.254 41.2954 120.254 41.3983C120.254 41.5012 120.254 41.6041 120.254 41.6384C120.254 41.6727 120.254 41.7413 120.254 41.7756C120.254 41.8098 120.254 41.8098 120.254 41.8441C120.254 42.0499 120.288 42.2214 120.391 42.3243C120.493 42.4272 120.629 42.4615 120.8 42.4615C120.97 42.4615 121.004 42.4615 121.107 42.4272C121.209 42.3929 121.277 42.3586 121.311 42.3243C121.379 42.29 121.413 42.2557 121.482 42.2214C121.516 42.2214 121.55 42.1871 121.584 42.1871C121.618 42.1871 121.652 42.1871 121.652 42.1871C121.652 42.1871 121.686 42.2214 121.72 42.2557L121.959 42.8044C121.754 42.9759 121.516 43.1131 121.277 43.216C121.004 43.3189 120.766 43.3532 120.493 43.3532C120.084 43.3532 119.777 43.2503 119.538 43.0102C119.3 42.7702 119.198 42.4615 119.163 42.0499L119.027 42.1185Z" fill="#142A66"/>
<path d="M131.606 42.1528C131.402 42.3928 131.197 42.5643 130.992 42.7358C130.788 42.9073 130.583 43.0102 130.379 43.1474C130.174 43.2845 129.936 43.3188 129.697 43.3874C129.458 43.4217 129.22 43.456 128.947 43.456C128.674 43.456 128.265 43.3874 127.958 43.2845C127.652 43.1816 127.413 42.9759 127.208 42.7701C127.004 42.53 126.868 42.2899 126.731 41.947C126.629 41.6383 126.561 41.261 126.561 40.8838C126.561 40.5065 126.595 40.2322 126.663 39.8892C126.731 39.5805 126.834 39.2376 126.97 38.9632C127.106 38.6888 127.277 38.3801 127.447 38.1401C127.652 37.9 127.856 37.6599 128.095 37.4884C128.333 37.3169 128.606 37.1455 128.913 37.0426C129.22 36.9397 129.527 36.8711 129.868 36.8711C130.208 36.8711 130.481 36.9054 130.72 37.0083C130.958 37.1112 131.129 37.2141 131.299 37.3512C131.436 37.4884 131.572 37.6599 131.64 37.8314C131.708 38.0029 131.742 38.1744 131.742 38.3115C131.742 38.5859 131.674 38.8603 131.572 39.0661C131.47 39.2718 131.265 39.5119 130.958 39.6834C130.652 39.8892 130.242 40.0264 129.731 40.1636C129.22 40.3007 128.538 40.4036 127.686 40.5065V40.7809C127.686 41.3639 127.822 41.7755 128.061 42.0842C128.299 42.3928 128.674 42.53 129.186 42.53C129.697 42.53 129.561 42.53 129.731 42.4614C129.902 42.3928 130.038 42.3585 130.14 42.3242C130.277 42.2556 130.379 42.1871 130.481 42.1185C130.583 42.0499 130.652 41.9813 130.754 41.9127C130.822 41.8441 130.89 41.8098 130.958 41.7755C131.027 41.7412 131.095 41.7069 131.163 41.7069C131.231 41.7069 131.299 41.7069 131.367 41.8098L131.64 42.1528H131.606ZM129.833 37.6599C129.561 37.6599 129.322 37.7285 129.118 37.8314C128.913 37.9343 128.708 38.1058 128.538 38.2773C128.368 38.4487 128.231 38.6888 128.095 38.9632C127.958 39.2376 127.89 39.5119 127.822 39.7863C128.47 39.7177 128.981 39.6148 129.39 39.5119C129.765 39.409 130.072 39.3061 130.277 39.169C130.481 39.0661 130.617 38.9289 130.686 38.7917C130.754 38.6545 130.788 38.5173 130.788 38.3458C130.788 38.1744 130.788 38.2087 130.754 38.1058C130.72 38.0372 130.686 37.9343 130.583 37.8657C130.515 37.7971 130.413 37.7285 130.311 37.6942C130.208 37.6599 130.038 37.6256 129.902 37.6256L129.833 37.6599Z" fill="#142A66"/>
<path d="M138.731 34.0244L137.606 43.3531H137.026C136.89 43.3531 136.788 43.3188 136.72 43.2502C136.651 43.1816 136.651 43.0787 136.651 42.9758L136.788 41.6382C136.617 41.9126 136.447 42.1527 136.276 42.3928C136.106 42.6328 135.901 42.8043 135.697 42.9758C135.492 43.1473 135.288 43.2502 135.049 43.3531C134.811 43.456 134.606 43.4903 134.367 43.4903C133.822 43.4903 133.413 43.2845 133.106 42.9072C132.799 42.5299 132.663 41.9469 132.663 41.1581C132.663 40.3693 132.697 40.4722 132.765 40.1292C132.833 39.7862 132.936 39.4433 133.072 39.1346C133.208 38.8259 133.379 38.5173 133.549 38.2429C133.72 37.9685 133.958 37.7284 134.163 37.5227C134.401 37.3169 134.64 37.1797 134.913 37.0425C135.185 36.9053 135.458 36.871 135.765 36.871C136.072 36.871 136.379 36.9396 136.617 37.0425C136.89 37.1797 137.095 37.3512 137.265 37.557L137.708 34.0244H138.799H138.731ZM137.129 38.3115C136.958 38.0714 136.788 37.9342 136.549 37.8313C136.31 37.7284 136.106 37.6941 135.867 37.6941C135.526 37.6941 135.22 37.797 134.981 38.0028C134.742 38.2086 134.504 38.4487 134.299 38.7573C134.095 39.066 133.958 39.409 133.856 39.8205C133.754 40.2321 133.72 40.575 133.72 40.9523C133.72 41.3296 133.822 41.844 133.992 42.0841C134.163 42.3242 134.436 42.4957 134.742 42.4957C135.049 42.4957 135.151 42.4271 135.356 42.2899C135.56 42.1527 135.765 41.9812 135.935 41.7754C136.106 41.5696 136.31 41.2953 136.481 40.9866C136.651 40.6779 136.788 40.335 136.924 39.992L137.129 38.3458V38.3115Z" fill="#142A66"/>
<path d="M142.617 42.1185V42.0156C142.617 41.9813 142.617 41.9127 142.617 41.8441C142.617 41.7756 142.617 41.6727 142.617 41.5355C142.617 41.3983 142.651 41.2611 142.685 41.0553L143.06 37.8658H142.345C142.276 37.8658 142.242 37.8657 142.208 37.7972C142.174 37.7629 142.174 37.6943 142.174 37.6257V37.1798C142.208 37.1798 143.197 37.0426 143.197 37.0426L143.674 35.0534C143.674 34.9848 143.742 34.9505 143.776 34.9163C143.81 34.882 143.879 34.8477 143.947 34.8477H144.526L144.254 37.0426H145.924L145.822 37.8658H144.151L143.776 41.021C143.776 41.1925 143.742 41.3297 143.742 41.4326C143.742 41.5355 143.742 41.6384 143.742 41.6727C143.742 41.707 143.742 41.7756 143.742 41.8098C143.742 41.8441 143.742 41.8441 143.742 41.8784C143.742 42.0842 143.776 42.2557 143.879 42.3586C143.981 42.4615 144.117 42.4958 144.288 42.4958C144.458 42.4958 144.492 42.4958 144.594 42.4615C144.697 42.4272 144.765 42.3929 144.799 42.3586C144.867 42.3243 144.901 42.29 144.969 42.2557C145.004 42.2557 145.038 42.2214 145.072 42.2214C145.106 42.2214 145.14 42.2214 145.14 42.2214C145.14 42.2214 145.174 42.2557 145.208 42.29L145.447 42.8387C145.242 43.0102 145.004 43.1474 144.731 43.2503C144.458 43.3532 144.219 43.3875 143.947 43.3875C143.538 43.3875 143.231 43.2846 142.992 43.0445C142.754 42.8044 142.651 42.4958 142.617 42.0842V42.1185Z" fill="#142A66"/>
<path d="M148.821 43.4217C148.481 43.4217 148.14 43.3531 147.867 43.2502C147.594 43.1474 147.321 42.9416 147.117 42.7358C146.912 42.4957 146.742 42.2213 146.64 41.9127C146.537 41.5697 146.469 41.1925 146.469 40.7809C146.469 40.3693 146.537 39.7177 146.708 39.2718C146.878 38.826 147.117 38.3801 147.39 38.0372C147.662 37.6942 148.037 37.3855 148.412 37.1798C148.787 36.974 149.231 36.8711 149.708 36.8711C150.185 36.8711 150.39 36.9397 150.662 37.0426C150.935 37.1455 151.208 37.3512 151.412 37.557C151.617 37.7971 151.787 38.0715 151.89 38.3801C151.992 38.7231 152.06 39.1004 152.06 39.5119C152.06 39.9235 151.992 40.5408 151.821 41.021C151.651 41.5011 151.412 41.9127 151.14 42.2899C150.833 42.6329 150.492 42.9416 150.117 43.1474C149.742 43.3531 149.299 43.456 148.821 43.456V43.4217ZM148.924 42.53C149.231 42.53 149.503 42.4614 149.742 42.2899C149.981 42.1185 150.219 41.8784 150.39 41.604C150.56 41.3296 150.696 40.9867 150.799 40.6437C150.901 40.2664 150.935 39.8892 150.935 39.4776C150.935 38.8946 150.833 38.4487 150.594 38.1401C150.355 37.8314 150.015 37.6942 149.606 37.6942C149.196 37.6942 149.026 37.7628 148.753 37.9343C148.481 38.1058 148.276 38.3115 148.106 38.5859C147.935 38.8603 147.799 39.2033 147.696 39.5462C147.594 39.8892 147.56 40.3007 147.56 40.7123C147.56 41.2953 147.662 41.7412 147.901 42.0499C148.14 42.3585 148.481 42.4957 148.924 42.4957V42.53Z" fill="#142A66"/>
<path d="M160.923 42.1528C160.719 42.3928 160.514 42.5643 160.31 42.7358C160.105 42.9073 159.901 43.0102 159.696 43.1474C159.492 43.2845 159.253 43.3188 159.014 43.3874C158.776 43.4217 158.537 43.456 158.264 43.456C157.992 43.456 157.583 43.3874 157.276 43.2845C156.969 43.1816 156.73 42.9759 156.526 42.7701C156.321 42.53 156.185 42.2899 156.049 41.947C155.946 41.6383 155.878 41.261 155.878 40.8838C155.878 40.5065 155.912 40.2322 155.98 39.8892C156.049 39.5805 156.151 39.2376 156.287 38.9632C156.424 38.6888 156.594 38.3801 156.765 38.1401C156.969 37.9 157.174 37.6599 157.412 37.4884C157.651 37.3169 157.924 37.1455 158.23 37.0426C158.537 36.9397 158.844 36.8711 159.185 36.8711C159.526 36.8711 159.799 36.9054 160.037 37.0083C160.276 37.1112 160.446 37.2141 160.617 37.3512C160.753 37.4884 160.889 37.6599 160.958 37.8314C161.026 38.0029 161.06 38.1744 161.06 38.3115C161.06 38.5859 160.992 38.8603 160.889 39.0661C160.787 39.2718 160.583 39.5119 160.276 39.6834C159.969 39.8892 159.56 40.0264 159.049 40.1636C158.537 40.3007 157.855 40.4036 157.003 40.5065V40.7809C157.003 41.3639 157.139 41.7755 157.378 42.0842C157.617 42.3928 157.992 42.53 158.503 42.53C159.014 42.53 158.878 42.53 159.049 42.4614C159.219 42.3928 159.355 42.3585 159.458 42.3242C159.594 42.2556 159.696 42.1871 159.799 42.1185C159.901 42.0499 159.969 41.9813 160.071 41.9127C160.139 41.8441 160.208 41.8098 160.276 41.7755C160.344 41.7412 160.412 41.7069 160.48 41.7069C160.548 41.7069 160.617 41.7069 160.685 41.8098L160.958 42.1528H160.923ZM159.151 37.6599C158.878 37.6599 158.639 37.7285 158.435 37.8314C158.23 37.9343 158.026 38.1058 157.855 38.2773C157.685 38.4487 157.549 38.6888 157.412 38.9632C157.276 39.2376 157.208 39.5119 157.14 39.7863C157.787 39.7177 158.299 39.6148 158.708 39.5119C159.083 39.409 159.389 39.3061 159.594 39.169C159.799 39.0661 159.935 38.9289 160.003 38.7917C160.071 38.6545 160.105 38.5173 160.105 38.3458C160.105 38.1744 160.105 38.2087 160.071 38.1058C160.037 38.0372 160.003 37.9343 159.901 37.8657C159.833 37.7971 159.73 37.7285 159.628 37.6942C159.526 37.6599 159.355 37.6256 159.219 37.6256L159.151 37.6599Z" fill="#142A66"/>
<path d="M165.15 39.8893L166.855 43.319H165.866C165.798 43.319 165.73 43.319 165.662 43.2504C165.628 43.2161 165.56 43.1475 165.56 43.0789L164.366 40.5066C164.332 40.6095 164.298 40.6781 164.23 40.7467L162.491 43.0789C162.457 43.1475 162.389 43.1818 162.355 43.2161C162.321 43.2504 162.253 43.2847 162.185 43.2847H161.196L163.753 39.8207L162.219 36.8712H163.207C163.276 36.8712 163.344 36.8712 163.378 36.8712C163.412 36.8712 163.446 36.9398 163.48 37.0084L164.537 39.2034C164.571 39.1005 164.639 39.0319 164.707 38.929L166.139 37.0084C166.207 36.9055 166.31 36.8369 166.412 36.8369H167.434L165.15 39.8207V39.8893Z" fill="#142A66"/>
<path d="M171.662 42.7703C171.457 42.9418 171.253 43.0447 171.082 43.1476C170.878 43.2505 170.673 43.3191 170.469 43.3534C170.264 43.3877 170.025 43.422 169.787 43.422C169.412 43.422 169.105 43.3534 168.798 43.2162C168.491 43.079 168.287 42.9075 168.082 42.6674C167.878 42.4274 167.741 42.153 167.639 41.8443C167.537 41.5357 167.503 41.1584 167.503 40.7811C167.503 40.4039 167.571 39.7522 167.741 39.3064C167.912 38.8605 168.116 38.4147 168.423 38.0374C168.73 37.6601 169.071 37.3858 169.446 37.1457C169.821 36.9056 170.298 36.8027 170.775 36.8027C171.253 36.8027 171.559 36.8713 171.832 37.0428C172.105 37.18 172.378 37.4201 172.582 37.6944L172.241 38.106C172.241 38.106 172.173 38.1746 172.139 38.1746C172.105 38.1746 172.071 38.1746 172.003 38.1746C171.934 38.1746 171.9 38.1746 171.832 38.106C171.764 38.0374 171.696 38.0031 171.628 37.9345C171.525 37.8659 171.423 37.7973 171.287 37.763C171.15 37.6944 170.98 37.6944 170.775 37.6944C170.571 37.6944 170.23 37.763 169.957 37.9345C169.684 38.106 169.48 38.3118 169.275 38.5862C169.071 38.8605 168.934 39.2035 168.832 39.5465C168.73 39.8894 168.662 40.3353 168.662 40.7468C168.662 41.1584 168.662 41.2613 168.764 41.4671C168.866 41.6728 168.9 41.8786 169.037 42.0158C169.139 42.153 169.309 42.2902 169.48 42.3588C169.65 42.4274 169.855 42.496 170.059 42.496C170.264 42.496 170.571 42.4617 170.775 42.3588C170.98 42.2559 171.116 42.1873 171.253 42.0844C171.389 41.9815 171.491 41.8786 171.593 41.81C171.696 41.7414 171.764 41.6728 171.866 41.6728C171.968 41.6728 172.003 41.6728 172.071 41.7757L172.343 42.1187C172.139 42.3588 171.934 42.5645 171.73 42.736L171.662 42.7703Z" fill="#142A66"/>
<path d="M178.139 42.1528C177.934 42.3928 177.73 42.5643 177.525 42.7358C177.321 42.9073 177.116 43.0102 176.912 43.1474C176.707 43.2845 176.468 43.3188 176.23 43.3874C175.991 43.4217 175.753 43.456 175.48 43.456C175.207 43.456 174.798 43.3874 174.491 43.2845C174.184 43.1816 173.946 42.9759 173.741 42.7701C173.537 42.53 173.4 42.2899 173.264 41.947C173.162 41.6383 173.094 41.261 173.094 40.8838C173.094 40.5065 173.128 40.2322 173.196 39.8892C173.264 39.5805 173.366 39.2376 173.503 38.9632C173.639 38.6888 173.809 38.3801 173.98 38.1401C174.184 37.9 174.389 37.6599 174.628 37.4884C174.866 37.3169 175.139 37.1455 175.446 37.0426C175.753 36.9397 176.059 36.8711 176.4 36.8711C176.741 36.8711 177.014 36.9054 177.252 37.0083C177.491 37.1112 177.662 37.2141 177.832 37.3512C177.968 37.4884 178.105 37.6599 178.173 37.8314C178.241 38.0029 178.275 38.1744 178.275 38.3115C178.275 38.5859 178.207 38.8603 178.105 39.0661C178.002 39.2718 177.798 39.5119 177.491 39.6834C177.184 39.8892 176.775 40.0264 176.264 40.1636C175.753 40.3007 175.071 40.4036 174.218 40.5065V40.7809C174.218 41.3639 174.355 41.7755 174.593 42.0842C174.832 42.3928 175.207 42.53 175.718 42.53C176.23 42.53 176.093 42.53 176.264 42.4614C176.434 42.3928 176.571 42.3585 176.673 42.3242C176.809 42.2556 176.912 42.1871 177.014 42.1185C177.116 42.0499 177.184 41.9813 177.287 41.9127C177.355 41.8441 177.423 41.8098 177.491 41.7755C177.559 41.7412 177.627 41.7069 177.696 41.7069C177.764 41.7069 177.832 41.7069 177.9 41.8098L178.173 42.1528H178.139ZM176.332 37.6599C176.059 37.6599 175.821 37.7285 175.616 37.8314C175.412 37.9343 175.207 38.1058 175.037 38.2773C174.866 38.4487 174.73 38.6888 174.593 38.9632C174.457 39.2376 174.389 39.5119 174.321 39.7863C174.968 39.7177 175.48 39.6148 175.889 39.5119C176.264 39.409 176.571 39.3061 176.775 39.169C176.98 39.0661 177.116 38.9289 177.184 38.7917C177.252 38.6545 177.287 38.5173 177.287 38.3458C177.287 38.1744 177.287 38.2087 177.252 38.1058C177.218 38.0372 177.184 37.9343 177.082 37.8657C177.014 37.7971 176.912 37.7285 176.809 37.6942C176.707 37.6599 176.537 37.6256 176.4 37.6256L176.332 37.6599Z" fill="#142A66"/>
<path d="M179.162 43.3189L180.287 33.9902H181.377L180.253 43.3189H179.162Z" fill="#142A66"/>
<path d="M181.991 43.3189L183.116 33.9902H184.207L183.082 43.3189H181.991Z" fill="#142A66"/>
<path d="M189.797 42.1528C189.593 42.3928 189.388 42.5643 189.184 42.7358C188.979 42.9073 188.775 43.0102 188.57 43.1474C188.366 43.2845 188.127 43.3188 187.888 43.3874C187.65 43.4217 187.411 43.456 187.138 43.456C186.866 43.456 186.457 43.3874 186.15 43.2845C185.843 43.1816 185.604 42.9759 185.4 42.7701C185.195 42.53 185.059 42.2899 184.923 41.947C184.82 41.6383 184.752 41.261 184.752 40.8838C184.752 40.5065 184.786 40.2322 184.854 39.8892C184.923 39.5805 185.025 39.2376 185.161 38.9632C185.298 38.6888 185.468 38.3801 185.639 38.1401C185.843 37.9 186.048 37.6599 186.286 37.4884C186.525 37.3169 186.798 37.1455 187.104 37.0426C187.411 36.9397 187.718 36.8711 188.059 36.8711C188.4 36.8711 188.673 36.9054 188.911 37.0083C189.15 37.1112 189.32 37.2141 189.491 37.3512C189.627 37.4884 189.763 37.6599 189.832 37.8314C189.9 38.0029 189.934 38.1744 189.934 38.3115C189.934 38.5859 189.866 38.8603 189.763 39.0661C189.661 39.2718 189.457 39.5119 189.15 39.6834C188.843 39.8892 188.434 40.0264 187.923 40.1636C187.411 40.3007 186.729 40.4036 185.877 40.5065V40.7809C185.877 41.3639 186.014 41.7755 186.252 42.0842C186.491 42.3928 186.866 42.53 187.377 42.53C187.888 42.53 187.752 42.53 187.923 42.4614C188.093 42.3928 188.229 42.3585 188.332 42.3242C188.468 42.2556 188.57 42.1871 188.673 42.1185C188.775 42.0499 188.843 41.9813 188.945 41.9127C189.013 41.8441 189.082 41.8098 189.15 41.7755C189.218 41.7412 189.286 41.7069 189.354 41.7069C189.423 41.7069 189.491 41.7069 189.559 41.8098L189.832 42.1528H189.797ZM188.025 37.6599C187.752 37.6599 187.513 37.7285 187.309 37.8314C187.104 37.9343 186.9 38.1058 186.729 38.2773C186.559 38.4487 186.423 38.6888 186.286 38.9632C186.15 39.2376 186.082 39.5119 186.014 39.7863C186.661 39.7177 187.173 39.6148 187.582 39.5119C187.957 39.409 188.263 39.3061 188.468 39.169C188.673 39.0661 188.809 38.9289 188.877 38.7917C188.945 38.6545 188.979 38.5173 188.979 38.3458C188.979 38.1744 188.979 38.2087 188.945 38.1058C188.911 38.0372 188.877 37.9343 188.775 37.8657C188.707 37.7971 188.604 37.7285 188.502 37.6942C188.4 37.6599 188.229 37.6256 188.093 37.6256L188.025 37.6599Z" fill="#142A66"/>
<path d="M192.423 38.5517C192.763 37.9687 193.138 37.5571 193.582 37.2828C194.025 37.0084 194.434 36.8369 194.911 36.8369C195.388 36.8369 195.422 36.9055 195.627 37.0084C195.832 37.1113 196.002 37.2828 196.138 37.4885C196.275 37.6943 196.343 37.9344 196.411 38.2431C196.445 38.5517 196.445 38.8947 196.411 39.272L195.934 43.3533H194.809L195.286 39.272C195.354 38.7575 195.286 38.3803 195.184 38.1402C195.047 37.9001 194.843 37.7629 194.502 37.7629C194.161 37.7629 194.093 37.8315 193.888 37.9344C193.684 38.0373 193.479 38.2088 193.275 38.4146C193.07 38.6203 192.9 38.8604 192.729 39.1348C192.559 39.4092 192.423 39.7521 192.32 40.0951L191.945 43.3533H190.82L191.57 36.9398H192.116C192.354 36.9398 192.491 37.077 192.491 37.3171L192.388 38.5517H192.423Z" fill="#142A66"/>
<path d="M201.627 42.7703C201.422 42.9418 201.218 43.0447 201.047 43.1476C200.843 43.2505 200.638 43.3191 200.434 43.3534C200.229 43.3877 199.99 43.422 199.752 43.422C199.377 43.422 199.07 43.3534 198.763 43.2162C198.456 43.079 198.252 42.9075 198.047 42.6674C197.843 42.4274 197.706 42.153 197.604 41.8443C197.502 41.5357 197.468 41.1584 197.468 40.7811C197.468 40.4039 197.536 39.7522 197.706 39.3064C197.877 38.8262 198.081 38.4147 198.388 38.0374C198.695 37.6601 199.036 37.3858 199.411 37.1457C199.82 36.9399 200.263 36.8027 200.706 36.8027C201.149 36.8027 201.49 36.8713 201.763 37.0428C202.036 37.18 202.309 37.4201 202.513 37.6944L202.172 38.106C202.172 38.106 202.104 38.1746 202.07 38.1746C202.036 38.1746 202.002 38.1746 201.934 38.1746C201.865 38.1746 201.831 38.1746 201.763 38.106C201.695 38.0374 201.627 38.0031 201.524 37.9345C201.422 37.8659 201.32 37.7973 201.184 37.763C201.047 37.6944 200.877 37.6944 200.672 37.6944C200.468 37.6944 200.093 37.763 199.854 37.9345C199.615 38.106 199.377 38.3118 199.172 38.5862C198.968 38.8605 198.831 39.2035 198.729 39.5465C198.627 39.8894 198.559 40.3353 198.559 40.7468C198.559 41.1584 198.559 41.2613 198.661 41.4671C198.763 41.6728 198.797 41.8786 198.934 42.0158C199.036 42.153 199.206 42.2902 199.377 42.3588C199.547 42.4274 199.752 42.496 199.956 42.496C200.161 42.496 200.468 42.4617 200.672 42.3588C200.877 42.2559 201.013 42.1873 201.149 42.0844C201.286 41.9815 201.388 41.8786 201.49 41.81C201.593 41.7414 201.661 41.6728 201.763 41.6728C201.865 41.6728 201.899 41.6728 201.968 41.7757L202.24 42.1187C202.036 42.3588 201.831 42.5645 201.627 42.736V42.7703Z" fill="#142A66"/>
<path d="M208.07 42.1528C207.865 42.3928 207.661 42.5643 207.456 42.7358C207.252 42.9073 207.047 43.0102 206.842 43.1474C206.638 43.2845 206.399 43.3188 206.161 43.3874C205.922 43.4217 205.683 43.456 205.411 43.456C205.138 43.456 204.729 43.3874 204.422 43.2845C204.115 43.1816 203.877 42.9759 203.672 42.7701C203.468 42.53 203.331 42.2899 203.195 41.947C203.093 41.6383 203.024 41.261 203.024 40.8838C203.024 40.5065 203.024 40.2322 203.127 39.8892C203.195 39.5805 203.297 39.2376 203.433 38.9632C203.57 38.6888 203.74 38.3801 203.911 38.1401C204.081 37.9 204.32 37.6599 204.558 37.4884C204.797 37.3169 205.07 37.1455 205.377 37.0426C205.683 36.9397 205.99 36.8711 206.331 36.8711C206.672 36.8711 206.945 36.9054 207.183 37.0083C207.422 37.1112 207.592 37.2141 207.763 37.3512C207.899 37.4884 208.036 37.6599 208.104 37.8314C208.172 38.0029 208.206 38.1744 208.206 38.3115C208.206 38.5859 208.138 38.8603 208.036 39.0661C207.933 39.2718 207.729 39.5119 207.422 39.6834C207.115 39.8892 206.706 40.0264 206.161 40.1636C205.649 40.3007 204.968 40.4036 204.115 40.5065V40.7809C204.115 41.3639 204.252 41.7755 204.49 42.0842C204.729 42.3928 205.104 42.53 205.615 42.53C206.127 42.53 205.99 42.53 206.161 42.4614C206.331 42.3928 206.468 42.3585 206.57 42.3242C206.706 42.2556 206.808 42.1871 206.911 42.1185C207.013 42.0499 207.081 41.9813 207.183 41.9127C207.252 41.8441 207.32 41.8098 207.388 41.7755C207.456 41.7412 207.524 41.7069 207.592 41.7069C207.661 41.7069 207.729 41.7069 207.797 41.8098L208.07 42.1528ZM206.297 37.6599C206.024 37.6599 205.786 37.7285 205.581 37.8314C205.377 37.9343 205.172 38.1058 205.002 38.2773C204.831 38.4487 204.695 38.6888 204.558 38.9632C204.422 39.2376 204.354 39.5119 204.286 39.7863C204.933 39.7177 205.445 39.6148 205.854 39.5119C206.229 39.409 206.536 39.3061 206.74 39.169C206.945 39.0661 207.081 38.9289 207.149 38.7917C207.217 38.6545 207.252 38.5173 207.252 38.3458C207.252 38.1744 207.252 38.2087 207.183 38.1058C207.183 38.0372 207.115 37.9343 207.013 37.8657C206.945 37.7971 206.842 37.7285 206.74 37.6942C206.638 37.6599 206.467 37.6256 206.331 37.6256L206.297 37.6599Z" fill="#142A66"/>
<path d="M56.969 29.498H235.139" stroke="#142A66" strokeWidth="1.44045" strokeLinecap="round" strokeLinejoin="round"/>
<path d="M67.8583 19.4487C68.0287 19.4487 68.1992 19.5173 68.3014 19.6545L69.5628 21.0264C68.9491 21.8152 68.1651 22.4325 67.2106 22.8441C66.2901 23.2557 65.1652 23.4614 63.9038 23.4614C62.6425 23.4614 61.688 23.2557 60.7676 22.8784C59.8471 22.5011 59.0631 21.9181 58.4154 21.2322C57.7677 20.5462 57.2563 19.6888 56.9154 18.6942C56.5745 17.7339 56.4041 16.6364 56.4041 15.5046C56.4041 14.3729 56.4722 13.9956 56.6427 13.2754C56.8131 12.5551 57.0518 11.9378 57.3586 11.3548C57.6654 10.7717 58.0745 10.223 58.5176 9.77712C58.9608 9.33127 59.4721 8.88542 60.0517 8.57675C60.6312 8.23378 61.2448 7.99371 61.9266 7.82222C62.6084 7.65074 63.3243 7.54785 64.0743 7.54785C64.8243 7.54785 65.1992 7.58215 65.7106 7.68504C66.2219 7.78793 66.6992 7.92511 67.1424 8.0966C67.5855 8.26808 67.9946 8.50815 68.3696 8.74823C68.7446 8.9883 69.0855 9.26268 69.3923 9.57135L68.3014 11.0461C68.2333 11.149 68.1651 11.2176 68.0628 11.2862C67.9605 11.3548 67.8242 11.3891 67.6537 11.3891C67.4833 11.3891 67.3128 11.3205 67.1424 11.2176C66.9719 11.0804 66.7674 10.9432 66.4947 10.806C66.2219 10.6688 65.9151 10.5316 65.5401 10.3945C65.1652 10.2573 64.6879 10.223 64.1084 10.223C63.5288 10.223 62.8811 10.3602 62.3357 10.5659C61.7903 10.806 61.3471 11.149 60.938 11.5948C60.5289 12.0407 60.2562 12.5894 60.0517 13.2411C59.8471 13.8927 59.7449 14.6472 59.7449 15.4703C59.7449 16.2935 59.8471 17.048 60.0858 17.6996C60.3244 18.3513 60.6312 18.9 61.0403 19.3458C61.4494 19.7917 61.9266 20.1347 62.438 20.3747C62.9493 20.6148 63.5629 20.7177 64.1766 20.7177C64.7902 20.7177 64.8583 20.7177 65.1652 20.6491C65.472 20.6491 65.7447 20.5462 65.9833 20.4776C66.2219 20.409 66.4606 20.2719 66.6992 20.1347C66.9378 19.9975 67.1424 19.826 67.381 19.6202C67.4492 19.5516 67.5515 19.5173 67.6196 19.4487C67.6878 19.3801 67.7901 19.3801 67.8923 19.3801L67.8583 19.4487Z" fill="#142A66"/>
<path d="M75.7327 12.0068C76.5508 12.0068 77.3008 12.144 77.9826 12.4184C78.6644 12.6928 79.2439 13.07 79.7212 13.5502C80.1985 14.0303 80.5734 14.6477 80.8462 15.3336C81.1189 16.0195 81.2552 16.8426 81.2552 17.7001C81.2552 18.5575 81.1189 19.3806 80.8462 20.1008C80.5734 20.821 80.1985 21.4041 79.7212 21.9185C79.2439 22.3987 78.6644 22.8102 77.9826 23.0503C77.3008 23.3247 76.5508 23.4619 75.7327 23.4619C74.9145 23.4619 74.1305 23.3247 73.4487 23.0503C72.7669 22.7759 72.1873 22.3987 71.7101 21.9185C71.2328 21.4384 70.8578 20.821 70.5851 20.1008C70.3124 19.3806 70.176 18.5918 70.176 17.7001C70.176 16.8083 70.3124 16.0195 70.5851 15.3336C70.8578 14.6477 71.2328 14.0303 71.7101 13.5502C72.1873 13.07 72.7669 12.6928 73.4487 12.4184C74.1305 12.144 74.8804 12.0068 75.7327 12.0068ZM75.7327 21.1983C76.5849 21.1983 77.1985 20.9239 77.6076 20.3066C78.0167 19.7236 78.2212 18.8661 78.2212 17.7001C78.2212 16.534 78.0167 15.6766 77.6076 15.0935C77.1985 14.5105 76.5849 14.2018 75.7327 14.2018C74.8804 14.2018 74.2327 14.4762 73.8236 15.0935C73.4146 15.6766 73.21 16.534 73.21 17.7001C73.21 18.8661 73.4146 19.7236 73.8236 20.3066C74.2327 20.8896 74.8804 21.1983 75.7327 21.1983Z" fill="#142A66"/>
<path d="M85.8576 13.4815C86.0621 13.2757 86.3007 13.0699 86.5394 12.8984C86.778 12.7269 87.0166 12.5555 87.2893 12.4526C87.5621 12.3497 87.8348 12.2125 88.1416 12.1439C88.4484 12.0753 88.7893 12.041 89.1643 12.041C89.7779 12.041 90.2892 12.1439 90.7665 12.3497C91.2438 12.5555 91.6188 12.8641 91.9256 13.2071C92.2324 13.5844 92.471 14.0302 92.6415 14.5447C92.8119 15.0591 92.8801 15.6421 92.8801 16.2595V23.2903H89.9484V16.2595C89.9484 15.6421 89.812 15.162 89.5393 14.819C89.2666 14.4761 88.8234 14.3046 88.2779 14.3046C87.7325 14.3046 87.4598 14.4075 87.1189 14.579C86.778 14.7504 86.403 14.9905 86.0962 15.3335V23.2903H83.1304V12.2125H84.9371C85.3121 12.2125 85.5508 12.384 85.6871 12.7269L85.8576 13.5158V13.4815Z" fill="#142A66"/>
<path d="M97.9935 13.4815C98.1981 13.2757 98.4367 13.0699 98.6753 12.8984C98.914 12.7269 99.1526 12.5555 99.4253 12.4526C99.698 12.3497 99.9708 12.2125 100.278 12.1439C100.584 12.0753 100.925 12.041 101.3 12.041C101.914 12.041 102.425 12.1439 102.902 12.3497C103.38 12.5555 103.755 12.8641 104.062 13.2071C104.368 13.5844 104.607 14.0302 104.777 14.5447C104.948 15.0591 105.016 15.6421 105.016 16.2595V23.2903H102.084V16.2595C102.084 15.6421 101.948 15.162 101.675 14.819C101.403 14.4761 100.959 14.3046 100.414 14.3046C99.8685 14.3046 99.5958 14.4075 99.2549 14.579C98.914 14.7504 98.539 14.9905 98.2322 15.3335V23.2903H95.2664V12.2125H97.0731C97.4481 12.2125 97.6867 12.384 97.8231 12.7269L97.9935 13.5158V13.4815Z" fill="#142A66"/>
<path d="M109.72 18.18C109.823 19.2089 110.095 19.9634 110.607 20.4778C111.118 20.958 111.766 21.1981 112.55 21.1981C113.334 21.1981 113.3 21.1638 113.607 21.0609C113.914 20.958 114.152 20.8551 114.391 20.7522C114.629 20.6493 114.8 20.5121 115.004 20.4435C115.175 20.3407 115.379 20.3064 115.55 20.3064C115.72 20.3064 115.959 20.375 116.095 20.5807L116.948 21.6439C116.641 22.0212 116.3 22.2956 115.925 22.5699C115.55 22.81 115.141 22.9815 114.732 23.153C114.323 23.3245 113.914 23.393 113.504 23.4273C113.095 23.4959 112.686 23.4959 112.311 23.4959C111.527 23.4959 110.811 23.3587 110.164 23.1187C109.482 22.8786 108.902 22.5013 108.425 21.9869C107.914 21.4724 107.539 20.8551 107.266 20.1349C106.993 19.4146 106.857 18.5229 106.857 17.5626C106.857 16.6023 106.993 16.0879 107.232 15.4363C107.471 14.7503 107.846 14.2016 108.289 13.6871C108.732 13.1727 109.311 12.7954 109.993 12.521C110.675 12.2467 111.391 12.0752 112.243 12.0752C113.095 12.0752 113.607 12.1781 114.186 12.4182C114.766 12.6582 115.277 12.9669 115.72 13.4128C116.163 13.8586 116.47 14.3731 116.743 14.9904C117.016 15.6077 117.084 16.328 117.084 17.1511C117.084 17.9742 117.084 17.5626 117.084 17.6998C117.084 17.837 117.016 17.9742 116.982 18.0428C116.948 18.1114 116.879 18.18 116.777 18.2143C116.709 18.2143 116.573 18.2486 116.436 18.2486H109.823L109.72 18.18ZM114.357 16.4309C114.357 16.1222 114.323 15.8135 114.22 15.5391C114.152 15.2648 114.016 15.0247 113.845 14.7846C113.675 14.5788 113.436 14.4074 113.164 14.2702C112.891 14.133 112.55 14.0987 112.175 14.0987C111.459 14.0987 110.914 14.3045 110.505 14.716C110.095 15.1276 109.857 15.6763 109.72 16.4309H114.323H114.357Z" fill="#142A66"/>
<path d="M126.833 14.6469C126.765 14.7498 126.663 14.8527 126.561 14.9213C126.458 14.9899 126.356 15.0242 126.186 15.0242C126.015 15.0242 125.913 14.9899 125.777 14.887C125.64 14.8184 125.504 14.7155 125.334 14.6126C125.163 14.5097 124.959 14.4411 124.72 14.3383C124.481 14.2697 124.209 14.2011 123.834 14.2011C123.459 14.2011 123.015 14.2697 122.675 14.4411C122.334 14.6126 122.095 14.8527 121.856 15.1271C121.652 15.4357 121.481 15.7787 121.379 16.2246C121.277 16.6361 121.209 17.1506 121.209 17.665C121.209 18.7968 121.447 19.6542 121.89 20.2716C122.334 20.8889 122.947 21.1633 123.731 21.1633C124.515 21.1633 124.243 21.1633 124.413 21.0947C124.618 21.0604 124.788 20.9918 124.924 20.9232C125.061 20.8546 125.197 20.786 125.299 20.6831C125.402 20.5802 125.504 20.5116 125.606 20.443C125.709 20.3744 125.811 20.3058 125.913 20.2716C126.015 20.2373 126.118 20.203 126.254 20.203C126.493 20.203 126.663 20.2716 126.799 20.4773L127.652 21.5405C127.345 21.9178 127.004 22.2265 126.629 22.4322C126.254 22.638 125.913 22.8438 125.538 23.0153C125.163 23.1868 124.788 23.2553 124.379 23.2896C124.004 23.3582 123.595 23.3582 123.22 23.3582C122.538 23.3582 121.89 23.2211 121.311 22.981C120.731 22.7409 120.186 22.3636 119.709 21.8835C119.266 21.4033 118.891 20.786 118.618 20.1001C118.345 19.4141 118.209 18.591 118.209 17.665C118.209 16.739 118.311 16.0874 118.55 15.4014C118.788 14.7155 119.129 14.0982 119.572 13.5837C120.016 13.0693 120.595 12.6577 121.277 12.3834C121.959 12.109 122.743 11.9375 123.629 11.9375C124.515 11.9375 125.197 12.0747 125.845 12.3491C126.493 12.6234 127.038 13.035 127.549 13.5494L126.765 14.6126L126.833 14.6469Z" fill="#142A66"/>
<path d="M133.004 23.4615C132.493 23.4615 132.049 23.3929 131.674 23.2557C131.299 23.1186 130.958 22.9128 130.686 22.6384C130.413 22.364 130.209 22.0211 130.072 21.6438C129.936 21.2665 129.868 20.8207 129.868 20.3405V14.373H128.845C128.674 14.373 128.538 14.3044 128.436 14.2358C128.334 14.1329 128.265 13.9957 128.265 13.7899V12.6238L130.038 12.3152L130.652 9.43425C130.72 9.12558 130.958 8.9541 131.299 8.9541H132.833V12.3152H135.663V14.373H132.833V20.1691C132.833 20.4777 132.902 20.7178 133.038 20.8893C133.174 21.0608 133.379 21.1637 133.652 21.1637C133.924 21.1637 133.924 21.1637 134.027 21.1294C134.129 21.1294 134.197 21.0608 134.299 21.0265C134.402 20.9922 134.436 20.9579 134.504 20.9236C134.572 20.8893 134.64 20.8893 134.674 20.8893C134.708 20.8893 134.845 20.8893 134.879 20.9579C134.947 20.9922 134.981 21.0608 135.049 21.1637L135.936 22.5698C135.527 22.8785 135.083 23.1529 134.572 23.29C134.061 23.4272 133.515 23.5301 132.97 23.5301L133.004 23.4615Z" fill="#142A66"/>
<path d="M146.504 20.5461C146.81 20.5461 147.083 20.649 147.254 20.8205C147.424 20.992 147.526 21.232 147.526 21.5407V23.2898H136.754V22.3295C136.754 22.158 136.788 21.9523 136.856 21.7122C136.924 21.4721 137.061 21.3006 137.265 21.1292L141.867 16.4991C142.242 16.0876 142.617 15.7446 142.89 15.3673C143.197 14.9901 143.436 14.6471 143.64 14.3041C143.845 13.9612 143.981 13.6182 144.083 13.241C144.186 12.8637 144.22 12.5207 144.22 12.1092C144.22 11.4232 144.049 10.8745 143.674 10.5315C143.333 10.1543 142.822 9.98279 142.174 9.98279C141.526 9.98279 141.629 10.0171 141.39 10.12C141.152 10.2229 140.947 10.3258 140.742 10.4629C140.572 10.6001 140.402 10.7716 140.265 10.9774C140.129 11.1832 140.027 11.3889 139.958 11.629C139.822 11.972 139.652 12.2121 139.447 12.3492C139.242 12.4521 138.936 12.4864 138.527 12.4178L136.958 12.1435C137.061 11.3889 137.299 10.703 137.606 10.1543C137.913 9.57123 138.322 9.09108 138.799 8.71382C139.277 8.33655 139.822 8.06218 140.402 7.8564C140.981 7.65062 141.663 7.58203 142.345 7.58203C143.026 7.58203 143.742 7.68492 144.356 7.925C144.97 8.13078 145.481 8.43944 145.89 8.851C146.299 9.26256 146.64 9.70841 146.879 10.2572C147.117 10.8059 147.22 11.4232 147.22 12.0749C147.22 12.7265 147.151 13.1724 146.981 13.6525C146.81 14.1327 146.606 14.6128 146.299 15.0587C145.992 15.5045 145.685 15.9161 145.31 16.3619C144.935 16.8078 144.56 17.1851 144.117 17.6309L140.811 21.0263C141.186 20.9234 141.526 20.8205 141.901 20.7862C142.242 20.7176 142.583 20.6833 142.924 20.6833H146.401L146.504 20.5461Z" fill="#142A66"/>
<path d="M163.651 23.2896H161.162C160.889 23.2896 160.651 23.221 160.48 23.0838C160.31 22.9466 160.173 22.7752 160.105 22.5694L159.048 19.5856H152.878L151.821 22.5694C151.753 22.7409 151.617 22.9123 151.446 23.0495C151.276 23.1867 151.037 23.2553 150.765 23.2553H148.242L154.31 7.65039H157.583L163.651 23.2553V23.2896ZM158.264 17.3563L156.594 12.5891C156.492 12.349 156.389 12.0403 156.287 11.6974C156.185 11.3544 156.083 11.0114 155.98 10.5999C155.878 11.0114 155.776 11.3544 155.674 11.6974C155.571 12.0403 155.469 12.349 155.367 12.5891L153.696 17.3563H158.298H158.264Z" fill="#142A66"/>
<path d="M168.491 23.4615C167.98 23.4615 167.537 23.3929 167.162 23.2557C166.787 23.1186 166.446 22.9128 166.173 22.6384C165.901 22.364 165.696 22.0211 165.56 21.6438C165.423 21.2665 165.355 20.8207 165.355 20.3405V14.373H164.332C164.162 14.373 164.026 14.3044 163.923 14.2358C163.821 14.1329 163.753 13.9957 163.753 13.7899V12.6238L165.526 12.3152L166.139 9.43425C166.207 9.12558 166.446 8.9541 166.787 8.9541H168.321V12.3152H172.65L173.264 9.43425C173.332 9.12558 173.571 8.9541 173.912 8.9541H175.446V12.3152H178.275V14.373H175.446V20.1691C175.446 20.4777 175.514 20.7178 175.684 20.8893C175.855 21.0608 176.025 21.1637 176.298 21.1637C176.571 21.1637 176.571 21.1637 176.673 21.1294C176.775 21.0951 176.843 21.0608 176.946 21.0265C177.048 20.9922 177.082 20.9579 177.15 20.9236C177.218 20.8893 177.287 20.8893 177.321 20.8893C177.355 20.8893 177.491 20.8893 177.525 20.9579C177.593 20.9922 177.628 21.0608 177.696 21.1637L178.582 22.5698C178.173 22.8785 177.73 23.1529 177.218 23.29C176.707 23.4272 176.162 23.5301 175.616 23.5301C175.071 23.5301 174.662 23.4615 174.287 23.3243C173.912 23.1872 173.571 22.9814 173.298 22.707C173.025 22.4326 172.821 22.0897 172.684 21.7124C172.548 21.3351 172.48 20.8893 172.48 20.4091V14.4415H168.287V20.2377C168.287 20.5463 168.355 20.7864 168.491 20.9579C168.628 21.1294 168.832 21.2323 169.105 21.2323C169.378 21.2323 169.378 21.2323 169.48 21.198C169.582 21.198 169.65 21.1294 169.753 21.0951C169.855 21.0608 169.889 21.0265 169.957 20.9922C170.025 20.9579 170.094 20.9579 170.128 20.9579C170.162 20.9579 170.298 20.9579 170.332 21.0265C170.4 21.0608 170.435 21.1294 170.503 21.2323L171.389 22.6384C170.98 22.9471 170.537 23.2214 170.025 23.3586C169.514 23.4958 168.969 23.5987 168.423 23.5987L168.491 23.4615Z" fill="#142A66"/>
<path d="M184.786 12.0068C185.605 12.0068 186.355 12.144 187.036 12.4184C187.718 12.6928 188.298 13.07 188.775 13.5502C189.252 14.0303 189.627 14.6477 189.9 15.3336C190.173 16.0195 190.309 16.8426 190.309 17.7001C190.309 18.5575 190.173 19.3806 189.9 20.1008C189.627 20.821 189.252 21.4041 188.775 21.9185C188.298 22.3987 187.718 22.8102 187.036 23.0503C186.355 23.3247 185.605 23.4619 184.786 23.4619C183.968 23.4619 183.184 23.3247 182.502 23.0503C181.821 22.7759 181.241 22.3987 180.764 21.9185C180.287 21.4384 179.912 20.821 179.639 20.1008C179.366 19.3806 179.23 18.5918 179.23 17.7001C179.23 16.8083 179.366 16.0195 179.639 15.3336C179.912 14.6477 180.287 14.0303 180.764 13.5502C181.241 13.07 181.821 12.6928 182.502 12.4184C183.184 12.144 183.934 12.0068 184.786 12.0068ZM184.786 21.1983C185.639 21.1983 186.252 20.9239 186.661 20.3066C187.07 19.7236 187.275 18.8661 187.275 17.7001C187.275 16.534 187.07 15.6766 186.661 15.0935C186.252 14.5105 185.639 14.2018 184.786 14.2018C183.934 14.2018 183.286 14.4762 182.877 15.0935C182.468 15.6766 182.264 16.534 182.264 17.7001C182.264 18.8661 182.468 19.7236 182.877 20.3066C183.286 20.8896 183.9 21.1983 184.786 21.1983Z" fill="#142A66"/>
<path d="M194.911 14.0295C195.252 13.4121 195.661 12.8977 196.104 12.5204C196.547 12.1432 197.093 11.9717 197.706 11.9717C198.32 11.9717 198.627 12.0746 198.934 12.3146L198.729 14.5096C198.729 14.6468 198.627 14.7497 198.559 14.8183C198.49 14.8869 198.388 14.8869 198.252 14.8869C198.115 14.8869 197.979 14.8869 197.775 14.8526C197.57 14.8526 197.365 14.8183 197.161 14.8183C196.888 14.8183 196.65 14.8526 196.445 14.9212C196.241 14.9898 196.036 15.0927 195.866 15.2641C195.695 15.4013 195.559 15.5728 195.422 15.7786C195.286 15.9844 195.15 16.2244 195.047 16.4988V23.2895H192.082V12.2118H193.82C194.127 12.2118 194.331 12.2803 194.434 12.3832C194.536 12.4861 194.638 12.6919 194.672 12.932L194.843 14.0295H194.911Z" fill="#142A66"/>
<path d="M202.956 13.4815C203.195 13.2757 203.399 13.0699 203.638 12.8984C203.877 12.7269 204.115 12.5555 204.388 12.4526C204.661 12.3497 204.933 12.2125 205.24 12.1439C205.547 12.0753 205.888 12.041 206.263 12.041C206.877 12.041 207.388 12.1439 207.865 12.3497C208.342 12.5555 208.717 12.8641 209.024 13.2071C209.331 13.5844 209.57 14.0302 209.74 14.5447C209.911 15.0591 209.979 15.6421 209.979 16.2595V23.2903H207.047V16.2595C207.047 15.6421 206.911 15.162 206.638 14.819C206.365 14.4761 205.922 14.3046 205.377 14.3046C204.831 14.3046 204.593 14.4075 204.218 14.579C203.843 14.7504 203.502 14.9905 203.195 15.3335V23.2903H200.229V12.2125H202.036C202.411 12.2125 202.649 12.384 202.786 12.7269L202.956 13.5158V13.4815Z" fill="#142A66"/>
<path d="M214.717 18.18C214.82 19.2089 215.092 19.9634 215.604 20.4778C216.115 20.958 216.729 21.1981 217.547 21.1981C218.365 21.1981 218.297 21.1638 218.604 21.0609C218.91 20.958 219.149 20.8551 219.388 20.7522C219.626 20.6493 219.797 20.5121 220.001 20.4435C220.172 20.3407 220.376 20.3064 220.547 20.3064C220.717 20.3064 220.956 20.375 221.092 20.5807L221.944 21.6439C221.638 22.0212 221.297 22.2956 220.922 22.5699C220.547 22.81 220.138 22.9815 219.729 23.153C219.319 23.3245 218.91 23.393 218.501 23.4273C218.092 23.4959 217.683 23.4959 217.308 23.4959C216.524 23.4959 215.808 23.3587 215.16 23.1187C214.479 22.8786 213.899 22.5013 213.422 21.9869C212.911 21.4724 212.536 20.8551 212.263 20.1349C211.99 19.4146 211.854 18.5229 211.854 17.5626C211.854 16.6023 211.99 16.0879 212.229 15.4363C212.467 14.7503 212.842 14.2016 213.286 13.6871C213.729 13.1727 214.308 12.7954 214.99 12.521C215.672 12.2467 216.388 12.0752 217.24 12.0752C218.092 12.0752 218.604 12.1781 219.183 12.4182C219.763 12.6582 220.274 12.9669 220.717 13.4128C221.16 13.8586 221.467 14.3731 221.74 14.9904C222.013 15.6077 222.081 16.328 222.081 17.1511C222.081 17.9742 222.081 17.5626 222.081 17.6998C222.081 17.837 222.013 17.9742 221.978 18.0428C221.944 18.1114 221.876 18.18 221.774 18.2143C221.706 18.2143 221.569 18.2486 221.433 18.2486H214.82L214.717 18.18ZM219.354 16.4309C219.354 16.1222 219.319 15.8135 219.217 15.5391C219.149 15.2648 219.013 15.0247 218.842 14.7846C218.672 14.5788 218.433 14.4074 218.16 14.2702C217.888 14.133 217.547 14.0987 217.172 14.0987C216.456 14.0987 215.91 14.3045 215.501 14.716C215.092 15.1276 214.854 15.6763 214.717 16.4309H219.319H219.354Z" fill="#142A66"/>
<path d="M233.706 12.1779L227.774 26.2394C227.672 26.4452 227.569 26.5824 227.433 26.6853C227.297 26.7882 227.092 26.8225 226.819 26.8225H224.638L226.717 22.3296L222.285 12.1436H224.876C225.115 12.1436 225.285 12.2121 225.422 12.315C225.558 12.4179 225.66 12.5551 225.694 12.6923L227.808 18.0083C227.876 18.214 227.944 18.4198 228.012 18.6256C228.081 18.8314 228.115 19.0372 228.183 19.2429C228.319 18.8314 228.456 18.3855 228.626 17.974L230.569 12.6923C230.637 12.5208 230.74 12.4179 230.876 12.315C231.012 12.2121 231.183 12.1779 231.353 12.1779H233.706Z" fill="#142A66"/>
<path d="M28.8805 40.4727H52.2707C53.2653 40.4727 54.0884 41.2958 54.0884 42.2904C54.0884 43.285 53.2653 44.1081 52.2707 44.1081H28.8805C27.8859 44.1081 27.0627 43.285 27.0627 42.2904C27.0627 41.2958 27.8859 40.4727 28.8805 40.4727Z" fill="#142A66"/>
<path d="M49.8013 36.6318H31.6242C30.9234 36.6318 30.3552 37.2 30.3552 37.9008V37.9351C30.3552 38.6359 30.9234 39.2041 31.6242 39.2041H49.8013C50.5022 39.2041 51.0703 38.6359 51.0703 37.9351V37.9008C51.0703 37.2 50.5022 36.6318 49.8013 36.6318Z" fill="#08387C"/>
<path fill-rule="evenodd" clip-rule="evenodd" d="M9.02278 44.9658H21.6782C22.9129 44.9658 23.8732 43.9712 23.8732 42.7708V38.0036C23.8732 36.7689 22.8786 35.8086 21.6439 35.8086H12.9669C11.8694 35.8086 11.4235 36.7689 10.6347 37.935L7.17077 43.0109C6.07328 44.6571 7.78811 45.0001 9.02278 45.0001V44.9658Z" fill="#142A66"/>
<path fill-rule="evenodd" clip-rule="evenodd" d="M9.02278 16.7744H21.6782C22.9129 16.7744 23.8732 17.769 23.8732 19.0037V23.7709C23.8732 25.0056 22.8786 25.9659 21.6439 25.9659H12.9669C11.8694 25.9659 11.4235 25.0056 10.6347 23.8395L7.17077 18.7636C6.07328 17.1174 7.78811 16.7744 9.02278 16.7744Z" fill="#005FA9"/>
<path fill-rule="evenodd" clip-rule="evenodd" d="M4.39284 19.8946L0.345849 27.9886C-0.202895 29.086 0.277256 30.9038 1.51193 30.9038H7.78819C9.33153 30.9038 9.33153 30.9038 9.84598 29.772L11.2521 26.8911C11.7323 25.8965 11.1492 25.1762 10.3261 24.0102L6.93078 19.0029C5.83329 17.3566 4.94158 18.8314 4.39284 19.9289V19.8946Z" fill="#006AB3"/>
<path fill-rule="evenodd" clip-rule="evenodd" d="M4.28995 41.8104L0.345849 34.1623C-0.202895 33.0648 0.277256 31.2471 1.51193 31.2471H7.78819C9.33154 31.2471 9.22864 31.3157 9.84598 32.3789L11.2521 34.7796C11.8009 35.7399 11.1493 36.4944 10.3261 37.6605L6.82789 42.7021C5.6961 44.314 4.83869 42.8736 4.28995 41.7761V41.8104Z" fill="#08387C"/>
<path fill-rule="evenodd" clip-rule="evenodd" d="M32.6435 10.601L41.5069 19.1408C41.95 19.5524 41.95 20.2383 41.5069 20.6842L38.5411 23.8737C38.132 24.3196 37.4502 24.3196 37.007 23.8737L28.2118 15.231C27.8027 14.8195 27.7686 14.1335 28.2118 13.6877L31.1095 10.601C31.5185 10.1551 32.2003 10.1551 32.6435 10.601Z" fill="#005CA2"/>
<path fill-rule="evenodd" clip-rule="evenodd" d="M32.6435 10.601L41.5069 19.1408C41.95 19.5524 41.95 20.2383 41.5069 20.6842L38.5411 23.8737C38.132 24.3196 37.4502 24.3196 37.007 23.8737L28.2118 15.231C27.8027 14.8195 27.7686 14.1335 28.2118 13.6877L31.1095 10.601C31.5185 10.1551 32.2003 10.1551 32.6435 10.601Z" fill="#005CA2"/>
<path fill-rule="evenodd" clip-rule="evenodd" d="M34.2455 8.54238L43.4497 17.5281C43.7906 17.8367 43.7906 18.3855 43.4497 18.7284C43.1429 19.0714 42.5975 19.0714 42.2566 18.7284L33.0523 9.74276C32.7114 9.43409 32.7114 8.88535 33.0523 8.54238C33.3591 8.19941 33.9046 8.19941 34.2455 8.54238Z" fill="#005CA2"/>
<path fill-rule="evenodd" clip-rule="evenodd" d="M32.6435 10.601L41.5069 19.1408C41.95 19.5524 41.95 20.2383 41.5069 20.6842L38.5411 23.8737C38.132 24.3196 37.4502 24.3196 37.007 23.8737L28.2118 15.231C27.8027 14.8195 27.7686 14.1335 28.2118 13.6877L31.1095 10.601C31.5185 10.1551 32.2003 10.1551 32.6435 10.601Z" fill="#005CA2"/>
<path fill-rule="evenodd" clip-rule="evenodd" d="M34.2455 8.54238L43.4497 17.5281C43.7906 17.8367 43.7906 18.3855 43.4497 18.7284C43.1429 19.0714 42.5975 19.0714 42.2566 18.7284L33.0523 9.74276C32.7114 9.43409 32.7114 8.88535 33.0523 8.54238C33.3591 8.19941 33.9046 8.19941 34.2455 8.54238Z" fill="#005CA2"/>
<path fill-rule="evenodd" clip-rule="evenodd" d="M32.6435 10.601L41.5069 19.1408C41.95 19.5524 41.95 20.2383 41.5069 20.6842L38.5411 23.8737C38.132 24.3196 37.4502 24.3196 37.007 23.8737L28.2118 15.231C27.8027 14.8195 27.7686 14.1335 28.2118 13.6877L31.1095 10.601C31.5185 10.1551 32.2003 10.1551 32.6435 10.601Z" fill="#005CA2"/>
<path fill-rule="evenodd" clip-rule="evenodd" d="M34.2455 8.54238L43.4497 17.5281C43.7906 17.8367 43.7906 18.3855 43.4497 18.7284C43.1429 19.0714 42.5975 19.0714 42.2566 18.7284L33.0523 9.74276C32.7114 9.43409 32.7114 8.88535 33.0523 8.54238C33.3591 8.19941 33.9046 8.19941 34.2455 8.54238Z" fill="#005CA2"/>
<path fill-rule="evenodd" clip-rule="evenodd" d="M33.2229 6.69078C32.9842 6.485 32.6433 6.5193 32.4388 6.75938L31.3479 8.02835C31.1434 8.26842 31.1775 8.61139 31.4161 8.81717C31.6547 9.02295 31.9956 8.98865 32.2002 8.74857L33.2911 7.4796C33.4956 7.23953 33.4615 6.89656 33.2229 6.69078Z" fill="#005FA9"/>
<path fill-rule="evenodd" clip-rule="evenodd" d="M32.6435 10.601L41.5069 19.1408C41.95 19.5524 41.95 20.2383 41.5069 20.6842L38.5411 23.8737C38.132 24.3196 37.4502 24.3196 37.007 23.8737L28.2118 15.231C27.8027 14.8195 27.7686 14.1335 28.2118 13.6877L31.1095 10.601C31.5185 10.1551 32.2003 10.1551 32.6435 10.601Z" fill="#005CA2"/>
<path fill-rule="evenodd" clip-rule="evenodd" d="M34.2455 8.54238L43.4497 17.5281C43.7906 17.8367 43.7906 18.3855 43.4497 18.7284C43.1429 19.0714 42.5975 19.0714 42.2566 18.7284L33.0523 9.74276C32.7114 9.43409 32.7114 8.88535 33.0523 8.54238C33.3591 8.19941 33.9046 8.19941 34.2455 8.54238Z" fill="#005CA2"/>
<path fill-rule="evenodd" clip-rule="evenodd" d="M33.2229 6.69078C32.9842 6.485 32.6433 6.5193 32.4388 6.75938L31.3479 8.02835C31.1434 8.26842 31.1775 8.61139 31.4161 8.81717C31.6547 9.02295 31.9956 8.98865 32.2002 8.74857L33.2911 7.4796C33.4956 7.23953 33.4615 6.89656 33.2229 6.69078Z" fill="#005FA9"/>
<path fill-rule="evenodd" clip-rule="evenodd" d="M32.6435 10.601L41.5069 19.1408C41.95 19.5524 41.95 20.2383 41.5069 20.6842L38.5411 23.8737C38.132 24.3196 37.4502 24.3196 37.007 23.8737L28.2118 15.231C27.8027 14.8195 27.7686 14.1335 28.2118 13.6877L31.1095 10.601C31.5185 10.1551 32.2003 10.1551 32.6435 10.601Z" fill="#005CA2"/>
<path fill-rule="evenodd" clip-rule="evenodd" d="M34.2455 8.54238L43.4497 17.5281C43.7906 17.8367 43.7906 18.3855 43.4497 18.7284C43.1429 19.0714 42.5975 19.0714 42.2566 18.7284L33.0523 9.74276C32.7114 9.43409 32.7114 8.88535 33.0523 8.54238C33.3591 8.19941 33.9046 8.19941 34.2455 8.54238Z" fill="#005CA2"/>
<path fill-rule="evenodd" clip-rule="evenodd" d="M33.2229 6.69078C32.9842 6.485 32.6433 6.5193 32.4388 6.75938L31.3479 8.02835C31.1434 8.26842 31.1775 8.61139 31.4161 8.81717C31.6547 9.02295 31.9956 8.98865 32.2002 8.74857L33.2911 7.4796C33.4956 7.23953 33.4615 6.89656 33.2229 6.69078Z" fill="#005FA9"/>
<path fill-rule="evenodd" clip-rule="evenodd" d="M31.0753 8.98884C30.8707 8.78306 30.5298 8.81736 30.3253 9.02314L26.3709 13.173C26.1663 13.4131 26.2004 13.7561 26.4391 13.9618C26.6436 14.1676 27.0186 14.1333 27.2231 13.8932L31.1776 9.74336C31.3821 9.53758 31.348 9.19462 31.1094 8.98884H31.0753Z" fill="#005FA9"/>
<path fill-rule="evenodd" clip-rule="evenodd" d="M32.6435 10.601L41.5069 19.1408C41.95 19.5524 41.95 20.2383 41.5069 20.6842L38.5411 23.8737C38.132 24.3196 37.4502 24.3196 37.007 23.8737L28.2118 15.231C27.8027 14.8195 27.7686 14.1335 28.2118 13.6877L31.1095 10.601C31.5185 10.1551 32.2003 10.1551 32.6435 10.601Z" fill="#005CA2"/>
<path fill-rule="evenodd" clip-rule="evenodd" d="M34.2455 8.54238L43.4497 17.5281C43.7906 17.8367 43.7906 18.3855 43.4497 18.7284C43.1429 19.0714 42.5975 19.0714 42.2566 18.7284L33.0523 9.74276C32.7114 9.43409 32.7114 8.88535 33.0523 8.54238C33.3591 8.19941 33.9046 8.19941 34.2455 8.54238Z" fill="#005CA2"/>
<path fill-rule="evenodd" clip-rule="evenodd" d="M33.2229 6.69078C32.9842 6.485 32.6433 6.5193 32.4388 6.75938L31.3479 8.02835C31.1434 8.26842 31.1775 8.61139 31.4161 8.81717C31.6547 9.02295 31.9956 8.98865 32.2002 8.74857L33.2911 7.4796C33.4956 7.23953 33.4615 6.89656 33.2229 6.69078Z" fill="#005FA9"/>
<path fill-rule="evenodd" clip-rule="evenodd" d="M31.0753 8.98884C30.8707 8.78306 30.5298 8.81736 30.3253 9.02314L26.3709 13.173C26.1663 13.4131 26.2004 13.7561 26.4391 13.9618C26.6436 14.1676 27.0186 14.1333 27.2231 13.8932L31.1776 9.74336C31.3821 9.53758 31.348 9.19462 31.1094 8.98884H31.0753Z" fill="#005FA9"/>
<path fill-rule="evenodd" clip-rule="evenodd" d="M4.92822 3.67271C4.92822 3.67271 12.1894 -1.23169 19.621 2.06077C27.0526 5.35324 28.2457 8.02836 30.1548 7.06806L30.3593 6.96517C31.6206 6.14206 28.0412 1.95788 20.2346 0.448836C12.428 -1.06021 6.59863 1.54632 4.92822 3.67271Z" fill="#DCE7F6"/>
<path fill-rule="evenodd" clip-rule="evenodd" d="M32.6435 10.601L41.5069 19.1408C41.95 19.5524 41.95 20.2383 41.5069 20.6842L38.5411 23.8737C38.132 24.3196 37.4502 24.3196 37.007 23.8737L28.2118 15.231C27.8027 14.8195 27.7686 14.1335 28.2118 13.6877L31.1095 10.601C31.5185 10.1551 32.2003 10.1551 32.6435 10.601Z" fill="#005CA2"/>
<path fill-rule="evenodd" clip-rule="evenodd" d="M34.2455 8.54238L43.4497 17.5281C43.7906 17.8367 43.7906 18.3855 43.4497 18.7284C43.1429 19.0714 42.5975 19.0714 42.2566 18.7284L33.0523 9.74276C32.7114 9.43409 32.7114 8.88535 33.0523 8.54238C33.3591 8.19941 33.9046 8.19941 34.2455 8.54238Z" fill="#005CA2"/>
<path fill-rule="evenodd" clip-rule="evenodd" d="M33.2229 6.69078C32.9842 6.485 32.6433 6.5193 32.4388 6.75938L31.3479 8.02835C31.1434 8.26842 31.1775 8.61139 31.4161 8.81717C31.6547 9.02295 31.9956 8.98865 32.2002 8.74857L33.2911 7.4796C33.4956 7.23953 33.4615 6.89656 33.2229 6.69078Z" fill="#005FA9"/>
<path fill-rule="evenodd" clip-rule="evenodd" d="M31.0753 8.98884C30.8707 8.78306 30.5298 8.81736 30.3253 9.02314L26.3709 13.173C26.1663 13.4131 26.2004 13.7561 26.4391 13.9618C26.6436 14.1676 27.0186 14.1333 27.2231 13.8932L31.1776 9.74336C31.3821 9.53758 31.348 9.19462 31.1094 8.98884H31.0753Z" fill="#005FA9"/>
<path fill-rule="evenodd" clip-rule="evenodd" d="M4.92822 3.67271C4.92822 3.67271 12.1894 -1.23169 19.621 2.06077C27.0526 5.35324 28.2457 8.02836 30.1548 7.06806L30.3593 6.96517C31.6206 6.14206 28.0412 1.95788 20.2346 0.448836C12.428 -1.06021 6.59863 1.54632 4.92822 3.67271Z" fill="#DCE7F6"/>
<path fill-rule="evenodd" clip-rule="evenodd" d="M2.40552 6.21102C2.40552 6.21102 10.1098 1.37521 17.0983 4.59908C24.0867 7.82295 25.3139 11.2183 26.9162 9.91504C29.4047 7.89155 18.3255 2.95285 16.7915 2.64418C8.47352 1.03225 3.53048 5.04494 2.40552 6.21102Z" fill="#DCE7F6"/>
<path fill-rule="evenodd" clip-rule="evenodd" d="M32.6435 10.601L41.5069 19.1408C41.95 19.5524 41.95 20.2383 41.5069 20.6842L38.5411 23.8737C38.132 24.3196 37.4502 24.3196 37.007 23.8737L28.2118 15.231C27.8027 14.8195 27.7686 14.1335 28.2118 13.6877L31.1095 10.601C31.5185 10.1551 32.2003 10.1551 32.6435 10.601Z" fill="#005CA2"/>
<path fill-rule="evenodd" clip-rule="evenodd" d="M34.2455 8.54238L43.4497 17.5281C43.7906 17.8367 43.7906 18.3855 43.4497 18.7284C43.1429 19.0714 42.5975 19.0714 42.2566 18.7284L33.0523 9.74276C32.7114 9.43409 32.7114 8.88535 33.0523 8.54238C33.3591 8.19941 33.9046 8.19941 34.2455 8.54238Z" fill="#005CA2"/>
<path fill-rule="evenodd" clip-rule="evenodd" d="M33.2229 6.69078C32.9842 6.485 32.6433 6.5193 32.4388 6.75938L31.3479 8.02835C31.1434 8.26842 31.1775 8.61139 31.4161 8.81717C31.6547 9.02295 31.9956 8.98865 32.2002 8.74857L33.2911 7.4796C33.4956 7.23953 33.4615 6.89656 33.2229 6.69078Z" fill="#005FA9"/>
<path fill-rule="evenodd" clip-rule="evenodd" d="M31.0753 8.98884C30.8707 8.78306 30.5298 8.81736 30.3253 9.02314L26.3709 13.173C26.1663 13.4131 26.2004 13.7561 26.4391 13.9618C26.6436 14.1676 27.0186 14.1333 27.2231 13.8932L31.1776 9.74336C31.3821 9.53758 31.348 9.19462 31.1094 8.98884H31.0753Z" fill="#005FA9"/>
<path fill-rule="evenodd" clip-rule="evenodd" d="M4.92822 3.67271C4.92822 3.67271 12.1894 -1.23169 19.621 2.06077C27.0526 5.35324 28.2457 8.02836 30.1548 7.06806L30.3593 6.96517C31.6206 6.14206 28.0412 1.95788 20.2346 0.448836C12.428 -1.06021 6.59863 1.54632 4.92822 3.67271Z" fill="#DCE7F6"/>
<path fill-rule="evenodd" clip-rule="evenodd" d="M2.40552 6.21102C2.40552 6.21102 10.1098 1.37521 17.0983 4.59908C24.0867 7.82295 25.3139 11.2183 26.9162 9.91504C29.4047 7.89155 18.3255 2.95285 16.7915 2.64418C8.47352 1.03225 3.53048 5.04494 2.40552 6.21102Z" fill="#DCE7F6"/>
<path fill-rule="evenodd" clip-rule="evenodd" d="M32.6435 10.601L41.5069 19.1408C41.95 19.5524 41.95 20.2383 41.5069 20.6842L38.5411 23.8737C38.132 24.3196 37.4502 24.3196 37.007 23.8737L28.2118 15.231C27.8027 14.8195 27.7686 14.1335 28.2118 13.6877L31.1095 10.601C31.5185 10.1551 32.2003 10.1551 32.6435 10.601Z" fill="#005CA2"/>
<path fill-rule="evenodd" clip-rule="evenodd" d="M34.2455 8.54238L43.4497 17.5281C43.7906 17.8367 43.7906 18.3855 43.4497 18.7284C43.1429 19.0714 42.5975 19.0714 42.2566 18.7284L33.0523 9.74276C32.7114 9.43409 32.7114 8.88535 33.0523 8.54238C33.3591 8.19941 33.9046 8.19941 34.2455 8.54238Z" fill="#005CA2"/>
<path fill-rule="evenodd" clip-rule="evenodd" d="M33.2229 6.69078C32.9842 6.485 32.6433 6.5193 32.4388 6.75938L31.3479 8.02835C31.1434 8.26842 31.1775 8.61139 31.4161 8.81717C31.6547 9.02295 31.9956 8.98865 32.2002 8.74857L33.2911 7.4796C33.4956 7.23953 33.4615 6.89656 33.2229 6.69078Z" fill="#005FA9"/>
<path fill-rule="evenodd" clip-rule="evenodd" d="M31.0753 8.98884C30.8707 8.78306 30.5298 8.81736 30.3253 9.02314L26.3709 13.173C26.1663 13.4131 26.2004 13.7561 26.4391 13.9618C26.6436 14.1676 27.0186 14.1333 27.2231 13.8932L31.1776 9.74336C31.3821 9.53758 31.348 9.19462 31.1094 8.98884H31.0753Z" fill="#005FA9"/>
<path fill-rule="evenodd" clip-rule="evenodd" d="M4.92822 3.67271C4.92822 3.67271 12.1894 -1.23169 19.621 2.06077C27.0526 5.35324 28.2457 8.02836 30.1548 7.06806L30.3593 6.96517C31.6206 6.14206 28.0412 1.95788 20.2346 0.448836C12.428 -1.06021 6.59863 1.54632 4.92822 3.67271Z" fill="#DCE7F6"/>
<path fill-rule="evenodd" clip-rule="evenodd" d="M2.40552 6.21102C2.40552 6.21102 10.1098 1.37521 17.0983 4.59908C24.0867 7.82295 25.3139 11.2183 26.9162 9.91504C29.4047 7.89155 18.3255 2.95285 16.7915 2.64418C8.47352 1.03225 3.53048 5.04494 2.40552 6.21102Z" fill="#DCE7F6"/>
<path fill-rule="evenodd" clip-rule="evenodd" d="M32.6435 10.601L41.5069 19.1408C41.95 19.5524 41.95 20.2383 41.5069 20.6842L38.5411 23.8737C38.132 24.3196 37.4502 24.3196 37.007 23.8737L28.2118 15.231C27.8027 14.8195 27.7686 14.1335 28.2118 13.6877L31.1095 10.601C31.5185 10.1551 32.2003 10.1551 32.6435 10.601Z" fill="#005CA2"/>
<path fill-rule="evenodd" clip-rule="evenodd" d="M34.2455 8.54238L43.4497 17.5281C43.7906 17.8367 43.7906 18.3855 43.4497 18.7284C43.1429 19.0714 42.5975 19.0714 42.2566 18.7284L33.0523 9.74276C32.7114 9.43409 32.7114 8.88535 33.0523 8.54238C33.3591 8.19941 33.9046 8.19941 34.2455 8.54238Z" fill="#005CA2"/>
<path fill-rule="evenodd" clip-rule="evenodd" d="M33.2229 6.69078C32.9842 6.485 32.6433 6.5193 32.4388 6.75938L31.3479 8.02835C31.1434 8.26842 31.1775 8.61139 31.4161 8.81717C31.6547 9.02295 31.9956 8.98865 32.2002 8.74857L33.2911 7.4796C33.4956 7.23953 33.4615 6.89656 33.2229 6.69078Z" fill="#005FA9"/>
<path fill-rule="evenodd" clip-rule="evenodd" d="M31.0753 8.98884C30.8707 8.78306 30.5298 8.81736 30.3253 9.02314L26.3709 13.173C26.1663 13.4131 26.2004 13.7561 26.4391 13.9618C26.6436 14.1676 27.0186 14.1333 27.2231 13.8932L31.1776 9.74336C31.3821 9.53758 31.348 9.19462 31.1094 8.98884H31.0753Z" fill="#005FA9"/>
<path fill-rule="evenodd" clip-rule="evenodd" d="M4.92822 3.67271C4.92822 3.67271 12.1894 -1.23169 19.621 2.06077C27.0526 5.35324 28.2457 8.02836 30.1548 7.06806L30.3593 6.96517C31.6206 6.14206 28.0412 1.95788 20.2346 0.448836C12.428 -1.06021 6.59863 1.54632 4.92822 3.67271Z" fill="#DCE7F6"/>
<path fill-rule="evenodd" clip-rule="evenodd" d="M2.40552 6.21102C2.40552 6.21102 10.1098 1.37521 17.0983 4.59908C24.0867 7.82295 25.3139 11.2183 26.9162 9.91504C29.4047 7.89155 18.3255 2.95285 16.7915 2.64418C8.47352 1.03225 3.53048 5.04494 2.40552 6.21102Z" fill="#DCE7F6"/>
<path fill-rule="evenodd" clip-rule="evenodd" d="M32.6435 10.601L41.5069 19.1408C41.95 19.5524 41.95 20.2383 41.5069 20.6842L38.5411 23.8737C38.132 24.3196 37.4502 24.3196 37.007 23.8737L28.2118 15.231C27.8027 14.8195 27.7686 14.1335 28.2118 13.6877L31.1095 10.601C31.5185 10.1551 32.2003 10.1551 32.6435 10.601Z" fill="#005CA2"/>
<path fill-rule="evenodd" clip-rule="evenodd" d="M34.2455 8.54238L43.4497 17.5281C43.7906 17.8367 43.7906 18.3855 43.4497 18.7284C43.1429 19.0714 42.5975 19.0714 42.2566 18.7284L33.0523 9.74276C32.7114 9.43409 32.7114 8.88535 33.0523 8.54238C33.3591 8.19941 33.9046 8.19941 34.2455 8.54238Z" fill="#005CA2"/>
<path fill-rule="evenodd" clip-rule="evenodd" d="M33.2229 6.69078C32.9842 6.485 32.6433 6.5193 32.4388 6.75938L31.3479 8.02835C31.1434 8.26842 31.1775 8.61139 31.4161 8.81717C31.6547 9.02295 31.9956 8.98865 32.2002 8.74857L33.2911 7.4796C33.4956 7.23953 33.4615 6.89656 33.2229 6.69078Z" fill="#005FA9"/>
<path fill-rule="evenodd" clip-rule="evenodd" d="M31.0753 8.98884C30.8707 8.78306 30.5298 8.81736 30.3253 9.02314L26.3709 13.173C26.1663 13.4131 26.2004 13.7561 26.4391 13.9618C26.6436 14.1676 27.0186 14.1333 27.2231 13.8932L31.1776 9.74336C31.3821 9.53758 31.348 9.19462 31.1094 8.98884H31.0753Z" fill="#005FA9"/>
<path fill-rule="evenodd" clip-rule="evenodd" d="M4.92822 3.67271C4.92822 3.67271 12.1894 -1.23169 19.621 2.06077C27.0526 5.35324 28.2457 8.02836 30.1548 7.06806L30.3593 6.96517C31.6206 6.14206 28.0412 1.95788 20.2346 0.448836C12.428 -1.06021 6.59863 1.54632 4.92822 3.67271Z" fill="#DCE7F6"/>
<path fill-rule="evenodd" clip-rule="evenodd" d="M2.40552 6.21102C2.40552 6.21102 10.1098 1.37521 17.0983 4.59908C24.0867 7.82295 25.3139 11.2183 26.9162 9.91504C29.4047 7.89155 18.3255 2.95285 16.7915 2.64418C8.47352 1.03225 3.53048 5.04494 2.40552 6.21102Z" fill="#DCE7F6"/>
<path fill-rule="evenodd" clip-rule="evenodd" d="M17.9166 32.0706L32.2344 18.4206C32.6435 18.009 33.2912 17.9061 33.5298 18.4206C33.8025 18.935 33.8025 19.3466 33.3934 19.7581L19.3484 33.6139C18.9393 34.0255 18.2916 33.9912 17.8825 33.6139C17.4735 33.2024 17.5076 32.5164 17.8825 32.1392L17.9166 32.0706Z" fill="#005796"/>
<path fill-rule="evenodd" clip-rule="evenodd" d="M32.6435 10.601L41.5069 19.1408C41.95 19.5524 41.95 20.2383 41.5069 20.6842L38.5411 23.8737C38.132 24.3196 37.4502 24.3196 37.007 23.8737L28.2118 15.231C27.8027 14.8195 27.7686 14.1335 28.2118 13.6877L31.1095 10.601C31.5185 10.1551 32.2003 10.1551 32.6435 10.601Z" fill="#005CA2"/>
<path fill-rule="evenodd" clip-rule="evenodd" d="M34.2455 8.54238L43.4497 17.5281C43.7906 17.8367 43.7906 18.3855 43.4497 18.7284C43.1429 19.0714 42.5975 19.0714 42.2566 18.7284L33.0523 9.74276C32.7114 9.43409 32.7114 8.88535 33.0523 8.54238C33.3591 8.19941 33.9046 8.19941 34.2455 8.54238Z" fill="#005CA2"/>
<path fill-rule="evenodd" clip-rule="evenodd" d="M45.2226 18.4545C44.984 18.2487 44.6431 18.283 44.4386 18.523L43.3477 19.792C43.1431 20.0321 43.1772 20.3751 43.4159 20.5808C43.6545 20.7866 43.9954 20.7523 44.1999 20.5122L45.2908 19.2433C45.4953 19.0032 45.4613 18.6602 45.2226 18.4545Z" fill="#006AB3"/>
<path fill-rule="evenodd" clip-rule="evenodd" d="M33.2229 6.69078C32.9842 6.485 32.6433 6.5193 32.4388 6.75938L31.3479 8.02835C31.1434 8.26842 31.1775 8.61139 31.4161 8.81717C31.6547 9.02295 31.9956 8.98865 32.2002 8.74857L33.2911 7.4796C33.4956 7.23953 33.4615 6.89656 33.2229 6.69078Z" fill="#005FA9"/>
<path fill-rule="evenodd" clip-rule="evenodd" d="M43.0748 20.7525C42.8703 20.5467 42.5294 20.581 42.3248 20.7868L38.3704 24.9367C38.1658 25.1768 38.1999 25.5197 38.4386 25.7255C38.6431 25.9313 39.0181 25.897 39.2226 25.6569L43.1771 21.4727C43.3816 21.2327 43.3475 20.924 43.1089 20.7182L43.0748 20.7525Z" fill="#006AB3"/>
<path fill-rule="evenodd" clip-rule="evenodd" d="M31.0753 8.98884C30.8707 8.78306 30.5298 8.81736 30.3253 9.02314L26.3709 13.173C26.1663 13.4131 26.2004 13.7561 26.4391 13.9618C26.6436 14.1676 27.0186 14.1333 27.2231 13.8932L31.1776 9.74336C31.3821 9.53758 31.348 9.19462 31.1094 8.98884H31.0753Z" fill="#005FA9"/>
<path fill-rule="evenodd" clip-rule="evenodd" d="M4.92822 3.67271C4.92822 3.67271 12.1894 -1.23169 19.621 2.06077C27.0526 5.35324 28.2457 8.02836 30.1548 7.06806L30.3593 6.96517C31.6206 6.14206 28.0412 1.95788 20.2346 0.448836C12.428 -1.06021 6.59863 1.54632 4.92822 3.67271Z" fill="#DCE7F6"/>
<path fill-rule="evenodd" clip-rule="evenodd" d="M2.40552 6.21102C2.40552 6.21102 10.1098 1.37521 17.0983 4.59908C24.0867 7.82295 25.3139 11.2183 26.9162 9.91504C29.4047 7.89155 18.3255 2.95285 16.7915 2.64418C8.47352 1.03225 3.53048 5.04494 2.40552 6.21102Z" fill="#DCE7F6"/>
<path fill-rule="evenodd" clip-rule="evenodd" d="M8.88246 44.9658H21.4275C22.6548 44.9658 23.6093 43.9712 23.6093 42.7708V38.0036C23.6093 36.7689 22.6207 35.8086 21.3935 35.8086H12.7687C11.6778 35.8086 11.2347 36.7689 10.4506 37.935L7.00752 43.0109C5.91664 44.6571 7.62114 45.0001 8.84838 45.0001L8.88246 44.9658Z" fill="#072F6A"/>
<path fill-rule="evenodd" clip-rule="evenodd" d="M8.88246 16.7744H21.4275C22.6548 16.7744 23.6093 17.769 23.6093 19.0037V23.7709C23.6093 25.0056 22.6207 25.9659 21.3935 25.9659H12.7687C11.6778 25.9659 11.2347 25.0056 10.4506 23.8395L7.00752 18.7636C5.91664 17.1174 7.62114 16.7744 8.84838 16.7744H8.88246Z" fill="#0D62A9"/>
<path fill-rule="evenodd" clip-rule="evenodd" d="M4.24625 19.8956L0.223644 27.9895C-0.321794 29.087 0.155464 30.9047 1.3827 30.9047H7.62115C9.1552 30.9047 9.1552 30.9047 9.66655 29.7729L11.0642 26.892C11.5415 25.8974 10.962 25.1772 10.1438 24.0111L6.76891 19.0038C5.67803 17.3576 4.79169 18.8324 4.24625 19.9298V19.8956Z" fill="#0F6EB8"/>
<path fill-rule="evenodd" clip-rule="evenodd" d="M4.14398 41.8104L0.223644 34.1623C-0.321794 33.0648 0.155464 31.2471 1.3827 31.2471H7.62115C9.1552 31.2471 9.05293 31.3157 9.66655 32.3789L11.0642 34.7796C11.6097 35.7399 10.962 36.4944 10.1438 37.6605L6.66664 42.7021C5.54167 44.314 4.68942 42.8736 4.14398 41.7761V41.8104Z" fill="#0F3E7F"/>
</svg>
