<svg width="249" height="208" viewBox="0 0 249 208" fill="none" xmlns="http://www.w3.org/2000/svg">
<path d="M132.899 186.243H240.534C245.111 186.243 248.898 190.031 248.898 194.608C248.898 199.185 245.111 202.972 240.534 202.972H132.899C128.322 202.972 124.534 199.185 124.534 194.608C124.534 190.031 128.322 186.243 132.899 186.243Z" fill="#142A66"/>
<path d="M229.173 168.569H145.527C142.302 168.569 139.688 171.184 139.688 174.409V174.567C139.688 177.792 142.302 180.406 145.527 180.406H229.173C232.398 180.406 235.012 177.792 235.012 174.567V174.409C235.012 171.184 232.398 168.569 229.173 168.569Z" fill="#08387C"/>
<path fill-rule="evenodd" clip-rule="evenodd" d="M41.5193 206.92H99.7559C105.437 206.92 109.857 202.343 109.857 196.819V174.882C109.857 169.2 105.28 164.781 99.5981 164.781H59.6689C54.6186 164.781 52.5669 169.2 48.937 174.566L32.9969 197.924C27.9466 205.499 35.8377 207.078 41.5193 207.078V206.92Z" fill="#142A66"/>
<path fill-rule="evenodd" clip-rule="evenodd" d="M41.5193 77.1914H99.7559C105.437 77.1914 109.857 81.7683 109.857 87.4499V109.387C109.857 115.069 105.28 119.488 99.5981 119.488H59.6689C54.6186 119.488 52.5669 115.069 48.937 109.703L32.9969 86.3451C27.9466 78.7696 35.8377 77.1914 41.5193 77.1914Z" fill="#005FA9"/>
<path fill-rule="evenodd" clip-rule="evenodd" d="M20.2161 91.5491L1.593 128.795C-0.932161 133.846 1.27735 142.21 6.95897 142.21H35.8405C42.9425 142.21 42.9425 142.21 45.3098 137.002L51.7806 123.745C53.9901 119.168 51.3071 115.854 47.5194 110.488L31.8949 87.4457C26.8446 79.8702 22.7412 86.6566 20.2161 91.7069V91.5491Z" fill="#006AB3"/>
<path fill-rule="evenodd" clip-rule="evenodd" d="M19.7426 192.399L1.593 157.205C-0.932161 152.155 1.27735 143.79 6.95897 143.79H35.8405C42.9425 143.79 42.469 144.106 45.3099 148.998L51.7806 160.046C54.3057 164.465 51.3071 167.937 47.5194 173.303L31.4215 196.503C26.2133 203.92 22.2678 197.292 19.7426 192.242V192.399Z" fill="#08387C"/>
<path fill-rule="evenodd" clip-rule="evenodd" d="M150.213 48.7829L191 88.0807C193.039 89.9746 193.039 93.1311 191 95.1827L177.352 109.86C175.47 111.912 172.332 111.912 170.293 109.86L129.82 70.089C127.937 68.1951 127.781 65.0386 129.82 62.9869L143.154 48.7829C145.036 46.7312 148.174 46.7312 150.213 48.7829Z" fill="#005CA2"/>
<path fill-rule="evenodd" clip-rule="evenodd" d="M150.213 48.7829L191 88.0807C193.039 89.9746 193.039 93.1311 191 95.1827L177.352 109.86C175.47 111.912 172.332 111.912 170.293 109.86L129.82 70.089C127.937 68.1951 127.781 65.0386 129.82 62.9869L143.154 48.7829C145.036 46.7312 148.174 46.7312 150.213 48.7829Z" fill="#005CA2"/>
<path fill-rule="evenodd" clip-rule="evenodd" d="M157.589 39.3096L199.944 80.6592C201.513 82.0796 201.513 84.6047 199.944 86.1829C198.532 87.7612 196.023 87.7612 194.454 86.1829L152.098 44.8334C150.53 43.413 150.53 40.8879 152.098 39.3096C153.51 37.7314 156.02 37.7314 157.589 39.3096Z" fill="#005CA2"/>
<path fill-rule="evenodd" clip-rule="evenodd" d="M150.213 48.7829L191 88.0807C193.039 89.9746 193.039 93.1311 191 95.1827L177.352 109.86C175.47 111.912 172.332 111.912 170.293 109.86L129.82 70.089C127.937 68.1951 127.781 65.0386 129.82 62.9869L143.154 48.7829C145.036 46.7312 148.174 46.7312 150.213 48.7829Z" fill="#005CA2"/>
<path fill-rule="evenodd" clip-rule="evenodd" d="M157.589 39.3096L199.944 80.6592C201.513 82.0796 201.513 84.6047 199.944 86.1829C198.532 87.7612 196.023 87.7612 194.454 86.1829L152.098 44.8334C150.53 43.413 150.53 40.8879 152.098 39.3096C153.51 37.7314 156.02 37.7314 157.589 39.3096Z" fill="#005CA2"/>
<path fill-rule="evenodd" clip-rule="evenodd" d="M150.213 48.7829L191 88.0807C193.039 89.9746 193.039 93.1311 191 95.1827L177.352 109.86C175.47 111.912 172.332 111.912 170.293 109.86L129.82 70.089C127.937 68.1951 127.781 65.0386 129.82 62.9869L143.154 48.7829C145.036 46.7312 148.174 46.7312 150.213 48.7829Z" fill="#005CA2"/>
<path fill-rule="evenodd" clip-rule="evenodd" d="M157.589 39.3096L199.944 80.6592C201.513 82.0796 201.513 84.6047 199.944 86.1829C198.532 87.7612 196.023 87.7612 194.454 86.1829L152.098 44.8334C150.53 43.413 150.53 40.8879 152.098 39.3096C153.51 37.7314 156.02 37.7314 157.589 39.3096Z" fill="#005CA2"/>
<path fill-rule="evenodd" clip-rule="evenodd" d="M152.879 30.7888C151.781 29.8418 150.212 29.9997 149.271 31.1044L144.251 36.9438C143.31 38.0486 143.466 39.6268 144.565 40.5738C145.663 41.5207 147.231 41.3629 148.173 40.2581L153.193 34.4187C154.134 33.3139 153.977 31.7357 152.879 30.7888Z" fill="#005FA9"/>
<path fill-rule="evenodd" clip-rule="evenodd" d="M150.213 48.7829L191 88.0807C193.039 89.9746 193.039 93.1311 191 95.1827L177.352 109.86C175.47 111.912 172.332 111.912 170.293 109.86L129.82 70.089C127.937 68.1951 127.781 65.0386 129.82 62.9869L143.154 48.7829C145.036 46.7312 148.174 46.7312 150.213 48.7829Z" fill="#005CA2"/>
<path fill-rule="evenodd" clip-rule="evenodd" d="M157.589 39.3096L199.944 80.6592C201.513 82.0796 201.513 84.6047 199.944 86.1829C198.532 87.7612 196.023 87.7612 194.454 86.1829L152.098 44.8334C150.53 43.413 150.53 40.8879 152.098 39.3096C153.51 37.7314 156.02 37.7314 157.589 39.3096Z" fill="#005CA2"/>
<path fill-rule="evenodd" clip-rule="evenodd" d="M152.879 30.7888C151.781 29.8418 150.212 29.9997 149.271 31.1044L144.251 36.9438C143.31 38.0486 143.466 39.6268 144.565 40.5738C145.663 41.5207 147.231 41.3629 148.173 40.2581L153.193 34.4187C154.134 33.3139 153.977 31.7357 152.879 30.7888Z" fill="#005FA9"/>
<path fill-rule="evenodd" clip-rule="evenodd" d="M150.213 48.7829L191 88.0807C193.039 89.9746 193.039 93.1311 191 95.1827L177.352 109.86C175.47 111.912 172.332 111.912 170.293 109.86L129.82 70.089C127.937 68.1951 127.781 65.0386 129.82 62.9869L143.154 48.7829C145.036 46.7312 148.174 46.7312 150.213 48.7829Z" fill="#005CA2"/>
<path fill-rule="evenodd" clip-rule="evenodd" d="M157.589 39.3096L199.944 80.6592C201.513 82.0796 201.513 84.6047 199.944 86.1829C198.532 87.7612 196.023 87.7612 194.454 86.1829L152.098 44.8334C150.53 43.413 150.53 40.8879 152.098 39.3096C153.51 37.7314 156.02 37.7314 157.589 39.3096Z" fill="#005CA2"/>
<path fill-rule="evenodd" clip-rule="evenodd" d="M152.879 30.7888C151.781 29.8418 150.212 29.9997 149.271 31.1044L144.251 36.9438C143.31 38.0486 143.466 39.6268 144.565 40.5738C145.663 41.5207 147.231 41.3629 148.173 40.2581L153.193 34.4187C154.134 33.3139 153.977 31.7357 152.879 30.7888Z" fill="#005FA9"/>
<path fill-rule="evenodd" clip-rule="evenodd" d="M142.999 41.3637C142.058 40.4168 140.489 40.5746 139.548 41.5216L121.35 60.6181C120.409 61.7229 120.566 63.3011 121.664 64.248C122.605 65.195 124.331 65.0371 125.272 63.9324L143.469 44.8358C144.411 43.8889 144.254 42.3107 143.156 41.3637H142.999Z" fill="#005FA9"/>
<path fill-rule="evenodd" clip-rule="evenodd" d="M150.213 48.7829L191 88.0807C193.039 89.9746 193.039 93.1311 191 95.1827L177.352 109.86C175.47 111.912 172.332 111.912 170.293 109.86L129.82 70.089C127.937 68.1951 127.781 65.0386 129.82 62.9869L143.154 48.7829C145.036 46.7312 148.174 46.7312 150.213 48.7829Z" fill="#005CA2"/>
<path fill-rule="evenodd" clip-rule="evenodd" d="M157.589 39.3096L199.944 80.6592C201.513 82.0796 201.513 84.6047 199.944 86.1829C198.532 87.7612 196.023 87.7612 194.454 86.1829L152.098 44.8334C150.53 43.413 150.53 40.8879 152.098 39.3096C153.51 37.7314 156.02 37.7314 157.589 39.3096Z" fill="#005CA2"/>
<path fill-rule="evenodd" clip-rule="evenodd" d="M152.879 30.7888C151.781 29.8418 150.212 29.9997 149.271 31.1044L144.251 36.9438C143.31 38.0486 143.466 39.6268 144.565 40.5738C145.663 41.5207 147.231 41.3629 148.173 40.2581L153.193 34.4187C154.134 33.3139 153.977 31.7357 152.879 30.7888Z" fill="#005FA9"/>
<path fill-rule="evenodd" clip-rule="evenodd" d="M142.999 41.3637C142.058 40.4168 140.489 40.5746 139.548 41.5216L121.35 60.6181C120.409 61.7229 120.566 63.3011 121.664 64.248C122.605 65.195 124.331 65.0371 125.272 63.9324L143.469 44.8358C144.411 43.8889 144.254 42.3107 143.156 41.3637H142.999Z" fill="#005FA9"/>
<path fill-rule="evenodd" clip-rule="evenodd" d="M22.6758 16.9007C22.6758 16.9007 56.0895 -5.66789 90.2875 9.48308C124.486 24.634 129.976 36.9442 138.761 32.5252L139.702 32.0517C145.506 28.264 129.035 9.00961 93.1112 2.06541C57.1876 -4.87878 30.3625 7.11574 22.6758 16.9007Z" fill="#DCE7F6"/>
<path fill-rule="evenodd" clip-rule="evenodd" d="M150.213 48.7829L191 88.0807C193.039 89.9746 193.039 93.1311 191 95.1827L177.352 109.86C175.47 111.912 172.332 111.912 170.293 109.86L129.82 70.089C127.937 68.1951 127.781 65.0386 129.82 62.9869L143.154 48.7829C145.036 46.7312 148.174 46.7312 150.213 48.7829Z" fill="#005CA2"/>
<path fill-rule="evenodd" clip-rule="evenodd" d="M157.589 39.3096L199.944 80.6592C201.513 82.0796 201.513 84.6047 199.944 86.1829C198.532 87.7612 196.023 87.7612 194.454 86.1829L152.098 44.8334C150.53 43.413 150.53 40.8879 152.098 39.3096C153.51 37.7314 156.02 37.7314 157.589 39.3096Z" fill="#005CA2"/>
<path fill-rule="evenodd" clip-rule="evenodd" d="M152.879 30.7888C151.781 29.8418 150.212 29.9997 149.271 31.1044L144.251 36.9438C143.31 38.0486 143.466 39.6268 144.565 40.5738C145.663 41.5207 147.231 41.3629 148.173 40.2581L153.193 34.4187C154.134 33.3139 153.977 31.7357 152.879 30.7888Z" fill="#005FA9"/>
<path fill-rule="evenodd" clip-rule="evenodd" d="M142.999 41.3637C142.058 40.4168 140.489 40.5746 139.548 41.5216L121.35 60.6181C120.409 61.7229 120.566 63.3011 121.664 64.248C122.605 65.195 124.331 65.0371 125.272 63.9324L143.469 44.8358C144.411 43.8889 144.254 42.3107 143.156 41.3637H142.999Z" fill="#005FA9"/>
<path fill-rule="evenodd" clip-rule="evenodd" d="M22.6758 16.9007C22.6758 16.9007 56.0895 -5.66789 90.2875 9.48308C124.486 24.634 129.976 36.9442 138.761 32.5252L139.702 32.0517C145.506 28.264 129.035 9.00961 93.1112 2.06541C57.1876 -4.87878 30.3625 7.11574 22.6758 16.9007Z" fill="#DCE7F6"/>
<path fill-rule="evenodd" clip-rule="evenodd" d="M11.0684 28.5811C11.0684 28.5811 46.5214 6.32815 78.6801 21.1635C110.839 35.9988 116.486 51.6232 123.859 45.626C135.311 36.3144 84.3275 13.588 77.2683 12.1676C38.9915 4.74993 16.2451 23.2152 11.0684 28.5811Z" fill="#DCE7F6"/>
<path fill-rule="evenodd" clip-rule="evenodd" d="M150.213 48.7829L191 88.0807C193.039 89.9746 193.039 93.1311 191 95.1827L177.352 109.86C175.47 111.912 172.332 111.912 170.293 109.86L129.82 70.089C127.937 68.1951 127.781 65.0386 129.82 62.9869L143.154 48.7829C145.036 46.7312 148.174 46.7312 150.213 48.7829Z" fill="#005CA2"/>
<path fill-rule="evenodd" clip-rule="evenodd" d="M157.589 39.3096L199.944 80.6592C201.513 82.0796 201.513 84.6047 199.944 86.1829C198.532 87.7612 196.023 87.7612 194.454 86.1829L152.098 44.8334C150.53 43.413 150.53 40.8879 152.098 39.3096C153.51 37.7314 156.02 37.7314 157.589 39.3096Z" fill="#005CA2"/>
<path fill-rule="evenodd" clip-rule="evenodd" d="M152.879 30.7888C151.781 29.8418 150.212 29.9997 149.271 31.1044L144.251 36.9438C143.31 38.0486 143.466 39.6268 144.565 40.5738C145.663 41.5207 147.231 41.3629 148.173 40.2581L153.193 34.4187C154.134 33.3139 153.977 31.7357 152.879 30.7888Z" fill="#005FA9"/>
<path fill-rule="evenodd" clip-rule="evenodd" d="M142.999 41.3637C142.058 40.4168 140.489 40.5746 139.548 41.5216L121.35 60.6181C120.409 61.7229 120.566 63.3011 121.664 64.248C122.605 65.195 124.331 65.0371 125.272 63.9324L143.469 44.8358C144.411 43.8889 144.254 42.3107 143.156 41.3637H142.999Z" fill="#005FA9"/>
<path fill-rule="evenodd" clip-rule="evenodd" d="M22.6758 16.9007C22.6758 16.9007 56.0895 -5.66789 90.2875 9.48308C124.486 24.634 129.976 36.9442 138.761 32.5252L139.702 32.0517C145.506 28.264 129.035 9.00961 93.1112 2.06541C57.1876 -4.87878 30.3625 7.11574 22.6758 16.9007Z" fill="#DCE7F6"/>
<path fill-rule="evenodd" clip-rule="evenodd" d="M11.0684 28.5811C11.0684 28.5811 46.5214 6.32815 78.6801 21.1635C110.839 35.9988 116.486 51.6232 123.859 45.626C135.311 36.3144 84.3275 13.588 77.2683 12.1676C38.9915 4.74993 16.2451 23.2152 11.0684 28.5811Z" fill="#DCE7F6"/>
<path fill-rule="evenodd" clip-rule="evenodd" d="M150.213 48.7829L191 88.0807C193.039 89.9746 193.039 93.1311 191 95.1827L177.352 109.86C175.47 111.912 172.332 111.912 170.293 109.86L129.82 70.089C127.937 68.1951 127.781 65.0386 129.82 62.9869L143.154 48.7829C145.036 46.7312 148.174 46.7312 150.213 48.7829Z" fill="#005CA2"/>
<path fill-rule="evenodd" clip-rule="evenodd" d="M157.589 39.3096L199.944 80.6592C201.513 82.0796 201.513 84.6047 199.944 86.1829C198.532 87.7612 196.023 87.7612 194.454 86.1829L152.098 44.8334C150.53 43.413 150.53 40.8879 152.098 39.3096C153.51 37.7314 156.02 37.7314 157.589 39.3096Z" fill="#005CA2"/>
<path fill-rule="evenodd" clip-rule="evenodd" d="M152.879 30.7888C151.781 29.8418 150.212 29.9997 149.271 31.1044L144.251 36.9438C143.31 38.0486 143.466 39.6268 144.565 40.5738C145.663 41.5207 147.231 41.3629 148.173 40.2581L153.193 34.4187C154.134 33.3139 153.977 31.7357 152.879 30.7888Z" fill="#005FA9"/>
<path fill-rule="evenodd" clip-rule="evenodd" d="M142.999 41.3637C142.058 40.4168 140.489 40.5746 139.548 41.5216L121.35 60.6181C120.409 61.7229 120.566 63.3011 121.664 64.248C122.605 65.195 124.331 65.0371 125.272 63.9324L143.469 44.8358C144.411 43.8889 144.254 42.3107 143.156 41.3637H142.999Z" fill="#005FA9"/>
<path fill-rule="evenodd" clip-rule="evenodd" d="M22.6758 16.9007C22.6758 16.9007 56.0895 -5.66789 90.2875 9.48308C124.486 24.634 129.976 36.9442 138.761 32.5252L139.702 32.0517C145.506 28.264 129.035 9.00961 93.1112 2.06541C57.1876 -4.87878 30.3625 7.11574 22.6758 16.9007Z" fill="#DCE7F6"/>
<path fill-rule="evenodd" clip-rule="evenodd" d="M11.0684 28.5811C11.0684 28.5811 46.5214 6.32815 78.6801 21.1635C110.839 35.9988 116.486 51.6232 123.859 45.626C135.311 36.3144 84.3275 13.588 77.2683 12.1676C38.9915 4.74993 16.2451 23.2152 11.0684 28.5811Z" fill="#DCE7F6"/>
<path fill-rule="evenodd" clip-rule="evenodd" d="M150.213 48.7829L191 88.0807C193.039 89.9746 193.039 93.1311 191 95.1827L177.352 109.86C175.47 111.912 172.332 111.912 170.293 109.86L129.82 70.089C127.937 68.1951 127.781 65.0386 129.82 62.9869L143.154 48.7829C145.036 46.7312 148.174 46.7312 150.213 48.7829Z" fill="#005CA2"/>
<path fill-rule="evenodd" clip-rule="evenodd" d="M157.589 39.3096L199.944 80.6592C201.513 82.0796 201.513 84.6047 199.944 86.1829C198.532 87.7612 196.023 87.7612 194.454 86.1829L152.098 44.8334C150.53 43.413 150.53 40.8879 152.098 39.3096C153.51 37.7314 156.02 37.7314 157.589 39.3096Z" fill="#005CA2"/>
<path fill-rule="evenodd" clip-rule="evenodd" d="M152.879 30.7888C151.781 29.8418 150.212 29.9997 149.271 31.1044L144.251 36.9438C143.31 38.0486 143.466 39.6268 144.565 40.5738C145.663 41.5207 147.231 41.3629 148.173 40.2581L153.193 34.4187C154.134 33.3139 153.977 31.7357 152.879 30.7888Z" fill="#005FA9"/>
<path fill-rule="evenodd" clip-rule="evenodd" d="M142.999 41.3637C142.058 40.4168 140.489 40.5746 139.548 41.5216L121.35 60.6181C120.409 61.7229 120.566 63.3011 121.664 64.248C122.605 65.195 124.331 65.0371 125.272 63.9324L143.469 44.8358C144.411 43.8889 144.254 42.3107 143.156 41.3637H142.999Z" fill="#005FA9"/>
<path fill-rule="evenodd" clip-rule="evenodd" d="M22.6758 16.9007C22.6758 16.9007 56.0895 -5.66789 90.2875 9.48308C124.486 24.634 129.976 36.9442 138.761 32.5252L139.702 32.0517C145.506 28.264 129.035 9.00961 93.1112 2.06541C57.1876 -4.87878 30.3625 7.11574 22.6758 16.9007Z" fill="#DCE7F6"/>
<path fill-rule="evenodd" clip-rule="evenodd" d="M11.0684 28.5811C11.0684 28.5811 46.5214 6.32815 78.6801 21.1635C110.839 35.9988 116.486 51.6232 123.859 45.626C135.311 36.3144 84.3275 13.588 77.2683 12.1676C38.9915 4.74993 16.2451 23.2152 11.0684 28.5811Z" fill="#DCE7F6"/>
<path fill-rule="evenodd" clip-rule="evenodd" d="M150.213 48.7829L191 88.0807C193.039 89.9746 193.039 93.1311 191 95.1827L177.352 109.86C175.47 111.912 172.332 111.912 170.293 109.86L129.82 70.089C127.937 68.1951 127.781 65.0386 129.82 62.9869L143.154 48.7829C145.036 46.7312 148.174 46.7312 150.213 48.7829Z" fill="#005CA2"/>
<path fill-rule="evenodd" clip-rule="evenodd" d="M157.589 39.3096L199.944 80.6592C201.513 82.0796 201.513 84.6047 199.944 86.1829C198.532 87.7612 196.023 87.7612 194.454 86.1829L152.098 44.8334C150.53 43.413 150.53 40.8879 152.098 39.3096C153.51 37.7314 156.02 37.7314 157.589 39.3096Z" fill="#005CA2"/>
<path fill-rule="evenodd" clip-rule="evenodd" d="M152.879 30.7888C151.781 29.8418 150.212 29.9997 149.271 31.1044L144.251 36.9438C143.31 38.0486 143.466 39.6268 144.565 40.5738C145.663 41.5207 147.231 41.3629 148.173 40.2581L153.193 34.4187C154.134 33.3139 153.977 31.7357 152.879 30.7888Z" fill="#005FA9"/>
<path fill-rule="evenodd" clip-rule="evenodd" d="M142.999 41.3637C142.058 40.4168 140.489 40.5746 139.548 41.5216L121.35 60.6181C120.409 61.7229 120.566 63.3011 121.664 64.248C122.605 65.195 124.331 65.0371 125.272 63.9324L143.469 44.8358C144.411 43.8889 144.254 42.3107 143.156 41.3637H142.999Z" fill="#005FA9"/>
<path fill-rule="evenodd" clip-rule="evenodd" d="M22.6758 16.9007C22.6758 16.9007 56.0895 -5.66789 90.2875 9.48308C124.486 24.634 129.976 36.9442 138.761 32.5252L139.702 32.0517C145.506 28.264 129.035 9.00961 93.1112 2.06541C57.1876 -4.87878 30.3625 7.11574 22.6758 16.9007Z" fill="#DCE7F6"/>
<path fill-rule="evenodd" clip-rule="evenodd" d="M11.0684 28.5811C11.0684 28.5811 46.5214 6.32815 78.6801 21.1635C110.839 35.9988 116.486 51.6232 123.859 45.626C135.311 36.3144 84.3275 13.588 77.2683 12.1676C38.9915 4.74993 16.2451 23.2152 11.0684 28.5811Z" fill="#DCE7F6"/>
<path fill-rule="evenodd" clip-rule="evenodd" d="M82.4451 147.579L148.331 84.7659C150.214 82.8721 153.194 82.3986 154.292 84.7659C155.547 87.1333 155.547 89.0271 153.665 90.921L89.0337 154.681C87.1513 156.575 84.1707 156.417 82.2882 154.681C80.4058 152.787 80.5626 149.631 82.2882 147.895L82.4451 147.579Z" fill="#005796"/>
<path fill-rule="evenodd" clip-rule="evenodd" d="M150.213 48.7829L191 88.0807C193.039 89.9746 193.039 93.1311 191 95.1827L177.352 109.86C175.47 111.912 172.332 111.912 170.293 109.86L129.82 70.089C127.937 68.1951 127.781 65.0386 129.82 62.9869L143.154 48.7829C145.036 46.7312 148.174 46.7312 150.213 48.7829Z" fill="#005CA2"/>
<path fill-rule="evenodd" clip-rule="evenodd" d="M157.589 39.3096L199.944 80.6592C201.513 82.0796 201.513 84.6047 199.944 86.1829C198.532 87.7612 196.023 87.7612 194.454 86.1829L152.098 44.8334C150.53 43.413 150.53 40.8879 152.098 39.3096C153.51 37.7314 156.02 37.7314 157.589 39.3096Z" fill="#005CA2"/>
<path fill-rule="evenodd" clip-rule="evenodd" d="M208.099 84.9216C207.001 83.9746 205.433 84.1325 204.491 85.2372L199.472 91.0767C198.53 92.1814 198.687 93.7596 199.785 94.7066C200.883 95.6535 202.452 95.4957 203.393 94.3909L208.413 88.5515C209.354 87.4467 209.198 85.8685 208.099 84.9216Z" fill="#006AB3"/>
<path fill-rule="evenodd" clip-rule="evenodd" d="M152.879 30.7888C151.781 29.8418 150.212 29.9997 149.271 31.1044L144.251 36.9438C143.31 38.0486 143.466 39.6268 144.565 40.5738C145.663 41.5207 147.231 41.3629 148.173 40.2581L153.193 34.4187C154.134 33.3139 153.977 31.7357 152.879 30.7888Z" fill="#005FA9"/>
<path fill-rule="evenodd" clip-rule="evenodd" d="M198.219 95.4966C197.277 94.5496 195.709 94.7074 194.767 95.6544L176.57 114.751C175.629 115.856 175.786 117.434 176.884 118.381C177.825 119.328 179.551 119.17 180.492 118.065L198.689 98.8108C199.63 97.7061 199.473 96.2857 198.375 95.3387L198.219 95.4966Z" fill="#006AB3"/>
<path fill-rule="evenodd" clip-rule="evenodd" d="M142.999 41.3637C142.058 40.4168 140.489 40.5746 139.548 41.5216L121.35 60.6181C120.409 61.7229 120.566 63.3011 121.664 64.248C122.605 65.195 124.331 65.0371 125.272 63.9324L143.469 44.8358C144.411 43.8889 144.254 42.3107 143.156 41.3637H142.999Z" fill="#005FA9"/>
<path fill-rule="evenodd" clip-rule="evenodd" d="M22.6758 16.9007C22.6758 16.9007 56.0895 -5.66789 90.2875 9.48308C124.486 24.634 129.976 36.9442 138.761 32.5252L139.702 32.0517C145.506 28.264 129.035 9.00961 93.1112 2.06541C57.1876 -4.87878 30.3625 7.11574 22.6758 16.9007Z" fill="#DCE7F6"/>
<path fill-rule="evenodd" clip-rule="evenodd" d="M11.0684 28.5811C11.0684 28.5811 46.5214 6.32815 78.6801 21.1635C110.839 35.9988 116.486 51.6232 123.859 45.626C135.311 36.3144 84.3275 13.588 77.2683 12.1676C38.9915 4.74993 16.2451 23.2152 11.0684 28.5811Z" fill="#DCE7F6"/>
<path fill-rule="evenodd" clip-rule="evenodd" d="M40.873 206.919H98.6018C104.249 206.919 108.642 202.342 108.642 196.818V174.881C108.642 169.199 104.092 164.78 98.4449 164.78H58.7563C53.7364 164.78 51.6971 169.199 48.0891 174.565L32.245 197.923C27.2251 205.498 35.0687 207.077 40.7161 207.077L40.873 206.919Z" fill="#072F6A"/>
<path fill-rule="evenodd" clip-rule="evenodd" d="M40.873 77.1914H98.6018C104.249 77.1914 108.642 81.7683 108.642 87.4499V109.387C108.642 115.069 104.092 119.488 98.4449 119.488H58.7563C53.7364 119.488 51.6971 115.069 48.0891 109.703L32.245 86.3451C27.2251 78.7696 35.0687 77.1914 40.7161 77.1914H40.873Z" fill="#0D62A9"/>
<path fill-rule="evenodd" clip-rule="evenodd" d="M19.54 91.554L1.02915 128.8C-1.4808 133.85 0.715402 142.215 6.36279 142.215H35.0703C42.1296 142.215 42.1296 142.215 44.4826 137.007L50.9144 123.75C53.1106 119.173 50.4438 115.859 46.6788 110.493L31.1485 87.4506C26.1286 79.8751 22.05 86.6615 19.54 91.7118V91.554Z" fill="#0F6EB8"/>
<path fill-rule="evenodd" clip-rule="evenodd" d="M19.0694 192.399L1.02915 157.205C-1.4808 152.155 0.715402 143.79 6.36279 143.79H35.0703C42.1296 143.79 41.6589 144.106 44.4826 148.998L50.9144 160.046C53.4243 164.465 50.4438 167.937 46.6788 173.303L30.6779 196.503C25.5012 203.92 21.5794 197.292 19.0694 192.242V192.399Z" fill="#0F3E7F"/>
</svg>
