<svg width="1440" height="1024" viewBox="0 0 1440 1024" fill="none" xmlns="http://www.w3.org/2000/svg">
<g clip-path="url(#clip0_1536_4014)">
<rect width="1440" height="1024" fill="#162766"/>
<path d="M237.472 608.426V759.338H213.105V607.763L237.472 608.426Z" fill="#C8D0ED"/>
<path d="M213.105 603.81V764.651L-139.996 804.471V604.105L213.105 603.81Z" fill="#161C38"/>
<path d="M437.434 655.382L475.475 673.8C479.462 675.737 481.105 680.546 479.129 684.514L453.288 736.368L344.051 685.284L404.306 640.766L437.434 655.382Z" fill="#D6A787"/>
<path d="M384.613 694.299L376.331 687.48C379.311 688.38 382.218 689.345 385.05 690.375C385.395 687.948 385.885 685.572 386.504 683.247C383.142 682.052 379.678 680.943 376.123 679.928L390.817 668.645L392.529 668.508C388.147 676.234 385.36 684.982 384.613 694.299Z" fill="#C68C6A"/>
<path d="M418.224 666.398L390.819 668.645L371.483 683.484L394.416 702.369L439.164 705.969L456.594 711.189C464.225 713.472 468.938 721.104 467.561 728.952L466.777 733.43C465.488 740.774 459.211 746.203 451.755 746.419L443.211 746.664L396.186 744.749C394.423 744.677 392.662 744.943 390.999 745.534L359.336 749.854L306.272 748.694L267.996 726.439L237.473 725.892V612.405L263.154 612.578L368.358 601.339L441.923 621.276L481.073 674.743L471.822 727.274C471.505 729.081 469.799 730.298 467.991 730.01L466.275 729.729C452.487 727.526 442.225 715.819 441.848 701.858L441.349 683.419L418.224 666.398Z" fill="#D6A787"/>
<path d="M468.044 729.537L467.981 730.005L467.392 729.875L467.56 728.954C468.927 721.106 464.218 713.474 456.586 711.184L442.436 706.958C442.352 706.562 442.289 706.158 442.205 705.762V705.654L452.444 707.8C462.514 709.902 469.284 719.342 468.044 729.537Z" fill="#D6A787"/>
<path d="M384.412 699.367C384.412 733.949 412.451 761.993 447.038 761.993H506.052V636.742H447.038C412.451 636.742 384.412 664.779 384.412 699.367Z" fill="#F2C438"/>
<path d="M506.051 709.664H506.076V689.072H506.051V709.664Z" fill="#293E78"/>
<path opacity="0.8" d="M506.053 709.664H457.633C456.035 708.822 454.296 708.188 452.445 707.799L442.206 705.654V705.762L442.436 706.95L441.836 706.77C439.9 704.898 438.695 702.277 438.695 699.368C438.695 693.687 443.304 689.072 448.987 689.072H506.053V709.664Z" fill="#162766"/>
<path d="M467.98 730.005L467.397 729.875L467.558 728.954C468.849 721.595 464.787 714.431 457.987 711.681C457.531 711.494 457.064 711.328 456.584 711.184L453.557 710.284L451.49 709.665H457.631C464.731 713.402 469.055 721.214 468.042 729.537L467.98 730.005Z" fill="#F2C438"/>
<path d="M457.633 709.664H451.492L439.435 706.95L439.205 704.762V704.654L452.444 707.799C454.295 708.188 456.034 708.822 457.633 709.664Z" fill="#F2C438"/>
<path d="M394.415 702.369L439.163 705.969L456.593 711.189C464.224 713.472 468.937 721.104 467.561 728.952L466.776 733.43C465.487 740.774 459.21 746.203 451.755 746.419L443.21 746.664L396.186 744.749C394.422 744.677 392.662 744.943 390.998 745.534L359.336 749.854L371.482 683.484L394.415 702.369Z" fill="#D6A787"/>
<path d="M450.703 743.194H437.073C434.629 743.194 432.715 741.092 432.947 738.658L435.077 716.266C435.285 714.085 437.118 712.508 439.197 712.508C439.528 712.508 439.863 712.551 440.2 712.63L453.414 715.906C456.423 716.648 458.893 718.793 460.053 721.666L460.719 723.315C462.956 728.859 461.945 735.188 458.091 739.76C456.255 741.942 453.552 743.194 450.703 743.194Z" fill="#E0B3A2"/>
<path d="M250.871 678.012C201.119 688.294 157.948 709.051 121.393 727.699C116.641 730.118 111.896 732.559 107.144 735.007C73.3619 752.388 38.4202 770.367 -1.03584 782.7C-29.5529 791.621 -84.6988 804.595 -139.996 793.947V801.276C-125.214 804.019 -110.478 805.143 -96.249 805.143C-56.2095 805.143 -20.2383 796.251 1.10977 789.576C41.1634 777.048 76.3859 758.933 110.442 741.408C115.18 738.967 119.917 736.534 124.662 734.114C160.806 715.675 203.459 695.162 252.325 685.061C300.357 675.139 348.971 677.198 385.05 690.374C385.396 687.948 385.886 685.572 386.505 683.246C349.281 669.962 299.702 667.925 250.871 678.012Z" fill="white"/>
<path d="M251.932 414.902L250.878 420.23L251.494 427.43L250.209 427.135L246.382 433.615C246.292 433.766 246.119 433.845 245.946 433.816L238.68 432.65L242.858 434.133L243.678 438.021L243.822 439.533L237.313 438.381L230.383 436.423L230.642 430.296L232.003 420.129L234.737 413.577L247.167 412.216L251.932 414.902Z" fill="#D6A787"/>
<path d="M255.422 406.911L252.671 414.918L239.319 415.45L238.468 414.716L238.022 423.493L235.948 421.959L235.722 427.021L230.682 430.549L228.18 414.01L231.938 409.143L233.806 409.698L235.025 408.02L255.422 406.911Z" fill="#141619"/>
<path d="M250.305 442.902L263.352 470.406L262.714 480.789L257.722 481.818L254.738 475.914L249.523 442.485L250.305 442.902Z" fill="#1B2146"/>
<path d="M243.68 438.021L246.761 439.835L250.307 442.902L253.133 465.726C253.133 465.726 259.076 495.448 259.06 496.096C259.042 496.737 258.991 518.92 258.991 518.92H251.407L243.68 438.021Z" fill="#1B2146"/>
<path d="M243.68 438.023L243.824 439.535L250.307 456.182L254.031 471.381L251.529 455.8L248.855 447.988L247.369 446.519L247.622 444.64L243.68 438.023Z" fill="#24366D"/>
<path d="M243.827 439.534L250.309 456.18L257.727 501.166H233.628L226.211 470.062L230.383 435.596L237.069 438.267L243.827 439.534Z" fill="#C8D0ED"/>
<path d="M244.108 441.205L246.575 442.529L246.425 445.186L245.346 445.373L246.425 445.481L250.424 477.039L248.902 483.49L244.077 445.359L242.461 441.039L244.108 441.205Z" fill="#A92730"/>
<path d="M228.431 501.504L218.81 612.953L216.164 616.862V618.158H225.612L224.296 613.14L246.866 528.424L240.039 560.99L243.993 613.428L243.766 618.158H246.454L246.665 617.582L247.778 618.158H261.158L260.743 616.466L250.671 613.32L257.722 501.165L228.431 501.504Z" fill="#141B2F"/>
<path d="M230.378 435.595L216.164 447.497L226.384 495.399L223.581 520.649H235.809C235.809 520.649 251.747 521.506 255.156 506.587L255.421 487.212L226.411 470.71L254.179 485.081L251.64 457.858L237.123 439.678L230.378 435.595Z" fill="#1B2146"/>
<path d="M230.383 435.597L237.127 439.679L251.644 457.859L254.033 471.381L249.528 459.652L240.432 451.091L242.008 447.657L237.602 446.39L234.621 440.572L230.383 435.597Z" fill="#24366D"/>
<path d="M258.972 474.455L259.609 472.014L257.78 468.522L254.305 468.299L258.972 474.455Z" fill="#D6A787"/>
<path d="M260.559 473.841L260.332 481.278L254.175 485.08L225.398 470.19L230.75 450.412L256.519 471.486L260.559 473.841Z" fill="#1B2146"/>
<path d="M250.839 470.408L249.392 469.832L251.523 466.787L248.658 469.537L247.152 468.932L249.154 465.469L246.324 468.594L244.472 467.852L247.097 463.986L243.873 467.175L242.953 465.635L245.076 462.085C245.322 461.675 245.873 461.574 246.247 461.876L253.135 467.348C253.402 467.557 253.425 467.953 253.178 468.191C252.382 468.947 250.839 470.408 250.839 470.408Z" fill="#D6A787"/>
<path d="M286.545 610.742L284.037 615.761L283.805 618.158H294.766V615.163L294.066 610.742H286.545Z" fill="#151820"/>
<path d="M321.626 610.742L328.95 614.184L333.983 615.861L335.114 618.158H329.199H321.017L316.028 617.085L315.363 618.158H312.094V610.98L321.626 610.742Z" fill="#151820"/>
<path d="M319.348 407.129L319.249 412.76L321.194 419.981L319.83 419.917L317.115 427.217C317.052 427.39 316.891 427.505 316.708 427.505L309.089 427.649L313.619 428.398L313.3 432.913L310.334 433.561L306.508 433.258L300.642 430.673L300.467 426.721L299.992 416.108L301.579 408.929L314.001 405.264L319.348 407.129Z" fill="#D6A787"/>
<path d="M317.334 399.011L319.345 401.719L319.776 407.738L309.059 409.574L305.584 409.401L306.227 414.167L304.201 415.744L305.037 422.447L300.475 427.041L294.969 410.567L297.91 404.923L299.914 405.146L300.85 403.209L317.334 399.011Z" fill="#141619"/>
<path d="M313.297 432.91L320.456 435.84L326.17 473.561V502.138L323.63 515.4H315.777L319.094 468.406L319.88 452.868L313.297 432.91Z" fill="#141C2E"/>
<path d="M313.312 432.908L316.671 438.596L316.253 440.13L317.614 441.037L320.963 452.694L319.093 468.404L319.879 452.867L313.461 434.543L313.312 432.908Z" fill="#21305D"/>
<path d="M313.294 432.908L320.552 452.564L323.607 496.988L297.36 497.01L298.251 455.199L289.68 464.797L300.57 429.286L306.546 432.008L313.294 432.908Z" fill="#C8D0ED"/>
<path d="M291.695 497.359L286.438 610.745H296.158L310.356 525.857L306.218 556.097L312.1 610.982L323.61 610.745V496.992L291.695 497.359Z" fill="#141822"/>
<path d="M312.756 434.445L315.311 435.813L315.157 438.571L314.039 438.758L315.157 438.873L319.156 452.287L321.437 472.613L319.861 479.287L316.133 451.913L312.725 438.744L310.828 434.165L312.756 434.445Z" fill="#A92730"/>
<path d="M300.569 429.29L288.58 436.08L289.39 476.436L297.812 456.254L289.462 479.921L289.864 491.037L286.961 517.188H299.624C299.624 517.188 316.127 518.074 319.658 502.622L318.899 456.888L310.617 436.389L300.569 429.29Z" fill="#141C2E"/>
<path d="M300.57 429.287L306.433 436.076L307.669 439.885L311.941 442.225L309.989 444.803L316.644 457.359L319.092 468.404L318.901 456.884L310.618 436.386L300.57 429.287Z" fill="#21305D"/>
<path d="M288.577 436.079L279.701 462.914L260 458.493V468.163L289.387 476.436L299.411 452.416L288.577 436.079Z" fill="#141C2E"/>
<path d="M260.01 458.492L255.729 457.174L253.985 456.872L251.762 456.627L251.847 457.664L253.44 458.124L250.857 458.11L249.195 457.829L247.174 457.174L247.176 455.849L246.084 455.734L245.63 455.129L244.68 455.885L245.868 457.865L246.818 460.378L248.481 461.429L249.314 463.208L251.571 463.928L256.204 463.208L260.01 463.928V458.492Z" fill="#D6A787"/>
<path d="M342.688 460.436L346.968 459.112L348.712 458.816L350.936 458.564L350.85 459.608L349.258 460.069L351.84 460.055L353.503 459.774L355.523 459.112L355.522 457.794L356.613 457.672L357.067 457.074L358.018 457.823L356.83 459.803L355.879 462.323L354.216 463.367L353.385 465.152L351.127 465.865L346.493 465.152L342.688 465.865V460.436Z" fill="#D6A787"/>
<path d="M320.453 435.84L326.923 462.516L342.602 460.341L342.685 469.226L326.168 473.561L320.453 435.84Z" fill="#141C2E"/>
<path d="M1224.66 603.536V754.448H1249.03V602.874L1224.66 603.536Z" fill="white"/>
<path d="M1249.03 598.921V759.761L1700 779.581V599.216L1249.03 598.921Z" fill="#F2C438"/>
<path d="M1024.69 650.493L986.657 668.91C982.668 670.847 981.027 675.657 982.999 679.624L1008.84 731.479L1118.08 680.394L1057.82 635.877L1024.69 650.493Z" fill="#D6A787"/>
<path d="M1078.42 688.674C1078.37 688.213 1078.32 687.752 1078.27 687.291C1078.86 687.306 1079.45 687.32 1080.04 687.335L1078.42 688.674ZM1088.22 680.595C1084.53 680.286 1080.79 680.106 1077.01 680.077C1075.64 674.267 1073.47 668.766 1070.6 663.697L1071.32 663.755L1090.65 678.594L1088.22 680.595Z" fill="#C68C6A"/>
<path d="M1043.91 661.508L1071.32 663.754L1090.65 678.593L1067.72 697.479L1022.97 701.079L1005.54 706.299C997.907 708.581 993.198 716.213 994.573 724.061L995.358 728.54C996.647 735.884 1002.92 741.313 1010.38 741.529L1018.92 741.773L1065.95 739.858C1067.71 739.786 1069.47 740.052 1071.14 740.643L1098.89 744.43C1101.49 744.785 1104.12 744.934 1106.74 744.877L1142.97 744.085C1151.42 743.901 1159.7 741.573 1167.01 737.322L1182.9 728.083C1190.27 723.798 1198.61 721.468 1207.13 721.315L1224.66 721.001V607.515L1198.98 607.687L1099.37 597.046C1095.67 596.651 1091.93 596.948 1088.34 597.921L1030.36 613.635C1023.79 615.415 1018.02 619.376 1014 624.866L981.059 669.852L990.311 722.384C990.627 724.191 992.334 725.408 994.141 725.12L995.862 724.839C1009.65 722.636 1019.91 710.928 1020.28 696.968L1020.79 678.528L1043.91 661.508Z" fill="#D6A787"/>
<path d="M994.089 724.647L994.154 725.115L994.737 724.986L994.572 724.064C993.204 716.216 997.912 708.584 1005.54 706.294L1019.69 702.068C1019.78 701.672 1019.84 701.269 1019.93 700.873V700.765L1009.68 702.91C999.619 705.013 992.851 714.452 994.089 724.647Z" fill="#D6A787"/>
<path d="M915.365 631.852V757.104H998.993C998.993 752.553 1002.67 748.874 1007.22 748.874C1011.77 748.874 1015.45 752.553 1015.45 757.104H1016.05C1050.64 757.104 1078.68 729.059 1078.68 694.478C1078.68 677.183 1071.67 661.538 1060.34 650.183C1048.99 638.858 1033.34 631.852 1016.05 631.852H1015.45C1015.45 636.395 1011.77 640.075 1007.22 640.075C1002.67 640.075 998.993 636.395 998.993 631.852H915.365Z" fill="#F2C438"/>
<path opacity="0.8" d="M1015.45 757.104C1015.45 752.553 1011.77 748.874 1007.22 748.874C1002.67 748.874 998.994 752.553 998.994 757.104V736.151C1001.79 739.363 1005.87 741.4 1010.38 741.53L1015.45 741.674V757.104ZM998.994 709.072V631.852C998.994 636.395 1002.67 640.075 1007.22 640.075C1011.77 640.075 1015.45 636.395 1015.45 631.852V701.707L1009.69 702.909C1005.4 703.802 1001.72 706.027 998.994 709.072ZM1004.19 706.775C1004.62 706.595 1005.09 706.437 1005.55 706.293L1008.58 705.393L1005.54 706.3C1005.08 706.437 1004.62 706.595 1004.19 706.775Z" fill="#162766"/>
<path d="M915.352 704.775H915.366V684.183H915.352V704.775Z" fill="#293E78"/>
<path opacity="0.8" d="M972.44 704.775H915.365V684.183H972.44C978.128 684.183 982.736 688.799 982.736 694.479C982.736 700.167 978.128 704.775 972.44 704.775Z" fill="#162766"/>
<path d="M860.01 667.377H915.349V656.901H860.01C857.115 656.901 854.775 659.248 854.775 662.143C854.775 665.03 857.115 667.377 860.01 667.377Z" fill="white"/>
<path d="M860.01 732.049H915.349V721.58H860.01C857.115 721.58 854.775 723.92 854.775 726.814C854.775 729.702 857.115 732.049 860.01 732.049Z" fill="white"/>
<path d="M998.994 710.182V709.073C1001.72 706.027 1005.4 703.802 1009.69 702.91L1015.45 701.707V703.334L1008.58 705.394L1005.55 706.294C1005.09 706.438 1004.62 706.596 1004.19 706.776C1002.2 707.568 1000.45 708.742 998.994 710.182Z" fill="#162766"/>
<path d="M1067.72 697.479L1022.97 701.079L1005.54 706.299C997.908 708.581 993.199 716.213 994.574 724.061L995.359 728.54C996.647 735.884 1002.93 741.313 1010.38 741.529L1018.92 741.773L1065.95 739.858C1067.71 739.786 1069.48 740.052 1071.14 740.643L1102.8 744.963L1090.65 678.593L1067.72 697.479Z" fill="#D6A787"/>
<path d="M1025.06 738.307H1011.43C1008.58 738.307 1005.88 737.054 1004.04 734.872C1000.19 730.3 999.172 723.971 1001.41 718.427L1002.07 716.779C1003.24 713.906 1005.7 711.76 1008.72 711.019L1021.93 707.743C1022.26 707.663 1022.6 707.62 1022.93 707.62C1025.01 707.62 1026.84 709.197 1027.05 711.379L1029.18 733.771C1029.41 736.204 1027.5 738.307 1025.06 738.307Z" fill="#E0B3A2"/>
<path d="M1500 706.093C1471.3 736.995 1433.44 762.209 1389.92 779.338C1361.12 790.671 1336.69 794.89 1315.21 792.234C1288.95 788.986 1266.59 775.487 1248.18 762.714C1239.19 756.471 1230.32 749.862 1221.71 743.468C1204.42 730.595 1186.53 717.289 1166.76 706.201C1145.04 694.019 1112.76 680.346 1077.01 680.079C1077.56 682.433 1077.99 684.839 1078.26 687.293C1111.99 687.869 1142.56 700.88 1163.24 712.479C1182.61 723.344 1200.31 736.506 1217.42 749.242C1226.06 755.672 1235 762.325 1244.08 768.625C1263.21 781.901 1286.51 795.942 1314.34 799.383C1318.76 799.93 1323.29 800.204 1327.95 800.204C1347.18 800.204 1368.45 795.525 1392.56 786.042C1434.46 769.553 1471.27 745.686 1500 716.511V706.093Z" fill="white"/>
<path d="M1112 427.502L1131.5 436.498L1124.5 453.502L1101.64 434.224C1099.94 432.788 1098.81 430.787 1098.46 428.587C1097.9 425.027 1099.87 421.552 1103.22 420.214L1135 407.502V415.002L1112 427.502Z" fill="#C8D0ED"/>
<path d="M1137.93 433.318L1131.31 436.544L1124.31 453.942L1123.98 478.873C1123.98 478.873 1123.97 490.997 1123.98 491.278C1123.99 491.919 1126.04 507.088 1126.04 507.088H1133.63L1137.93 433.318Z" fill="#C8D0ED"/>
<path d="M1129.42 459.24L1129.94 451.025L1133.35 440.146L1134.58 438.735L1134.71 441.154L1134.79 441.168L1130.72 451.392L1129.42 459.24ZM1134.97 438.281H1134.97L1134.21 437.014L1137.77 433.471L1137.75 433.745L1136.2 437.619L1134.97 438.281Z" fill="#C8D0ED"/>
<path d="M1132.17 409.378L1132.36 414.806L1130.59 421.805L1131.91 421.718L1134.65 428.724C1134.71 428.89 1134.87 428.998 1135.04 428.998L1142.4 429.005L1138.04 429.804L1137.65 435.053L1141.29 434.736L1144.98 434.376L1150.6 431.791L1150.7 427.975L1150.99 417.722L1149.34 410.825L1137.3 407.491L1132.17 409.378Z" fill="#D6A787"/>
<path d="M1133.97 401.509L1132.11 403.618L1131.44 409.27L1144.53 411.934L1145.48 411.351L1144.52 420.085L1146.81 418.904L1146.22 423.929L1150.63 428.221L1155.74 412.294L1152.81 406.901L1150.88 407.146L1149.95 405.296L1133.97 401.509Z" fill="#141619"/>
<path d="M1137.92 433.321L1130.72 451.393L1123.3 496.35H1152.39L1154.8 465.26L1164 442.502L1163.54 439.989C1163.2 438.111 1161.99 436.508 1160.27 435.67L1150.68 430.988L1142.87 433.911L1137.65 435.056L1137.92 433.321Z" fill="#C8D0ED"/>
<path d="M1152.58 496.678L1162.19 608.069L1164.61 611.583L1164.83 613.268H1155.39L1156.71 608.256L1134.56 524.182L1142.37 562.529L1137.02 608.544L1137.25 613.268H1134.56L1134.35 612.692L1133.24 613.268H1119.94L1120.44 611.381L1130.35 608.436L1123.3 496.347L1152.58 496.678Z" fill="#15192A"/>
<path d="M1129.95 459.576L1143.6 435.694L1150.68 430.985L1147.54 437.011L1144.06 437.883L1145.35 440.215L1129.95 459.576Z" fill="#C8D0ED"/>
<path d="M1162.25 437.54L1174.99 470.689L1147.39 496.35L1145.35 484.333L1160.95 469.198L1148.89 454.424L1162.25 437.54Z" fill="#C8D0ED"/>
<path d="M1206.37 411.208C1206.37 411.208 1210.47 433.118 1206.37 436.545C1206.37 436.545 1212.39 438.287 1215.55 432.499C1218.72 426.703 1223.37 426.94 1223.37 426.94L1209.54 409.545L1206.37 411.208Z" fill="#141619"/>
<path d="M1215.55 432.497L1213.28 433.073L1207.45 436.616L1199.45 458.007L1200.48 478.923C1200.48 478.923 1198.11 491.048 1198.12 491.328C1198.13 491.969 1198.18 514.131 1198.18 514.131H1205.76L1215.55 432.497Z" fill="#1E254B"/>
<path d="M1208.31 409.469L1208.57 416.712L1207.41 423.286L1208.73 423.206L1210.8 428.808C1210.86 428.966 1211.01 429.075 1211.19 429.075L1218.55 429.089L1215.78 429.485L1215.38 434.727L1210.96 447.377L1221.12 434.453L1226.74 431.868L1226.85 428.052L1227.13 417.814L1225.49 410.909L1213.44 407.582L1208.31 409.469Z" fill="#D6A787"/>
<path d="M1215.2 433.141L1206.86 451.458L1199.45 496.4H1223.53L1230.94 465.318L1226.82 431.06L1219.02 433.983L1210.96 447.376L1215.39 434.725L1215.55 432.5L1215.2 433.141Z" fill="#C8D0ED"/>
<path d="M1215.55 432.497L1210.36 437.083L1211.11 438.351L1209.49 440.215L1206.09 451.087L1205.57 459.303L1206.86 451.455L1215.55 432.497Z" fill="#21305D"/>
<path d="M1201.34 535.617L1206.82 606.494L1199.82 610.354L1203.83 610.138L1211.3 606.998L1214.26 558.636L1213.43 553.221L1217.25 536.294L1201.34 535.617Z" fill="#D6A787"/>
<path d="M1233.69 606.996L1233.98 613.268H1234.72L1235.39 611.972L1237.04 613.268H1244.05L1243.56 612.274L1241.31 609.416L1238.01 607.248L1235.45 606.996H1233.69Z" fill="#141B2F"/>
<path d="M1232.12 536.973L1238.01 607.252L1241.31 609.419L1242.05 610.355L1241.23 611.939L1237.47 611.068L1233.69 607.087L1222.94 558.962L1222.66 553.893L1216.7 536.296L1232.12 536.973Z" fill="#D6A787"/>
<path d="M1209.48 607.263L1203.83 610.136L1199.82 610.352L1197.26 611.626L1196.88 613.268H1202.97L1209.6 610.762L1210.76 613.268H1211.33L1211.3 606.996L1209.48 607.263Z" fill="#141B2F"/>
<path d="M1199.45 496.397L1200.22 549.836L1214.29 551.557L1239.34 550.196L1230.58 496.75L1199.45 496.397Z" fill="#141822"/>
<path d="M1226.82 431.058L1238.38 437.61L1230.76 490.631L1233.56 515.86H1221.35C1221.35 515.86 1205.42 516.71 1202.02 501.806L1206.09 459.643L1219.73 435.774L1226.82 431.058Z" fill="#1E254B"/>
<path d="M1226.82 431.059L1223.68 437.085L1220.21 437.956L1221.49 440.289L1206.09 459.643L1219.74 435.775L1226.82 431.059Z" fill="#21305D"/>
<path d="M1238.38 437.61L1251.11 470.745L1222.89 492.611L1221.49 484.389L1237.09 469.254L1225.03 454.487L1238.38 437.61Z" fill="#1E254B"/>
<path d="M1221.24 419.987C1221.24 419.987 1220.59 426.575 1215.19 437.087C1218.24 440.37 1229.22 435.662 1230.08 434.315C1234.25 427.821 1233.52 410.598 1228.97 406.545C1225.04 403.038 1208.56 399.266 1206.37 411.21C1214.21 420.304 1221.24 419.987 1221.24 419.987Z" fill="#141619"/>
<path d="M406.918 323.514C406.918 333.205 414.774 341.06 424.464 341.06C434.155 341.06 442.011 333.205 442.011 323.514C442.011 313.823 434.155 305.968 424.464 305.968C414.774 305.968 406.918 313.823 406.918 323.514Z" fill="#BBC7E3"/>
<path d="M380.516 323.517C380.516 334.842 389.695 344.021 401.018 344.021C412.341 344.021 421.52 334.842 421.52 323.517C421.52 312.196 412.341 303.018 401.018 303.018C389.695 303.018 380.516 312.196 380.516 323.517Z" fill="#BBC7E3"/>
<path d="M379.501 354.52H442.022C450.583 354.52 457.523 347.58 457.523 339.02C457.523 330.457 450.583 323.517 442.022 323.517H379.501C370.94 323.517 364 330.457 364 339.02C364 347.58 370.94 354.52 379.501 354.52Z" fill="#BBC7E3"/>
<path d="M985.29 242.498C985.29 255.474 974.769 265.994 961.793 265.994C948.817 265.994 938.297 255.474 938.297 242.498C938.297 229.522 948.817 219.001 961.793 219.001C974.769 219.001 985.29 229.522 985.29 242.498Z" fill="#E1E9F7"/>
<path d="M1004.82 244.647C1004.82 253.164 997.92 260.068 989.403 260.068C980.887 260.068 973.982 253.164 973.982 244.647C973.982 236.131 980.887 229.226 989.403 229.226C997.92 229.226 1004.82 236.131 1004.82 244.647Z" fill="#E1E9F7"/>
<path d="M1009.4 277.631H938.566C928.864 277.631 921.002 269.769 921.002 260.071C921.002 250.372 928.864 242.507 938.566 242.507H1009.4C1019.1 242.507 1026.96 250.372 1026.96 260.071C1026.96 269.769 1019.1 277.631 1009.4 277.631Z" fill="#E1E9F7"/>
<path d="M592.813 511.137V472.115H524.209V443.914L586.252 349.986H620.899V444.029H634.482V472.115H620.899V511.137H592.813ZM556.784 443.914L592.813 444.029L592.698 388.317L556.784 443.914ZM710.989 514.13C701.627 514.13 693.109 511.981 685.435 507.683C677.761 503.309 671.124 497.285 665.522 489.612C659.996 481.938 655.737 473.074 652.745 463.022C649.752 452.892 648.255 442.072 648.255 430.561C648.255 419.05 649.752 408.269 652.745 398.216C655.737 388.086 659.996 379.185 665.522 371.511C671.124 363.837 677.761 357.851 685.435 353.554C693.109 349.18 701.627 346.993 710.989 346.993C720.351 346.993 728.869 349.18 736.543 353.554C744.217 357.851 750.778 363.837 756.227 371.511C761.752 379.185 766.011 388.086 769.004 398.216C772.073 408.269 773.608 419.05 773.608 430.561C773.608 442.072 772.073 452.892 769.004 463.022C766.011 473.074 761.752 481.938 756.227 489.612C750.778 497.285 744.217 503.309 736.543 507.683C728.869 511.981 720.351 514.13 710.989 514.13ZM710.989 486.043C719.2 486.043 725.992 483.434 731.363 478.216C736.735 472.998 740.725 466.168 743.335 457.727C745.944 449.285 747.248 440.23 747.248 430.561C747.248 420.355 745.867 411.07 743.104 402.705C740.342 394.264 736.275 387.549 730.903 382.561C725.531 377.573 718.893 375.079 710.989 375.079C704.773 375.079 699.363 376.614 694.759 379.683C690.231 382.676 686.471 386.782 683.478 392C680.486 397.218 678.26 403.165 676.802 409.842C675.344 416.441 674.615 423.348 674.615 430.561C674.615 440.153 675.92 449.209 678.529 457.727C681.215 466.168 685.243 472.998 690.615 478.216C696.064 483.434 702.855 486.043 710.989 486.043ZM858.326 511.137V472.115H789.721V443.914L851.764 349.986H886.412V444.029H899.995V472.115H886.412V511.137H858.326ZM822.297 443.914L858.326 444.029L858.21 388.317L822.297 443.914Z" fill="white"/>
<path d="M533.418 596.374V566.158H544.555C546.209 566.158 547.699 566.575 549.022 567.41C550.361 568.245 551.425 569.36 552.217 570.755C553.008 572.137 553.404 573.662 553.404 575.331C553.404 577.029 553.001 578.575 552.195 579.971C551.389 581.352 550.31 582.453 548.958 583.273C547.619 584.093 546.152 584.504 544.555 584.504H539.375V596.374H533.418ZM539.375 578.547H543.886C544.548 578.547 545.145 578.388 545.677 578.072C546.209 577.741 546.634 577.302 546.95 576.755C547.281 576.194 547.447 575.575 547.447 574.899C547.447 574.237 547.281 573.633 546.95 573.086C546.634 572.525 546.209 572.079 545.677 571.748C545.145 571.417 544.548 571.252 543.886 571.252H539.375V578.547ZM562.614 566.158H569.391L580.355 596.374H574.032L572.219 591.367H559.787L557.974 596.374H551.65L562.614 566.158ZM561.967 585.41H570.039L565.981 574.338L561.967 585.41ZM596.218 596.935C594.117 596.935 592.16 596.525 590.347 595.705C588.549 594.885 586.973 593.755 585.621 592.316C584.282 590.863 583.239 589.187 582.491 587.288C581.743 585.388 581.369 583.367 581.369 581.223C581.369 578.921 581.779 576.82 582.599 574.921C583.419 573.022 584.534 571.381 585.944 570C587.354 568.604 588.952 567.532 590.736 566.784C592.534 566.022 594.405 565.64 596.347 565.64C598.477 565.64 600.563 566.137 602.606 567.129C604.649 568.122 606.477 569.698 608.088 571.856L602.779 574.705C601.858 573.64 600.829 572.849 599.693 572.331C598.57 571.813 597.426 571.554 596.261 571.554C595.095 571.554 593.973 571.791 592.894 572.266C591.829 572.741 590.88 573.417 590.045 574.295C589.211 575.173 588.549 576.209 588.059 577.403C587.57 578.597 587.326 579.914 587.326 581.352C587.326 582.691 587.556 583.942 588.016 585.108C588.491 586.273 589.139 587.295 589.959 588.173C590.779 589.05 591.729 589.741 592.808 590.245C593.901 590.734 595.067 590.978 596.304 590.978C597.067 590.978 597.815 590.87 598.549 590.655C599.297 590.424 600.009 590.093 600.685 589.662C601.362 589.23 601.98 588.691 602.541 588.043C603.117 587.396 603.621 586.647 604.052 585.798H599.369V580.619H611.067C611.153 582.849 610.829 584.95 610.095 586.921C609.362 588.892 608.311 590.633 606.944 592.144C605.577 593.64 603.98 594.813 602.153 595.662C600.326 596.511 598.347 596.935 596.218 596.935ZM614.901 596.374V566.158H634.024V572.115H620.858V577.209H631.132V583.165H620.858V590.417H634.024V596.374H614.901ZM649.13 596.374V566.158H655.562L667.346 585.604V566.158H673.303V596.374H666.871L655.087 576.928V596.374H649.13ZM692.498 596.935C690.455 596.935 688.534 596.532 686.735 595.727C684.937 594.906 683.354 593.777 681.987 592.338C680.62 590.899 679.548 589.237 678.771 587.352C677.994 585.453 677.606 583.424 677.606 581.266C677.606 579.108 677.994 577.086 678.771 575.201C679.548 573.302 680.62 571.633 681.987 570.194C683.354 568.755 684.937 567.633 686.735 566.827C688.534 566.007 690.455 565.597 692.498 565.597C694.556 565.597 696.484 566.007 698.282 566.827C700.081 567.633 701.663 568.755 703.03 570.194C704.397 571.633 705.462 573.302 706.225 575.201C707.002 577.086 707.39 579.108 707.39 581.266C707.39 583.424 707.002 585.453 706.225 587.352C705.462 589.237 704.397 590.899 703.03 592.338C701.663 593.777 700.081 594.906 698.282 595.727C696.484 596.532 694.556 596.935 692.498 596.935ZM692.498 590.978C693.721 590.978 694.872 590.727 695.951 590.223C697.03 589.705 697.98 589 698.8 588.108C699.62 587.216 700.261 586.187 700.721 585.022C701.196 583.856 701.433 582.604 701.433 581.266C701.433 579.928 701.196 578.676 700.721 577.511C700.261 576.331 699.62 575.302 698.8 574.424C697.98 573.532 697.03 572.834 695.951 572.331C694.872 571.813 693.721 571.554 692.498 571.554C691.275 571.554 690.124 571.813 689.045 572.331C687.966 572.834 687.016 573.532 686.196 574.424C685.376 575.316 684.728 576.345 684.253 577.511C683.793 578.676 683.563 579.928 683.563 581.266C683.563 582.604 683.793 583.863 684.253 585.043C684.728 586.209 685.376 587.237 686.196 588.129C687.016 589.007 687.966 589.705 689.045 590.223C690.124 590.727 691.275 590.978 692.498 590.978ZM732.836 566.158V572.115H723.944V596.374H717.987V572.115H709.095V566.158H732.836ZM747.517 596.374V566.158H765.431V572.115H753.474V577.209H763.359V583.165H753.474V596.374H747.517ZM782.37 596.935C780.327 596.935 778.406 596.532 776.607 595.727C774.809 594.906 773.226 593.777 771.859 592.338C770.492 590.899 769.42 589.237 768.643 587.352C767.866 585.453 767.478 583.424 767.478 581.266C767.478 579.108 767.866 577.086 768.643 575.201C769.42 573.302 770.492 571.633 771.859 570.194C773.226 568.755 774.809 567.633 776.607 566.827C778.406 566.007 780.327 565.597 782.37 565.597C784.427 565.597 786.355 566.007 788.154 566.827C789.953 567.633 791.535 568.755 792.902 570.194C794.269 571.633 795.334 573.302 796.096 575.201C796.873 577.086 797.262 579.108 797.262 581.266C797.262 583.424 796.873 585.453 796.096 587.352C795.334 589.237 794.269 590.899 792.902 592.338C791.535 593.777 789.953 594.906 788.154 595.727C786.355 596.532 784.427 596.935 782.37 596.935ZM782.37 590.978C783.593 590.978 784.744 590.727 785.823 590.223C786.902 589.705 787.852 589 788.672 588.108C789.492 587.216 790.132 586.187 790.593 585.022C791.068 583.856 791.305 582.604 791.305 581.266C791.305 579.928 791.068 578.676 790.593 577.511C790.132 576.331 789.492 575.302 788.672 574.424C787.852 573.532 786.902 572.834 785.823 572.331C784.744 571.813 783.593 571.554 782.37 571.554C781.147 571.554 779.996 571.813 778.917 572.331C777.837 572.834 776.888 573.532 776.068 574.424C775.248 575.316 774.6 576.345 774.125 577.511C773.665 578.676 773.435 579.928 773.435 581.266C773.435 582.604 773.665 583.863 774.125 585.043C774.6 586.209 775.248 587.237 776.068 588.129C776.888 589.007 777.837 589.705 778.917 590.223C779.996 590.727 781.147 590.978 782.37 590.978ZM813.353 596.935C810.935 596.935 808.806 596.345 806.964 595.165C805.137 593.986 803.705 592.403 802.669 590.417C801.648 588.417 801.137 586.201 801.137 583.77V566.158H807.094V583.77C807.094 585.079 807.338 586.28 807.827 587.374C808.317 588.468 809.029 589.345 809.964 590.007C810.899 590.655 812.029 590.978 813.353 590.978C814.691 590.978 815.82 590.655 816.741 590.007C817.676 589.36 818.381 588.489 818.856 587.396C819.331 586.302 819.568 585.093 819.568 583.77V566.158H825.525V583.77C825.525 585.597 825.23 587.309 824.64 588.906C824.065 590.489 823.237 591.885 822.158 593.093C821.079 594.302 819.791 595.245 818.295 595.921C816.813 596.597 815.165 596.935 813.353 596.935ZM830.096 596.374V566.158H836.528L848.312 585.604V566.158H854.269V596.374H847.837L836.053 576.928V596.374H830.096ZM859.435 596.374V566.158H869.45C871.536 566.158 873.486 566.554 875.299 567.345C877.126 568.122 878.73 569.209 880.112 570.604C881.507 571.986 882.594 573.59 883.371 575.417C884.162 577.23 884.558 579.18 884.558 581.266C884.558 583.352 884.162 585.309 883.371 587.137C882.594 588.95 881.507 590.554 880.112 591.95C878.73 593.331 877.126 594.417 875.299 595.209C873.486 595.986 871.536 596.374 869.45 596.374H859.435ZM865.392 590.417H869.45C870.687 590.417 871.853 590.18 872.946 589.705C874.054 589.23 875.033 588.575 875.881 587.741C876.73 586.906 877.392 585.935 877.867 584.827C878.356 583.719 878.601 582.532 878.601 581.266C878.601 580 878.356 578.82 877.867 577.727C877.392 576.619 876.73 575.647 875.881 574.813C875.047 573.964 874.076 573.302 872.968 572.827C871.874 572.352 870.702 572.115 869.45 572.115H865.392V590.417Z" fill="#F2C438"/>
</g>
<defs>
<clipPath id="clip0_1536_4014">
<rect width="1440" height="1024" fill="white"/>
</clipPath>
</defs>
</svg>
