<svg width="44" height="44" viewBox="0 0 44 44" fill="none" xmlns="http://www.w3.org/2000/svg">
<rect x="0.25" y="0.25" width="43.5" height="43.5" rx="9.75" fill="white" fill-opacity="0.3"/>
<rect x="0.25" y="0.25" width="43.5" height="43.5" rx="9.75" stroke="white" strokeWidth="0.5"/>
<path d="M16.4418 19.5844C16.3231 19.4593 16.2289 19.3107 16.1647 19.1472C16.1005 18.9837 16.0674 18.8084 16.0674 18.6314C16.0674 18.4544 16.1005 18.2791 16.1647 18.1156C16.2289 17.9521 16.3231 17.8035 16.4418 17.6784L20.5038 13.3951C20.6821 13.2067 20.9094 13.0783 21.1568 13.0261C21.4042 12.9739 21.6607 13.0003 21.894 13.1019C22.1272 13.2036 22.3266 13.3759 22.4671 13.597C22.6076 13.8182 22.6828 14.0784 22.6832 14.3447C22.6829 14.478 22.6646 14.6107 22.629 14.7387C22.629 14.7723 22.6066 14.806 22.5939 14.843C22.5293 15.0095 22.4338 15.1607 22.3131 15.2876L18.2478 19.5844C18.1293 19.7096 17.9885 19.809 17.8336 19.8768C17.6786 19.9446 17.5125 19.9794 17.3448 19.9794C17.1771 19.9794 17.011 19.9446 16.856 19.8768C16.7011 19.809 16.5603 19.7096 16.4418 19.5844ZM20.5932 22.3457L13.0881 30.2558C12.9989 30.3494 12.8854 30.4131 12.7619 30.4389C12.6385 30.4646 12.5106 30.4513 12.3943 30.4005C12.278 30.3498 12.1786 30.2639 12.1084 30.1537C12.0382 30.0434 12.0005 29.9138 12 29.781C12.0057 29.6047 12.0768 29.4379 12.1978 29.3163L19.6997 21.3893C20.0453 21.6541 20.3472 21.9772 20.5932 22.3457ZM21.86 23.393L21.8153 23.4435C21.591 22.6547 21.1851 21.9368 20.6339 21.3539C20.0827 20.771 19.4032 20.3413 18.6563 20.103L18.7009 20.0592L22.7598 15.7758C22.7917 15.7422 22.8236 15.7051 22.8523 15.6681C23.0672 16.4639 23.471 17.1887 24.0255 17.7739C24.58 18.359 25.2668 18.7852 26.0209 19.0119L25.9188 19.1096L21.86 23.393ZM28.5513 20.5374C28.551 20.7146 28.5176 20.8899 28.453 21.0535C28.3884 21.217 28.2939 21.3655 28.1748 21.4904L24.1159 25.7771C23.9974 25.9023 23.8566 26.0017 23.7017 26.0695C23.5467 26.1373 23.3806 26.1722 23.2129 26.1722C23.0452 26.1722 22.8791 26.1373 22.7241 26.0695C22.5692 26.0017 22.4284 25.9023 22.3099 25.7771C22.1914 25.6519 22.0974 25.5033 22.0334 25.3398C21.9693 25.1763 21.9364 25.0011 21.9365 24.8241C21.9365 24.6811 21.958 24.539 22.0004 24.4032C22.0074 24.3769 22.016 24.351 22.0259 24.3257C22.088 24.1542 22.1849 23.999 22.3099 23.8711L26.3719 19.5844C26.4961 19.454 26.6451 19.353 26.8091 19.2881C26.8368 19.275 26.8656 19.2648 26.8952 19.2578C27.0209 19.2144 27.1523 19.1928 27.2845 19.1938C27.623 19.1938 27.9477 19.3357 28.1871 19.5883C28.4264 19.8409 28.5609 20.1835 28.5609 20.5407L28.5513 20.5374ZM31.0427 28.9795H23.3845C23.1306 28.9795 22.8871 29.086 22.7076 29.2754C22.5281 29.4649 22.4272 29.7218 22.4272 29.9898C22.4272 30.2577 22.5281 30.5147 22.7076 30.7041C22.8871 30.8936 23.1306 31 23.3845 31H31.0427C31.2966 31 31.5401 30.8936 31.7196 30.7041C31.8991 30.5147 32 30.2577 32 29.9898C32 29.7218 31.8991 29.4649 31.7196 29.2754C31.5401 29.086 31.2966 28.9795 31.0427 28.9795Z" fill="#142A66"/>
</svg>
